<?xml version="1.0" encoding="UTF-8" standalone="no"?>
<!-- Created with Inkscape (http://www.inkscape.org/) -->

<svg
   width="482.60001mm"
   height="90mm"
   viewBox="0 0 482.6 90"
   version="1.1"
   id="svg5"
   inkscape:version="1.1.1 (c3084ef, 2021-09-22)"
   sodipodi:docname="FrontPanel.svg"
   xmlns:inkscape="http://www.inkscape.org/namespaces/inkscape"
   xmlns:sodipodi="http://sodipodi.sourceforge.net/DTD/sodipodi-0.dtd"
   xmlns="http://www.w3.org/2000/svg"
   xmlns:svg="http://www.w3.org/2000/svg">
  <sodipodi:namedview
     id="namedview7"
     pagecolor="#ffffff"
     bordercolor="#666666"
     borderopacity="1.0"
     inkscape:pageshadow="2"
     inkscape:pageopacity="0.0"
     inkscape:pagecheckerboard="0"
     inkscape:document-units="mm"
     showgrid="false"
     height="90mm"
     showguides="true"
     inkscape:guide-bbox="true"
     inkscape:object-paths="true"
     inkscape:snap-bbox="true"
     inkscape:snap-others="false"
     inkscape:zoom="1.4142136"
     inkscape:cx="824.4865"
     inkscape:cy="166.8772"
     inkscape:window-width="2560"
     inkscape:window-height="1387"
     inkscape:window-x="0"
     inkscape:window-y="25"
     inkscape:window-maximized="0"
     inkscape:current-layer="layer2"
     inkscape:lockguides="false">
    <sodipodi:guide
       position="461.26797,37.347917"
       orientation="1,0"
       id="guide6604"
       inkscape:locked="false" />
    <sodipodi:guide
       position="-47.520522,50.000001"
       orientation="0,1"
       id="guide6630"
       inkscape:label=""
       inkscape:locked="false"
       inkscape:color="rgb(0,0,255)" />
    <sodipodi:guide
       position="-45.462546,20"
       orientation="0,1"
       id="guide6798"
       inkscape:label=""
       inkscape:locked="false"
       inkscape:color="rgb(0,0,255)" />
    <sodipodi:guide
       position="21.304722,25.781815"
       orientation="1,0"
       id="guide6800"
       inkscape:locked="false" />
    <sodipodi:guide
       position="451.84219,51.759441"
       orientation="1,0"
       id="guide6802"
       inkscape:locked="false" />
    <sodipodi:guide
       position="56.874955,60.000001"
       orientation="0,1"
       id="guide49145"
       inkscape:label=""
       inkscape:locked="false"
       inkscape:color="rgb(0,0,255)" />
    <sodipodi:guide
       position="8.0448128,30"
       orientation="0,1"
       id="guide49147"
       inkscape:label=""
       inkscape:locked="false"
       inkscape:color="rgb(0,0,255)" />
  </sodipodi:namedview>
  <defs
     id="defs2" />
  <g
     inkscape:label="Layer 1"
     inkscape:groupmode="layer"
     id="layer1"
     style="display:inline">
    <rect
       style="fill:none;stroke:#000000;stroke-width:0.198726;stroke-miterlimit:4;stroke-dasharray:none;stroke-opacity:1"
       id="rect87071"
       width="482.63684"
       height="89.703835"
       x="0.049363539"
       y="0.14290787" />
    <path
       id="path87632"
       style="fill:none;stroke:#000000;stroke-width:0.0992266"
       d="m 40.477192,34.586632 c 1.80982,1.122451 3.01511,3.127174 3.01511,5.413407 V 40 c 0,3.515507 -2.84988,6.365388 -6.36539,6.365386 -3.5155,-4e-6 -6.36538,-2.849883 -6.36538,-6.365386 0,-2.287022 1.20612,-4.292339 3.01699,-5.414568 z"
       sodipodi:nodetypes="csssscc" />
    <path
       id="path87632-0"
       style="display:inline;fill:none;stroke:#000000;stroke-width:0.0992266"
       d="m 65.877192,34.586448 c 1.80982,1.122451 3.01511,3.127174 3.01511,5.413407 v -3.9e-5 c 0,3.515507 -2.84988,6.365388 -6.36539,6.365386 -3.5155,-4e-6 -6.36538,-2.849883 -6.36538,-6.365386 0,-2.287022 1.20612,-4.292339 3.01699,-5.414568 z"
       sodipodi:nodetypes="csssscc" />
    <path
       id="path87632-0-4"
       style="display:inline;fill:none;stroke:#000000;stroke-width:0.0992266"
       d="m 91.277192,34.586448 c 1.80982,1.122451 3.01511,3.127174 3.01511,5.413407 v -3.9e-5 c 0,3.515507 -2.84988,6.365388 -6.36539,6.365386 -3.5155,-4e-6 -6.36538,-2.849883 -6.36538,-6.365386 0,-2.287022 1.20612,-4.292339 3.01699,-5.414568 z"
       sodipodi:nodetypes="csssscc" />
    <path
       id="path87632-0-5"
       style="display:inline;fill:none;stroke:#000000;stroke-width:0.0992266"
       d="m 116.67718,34.586448 c 1.80982,1.122451 3.01511,3.127174 3.01511,5.413407 v -3.9e-5 c 0,3.515507 -2.84988,6.365388 -6.36539,6.365386 -3.5155,-4e-6 -6.36538,-2.849883 -6.36538,-6.365386 0,-2.287022 1.20612,-4.292339 3.01699,-5.414568 z"
       sodipodi:nodetypes="csssscc" />
    <path
       id="path87632-0-40"
       style="display:inline;fill:none;stroke:#000000;stroke-width:0.0992266"
       d="m 142.07718,34.586448 c 1.80982,1.122451 3.01511,3.127174 3.01511,5.413407 v -3.9e-5 c 0,3.515507 -2.84988,6.365388 -6.36539,6.365386 -3.5155,-4e-6 -6.36538,-2.849883 -6.36538,-6.365386 0,-2.287022 1.20612,-4.292339 3.01699,-5.414568 z"
       sodipodi:nodetypes="csssscc" />
    <path
       id="path87632-0-44"
       style="display:inline;fill:none;stroke:#000000;stroke-width:0.0992266"
       d="m 167.47718,34.586448 c 1.80982,1.122451 3.01511,3.127174 3.01511,5.413407 v -3.9e-5 c 0,3.515507 -2.84988,6.365388 -6.36539,6.365386 -3.5155,-4e-6 -6.36538,-2.849883 -6.36538,-6.365386 0,-2.287022 1.20612,-4.292339 3.01699,-5.414568 z"
       sodipodi:nodetypes="csssscc" />
    <path
       id="path87632-0-6"
       style="display:inline;fill:none;stroke:#000000;stroke-width:0.0992266"
       d="m 192.87718,34.586448 c 1.80982,1.122451 3.01511,3.127174 3.01511,5.413407 v -3.9e-5 c 0,3.515507 -2.84988,6.365388 -6.36539,6.365386 -3.5155,-4e-6 -6.36538,-2.849883 -6.36538,-6.365386 0,-2.287022 1.20612,-4.292339 3.01699,-5.414568 z"
       sodipodi:nodetypes="csssscc" />
    <path
       id="path87632-0-41"
       style="display:inline;fill:none;stroke:#000000;stroke-width:0.0992266"
       d="m 218.27718,34.586409 c 1.80982,1.122451 3.01511,3.127174 3.01511,5.413407 v -3.9e-5 c 0,3.515507 -2.84988,6.365388 -6.36539,6.365386 -3.5155,-4e-6 -6.36538,-2.849883 -6.36538,-6.365386 0,-2.287022 1.20612,-4.292339 3.01699,-5.414568 z"
       sodipodi:nodetypes="csssscc" />
    <path
       id="path87632-04"
       style="display:inline;fill:none;stroke:#000000;stroke-width:0.0992266"
       d="m 271.02336,34.586816 c 1.80982,1.122451 3.01511,3.127174 3.01511,5.413407 v -3.9e-5 c 0,3.515507 -2.84988,6.365388 -6.36539,6.365386 -3.5155,-4e-6 -6.36538,-2.849883 -6.36538,-6.365386 0,-2.287022 1.20612,-4.292339 3.01699,-5.414568 z"
       sodipodi:nodetypes="csssscc" />
    <path
       id="path87632-0-66"
       style="display:inline;fill:none;stroke:#000000;stroke-width:0.0992266"
       d="m 296.42336,34.586632 c 1.80982,1.122451 3.01511,3.127174 3.01511,5.413407 V 40 c 0,3.515507 -2.84988,6.365388 -6.36539,6.365386 -3.5155,-4e-6 -6.36538,-2.849883 -6.36538,-6.365386 0,-2.287022 1.20612,-4.292339 3.01699,-5.414568 z"
       sodipodi:nodetypes="csssscc" />
    <path
       id="path87632-0-4-8"
       style="display:inline;fill:none;stroke:#000000;stroke-width:0.0992266"
       d="m 321.82336,34.586632 c 1.80982,1.122451 3.01511,3.127174 3.01511,5.413407 V 40 c 0,3.515507 -2.84988,6.365388 -6.36539,6.365386 -3.5155,-4e-6 -6.36538,-2.849883 -6.36538,-6.365386 0,-2.287022 1.20612,-4.292339 3.01699,-5.414568 z"
       sodipodi:nodetypes="csssscc" />
    <path
       id="path87632-0-5-5"
       style="display:inline;fill:none;stroke:#000000;stroke-width:0.0992266"
       d="m 347.22336,34.586632 c 1.80982,1.122451 3.01511,3.127174 3.01511,5.413407 V 40 c 0,3.515507 -2.84988,6.365388 -6.36539,6.365386 -3.5155,-4e-6 -6.36538,-2.849883 -6.36538,-6.365386 0,-2.287022 1.20612,-4.292339 3.01699,-5.414568 z"
       sodipodi:nodetypes="csssscc" />
    <path
       id="path87632-0-40-7"
       style="display:inline;fill:none;stroke:#000000;stroke-width:0.0992266"
       d="m 372.62336,34.586632 c 1.80982,1.122451 3.01511,3.127174 3.01511,5.413407 V 40 c 0,3.515507 -2.84988,6.365388 -6.36539,6.365386 -3.5155,-4e-6 -6.36538,-2.849883 -6.36538,-6.365386 0,-2.287022 1.20612,-4.292339 3.01699,-5.414568 z"
       sodipodi:nodetypes="csssscc" />
    <path
       id="path87632-0-44-5"
       style="display:inline;fill:none;stroke:#000000;stroke-width:0.0992266"
       d="m 398.02336,34.586632 c 1.80982,1.122451 3.01511,3.127174 3.01511,5.413407 V 40 c 0,3.515507 -2.84988,6.365388 -6.36539,6.365386 -3.5155,-4e-6 -6.36538,-2.849883 -6.36538,-6.365386 0,-2.287022 1.20612,-4.292339 3.01699,-5.414568 z"
       sodipodi:nodetypes="csssscc" />
    <path
       id="path87632-0-6-0"
       style="display:inline;fill:none;stroke:#000000;stroke-width:0.0992266"
       d="m 423.42336,34.586632 c 1.80982,1.122451 3.01511,3.127174 3.01511,5.413407 V 40 c 0,3.515507 -2.84988,6.365388 -6.36539,6.365386 -3.5155,-4e-6 -6.36538,-2.849883 -6.36538,-6.365386 0,-2.287022 1.20612,-4.292339 3.01699,-5.414568 z"
       sodipodi:nodetypes="csssscc" />
    <path
       id="path87632-0-41-5"
       style="display:inline;fill:none;stroke:#000000;stroke-width:0.0992266"
       d="m 448.82336,34.586593 c 1.80982,1.122451 3.01511,3.127174 3.01511,5.413407 v -3.9e-5 c 0,3.515507 -2.84988,6.365388 -6.36539,6.365386 -3.5155,-4e-6 -6.36538,-2.849883 -6.36538,-6.365386 0,-2.287022 1.20612,-4.292339 3.01699,-5.414568 z"
       sodipodi:nodetypes="csssscc" />
    <path
       id="path87632-4"
       style="display:inline;fill:none;stroke:#000000;stroke-width:0.0992266"
       d="m 40.477197,64.586671 c 1.80982,1.122451 3.01511,3.127174 3.01511,5.413407 v -3.9e-5 c 0,3.515507 -2.84988,6.365388 -6.36539,6.365386 -3.5155,-4e-6 -6.36538,-2.849883 -6.36538,-6.365386 0,-2.287022 1.20612,-4.292339 3.01699,-5.414568 z"
       sodipodi:nodetypes="csssscc" />
    <path
       id="path87632-0-7"
       style="display:inline;fill:none;stroke:#000000;stroke-width:0.0992266"
       d="m 65.877197,64.586487 c 1.80982,1.122451 3.01511,3.127174 3.01511,5.413407 v -3.9e-5 c 0,3.515507 -2.84988,6.365388 -6.36539,6.365386 -3.5155,-4e-6 -6.36538,-2.849883 -6.36538,-6.365386 0,-2.287022 1.20612,-4.292339 3.01699,-5.414568 z"
       sodipodi:nodetypes="csssscc" />
    <path
       id="path87632-0-4-0"
       style="display:inline;fill:none;stroke:#000000;stroke-width:0.0992266"
       d="m 91.277197,64.586487 c 1.80982,1.122451 3.01511,3.127174 3.01511,5.413407 v -3.9e-5 c 0,3.515507 -2.84988,6.365388 -6.36539,6.365386 -3.5155,-4e-6 -6.36538,-2.849883 -6.36538,-6.365386 0,-2.287022 1.20612,-4.292339 3.01699,-5.414568 z"
       sodipodi:nodetypes="csssscc" />
    <path
       id="path87632-0-5-8"
       style="display:inline;fill:none;stroke:#000000;stroke-width:0.0992266"
       d="m 116.67719,64.586487 c 1.80982,1.122451 3.01511,3.127174 3.01511,5.413407 v -3.9e-5 c 0,3.515507 -2.84988,6.365388 -6.36539,6.365386 -3.5155,-4e-6 -6.36538,-2.849883 -6.36538,-6.365386 0,-2.287022 1.20612,-4.292339 3.01699,-5.414568 z"
       sodipodi:nodetypes="csssscc" />
    <path
       id="path87632-0-40-6"
       style="display:inline;fill:none;stroke:#000000;stroke-width:0.0992266"
       d="m 142.07718,64.586487 c 1.80982,1.122451 3.01511,3.127174 3.01511,5.413407 v -3.9e-5 c 0,3.515507 -2.84988,6.365388 -6.36539,6.365386 -3.5155,-4e-6 -6.36537,-2.849883 -6.36537,-6.365386 0,-2.287022 1.20612,-4.292339 3.01698,-5.414568 z"
       sodipodi:nodetypes="csssscc" />
    <path
       id="path87632-0-44-1"
       style="display:inline;fill:none;stroke:#000000;stroke-width:0.0992266"
       d="m 167.47718,64.586487 c 1.80982,1.122451 3.01511,3.127174 3.01511,5.413407 v -3.9e-5 c 0,3.515507 -2.84988,6.365388 -6.36539,6.365386 -3.5155,-4e-6 -6.36538,-2.849883 -6.36538,-6.365386 0,-2.287022 1.20612,-4.292339 3.01699,-5.414568 z"
       sodipodi:nodetypes="csssscc" />
    <path
       id="path87632-0-6-6"
       style="display:inline;fill:none;stroke:#000000;stroke-width:0.0992266"
       d="m 192.87718,64.586487 c 1.80982,1.122451 3.01511,3.127174 3.01511,5.413407 v -3.9e-5 c 0,3.515507 -2.84988,6.365388 -6.36539,6.365386 -3.5155,-4e-6 -6.36538,-2.849883 -6.36538,-6.365386 0,-2.287022 1.20612,-4.292339 3.01699,-5.414568 z"
       sodipodi:nodetypes="csssscc" />
    <path
       id="path87632-0-41-4"
       style="display:inline;fill:none;stroke:#000000;stroke-width:0.0992266"
       d="m 218.27718,64.586448 c 1.80982,1.122451 3.01511,3.127174 3.01511,5.413407 v -3.9e-5 c 0,3.515507 -2.84988,6.365388 -6.36539,6.365386 -3.5155,-4e-6 -6.36538,-2.849883 -6.36538,-6.365386 0,-2.287022 1.20612,-4.292339 3.01699,-5.414568 z"
       sodipodi:nodetypes="csssscc" />
    <path
       id="path87632-04-3"
       style="display:inline;fill:none;stroke:#000000;stroke-width:0.0992266"
       d="m 271.02336,64.586855 c 1.80982,1.122451 3.01511,3.127174 3.01511,5.413407 v -3.9e-5 c 0,3.515507 -2.84988,6.365388 -6.36539,6.365386 -3.5155,-4e-6 -6.36538,-2.849883 -6.36538,-6.365386 0,-2.287022 1.20612,-4.292339 3.01699,-5.414568 z"
       sodipodi:nodetypes="csssscc" />
    <path
       id="path87632-0-66-5"
       style="display:inline;fill:none;stroke:#000000;stroke-width:0.0992266"
       d="m 296.42336,64.586671 c 1.80982,1.122451 3.01511,3.127174 3.01511,5.413407 v -3.9e-5 c 0,3.515507 -2.84988,6.365388 -6.36539,6.365386 -3.5155,-4e-6 -6.36538,-2.849883 -6.36538,-6.365386 0,-2.287022 1.20612,-4.292339 3.01699,-5.414568 z"
       sodipodi:nodetypes="csssscc" />
    <path
       id="path87632-0-4-8-5"
       style="display:inline;fill:none;stroke:#000000;stroke-width:0.0992266"
       d="m 321.82336,64.586671 c 1.80982,1.122451 3.01511,3.127174 3.01511,5.413407 v -3.9e-5 c 0,3.515507 -2.84988,6.365388 -6.36539,6.365386 -3.5155,-4e-6 -6.36538,-2.849883 -6.36538,-6.365386 0,-2.287022 1.20612,-4.292339 3.01699,-5.414568 z"
       sodipodi:nodetypes="csssscc" />
    <path
       id="path87632-0-5-5-1"
       style="display:inline;fill:none;stroke:#000000;stroke-width:0.0992266"
       d="m 347.22336,64.586671 c 1.80982,1.122451 3.01511,3.127174 3.01511,5.413407 v -3.9e-5 c 0,3.515507 -2.84988,6.365388 -6.36539,6.365386 -3.5155,-4e-6 -6.36538,-2.849883 -6.36538,-6.365386 0,-2.287022 1.20612,-4.292339 3.01699,-5.414568 z"
       sodipodi:nodetypes="csssscc" />
    <path
       id="path87632-0-40-7-9"
       style="display:inline;fill:none;stroke:#000000;stroke-width:0.0992266"
       d="m 372.62336,64.586671 c 1.80982,1.122451 3.01511,3.127174 3.01511,5.413407 v -3.9e-5 c 0,3.515507 -2.84988,6.365388 -6.36539,6.365386 -3.5155,-4e-6 -6.36538,-2.849883 -6.36538,-6.365386 0,-2.287022 1.20612,-4.292339 3.01699,-5.414568 z"
       sodipodi:nodetypes="csssscc" />
    <path
       id="path87632-0-44-5-3"
       style="display:inline;fill:none;stroke:#000000;stroke-width:0.0992266"
       d="m 398.02336,64.586671 c 1.80982,1.122451 3.01511,3.127174 3.01511,5.413407 v -3.9e-5 c 0,3.515507 -2.84988,6.365388 -6.36539,6.365386 -3.5155,-4e-6 -6.36538,-2.849883 -6.36538,-6.365386 0,-2.287022 1.20612,-4.292339 3.01699,-5.414568 z"
       sodipodi:nodetypes="csssscc" />
    <path
       id="path87632-0-6-0-6"
       style="display:inline;fill:none;stroke:#000000;stroke-width:0.0992266"
       d="m 423.42336,64.586671 c 1.80982,1.122451 3.01511,3.127174 3.01511,5.413407 v -3.9e-5 c 0,3.515507 -2.84988,6.365388 -6.36539,6.365386 -3.5155,-4e-6 -6.36538,-2.849883 -6.36538,-6.365386 0,-2.287022 1.20612,-4.292339 3.01699,-5.414568 z"
       sodipodi:nodetypes="csssscc" />
    <path
       id="path87632-0-41-5-0"
       style="display:inline;fill:none;stroke:#000000;stroke-width:0.0992266"
       d="m 448.82336,64.586632 c 1.80982,1.122451 3.01511,3.127174 3.01511,5.413407 V 70 c 0,3.515507 -2.84988,6.365388 -6.36539,6.365386 -3.5155,-4e-6 -6.36538,-2.849883 -6.36538,-6.365386 0,-2.287022 1.20612,-4.292339 3.01699,-5.414568 z"
       sodipodi:nodetypes="csssscc" />
  </g>
  <g
     inkscape:groupmode="layer"
     id="layer3"
     inkscape:label="Boundary" />
  <g
     inkscape:groupmode="layer"
     id="layer2"
     inkscape:label="Layer 2">
    <text
       xml:space="preserve"
       style="font-style:normal;font-weight:normal;font-size:10.5833px;line-height:1.25;font-family:sans-serif;fill:#000000;fill-opacity:1;stroke:none;stroke-width:0.264583"
       x="20.958742"
       y="13.991528"
       id="text10595"><tspan
         sodipodi:role="line"
         id="tspan10593"
         style="font-style:normal;font-variant:normal;font-weight:bold;font-stretch:normal;font-family:sans-serif;-inkscape-font-specification:'sans-serif Bold';stroke-width:0.264583"
         x="20.958742"
         y="13.991528">Digital Buffer Box</tspan></text>
    <text
       xml:space="preserve"
       style="font-style:normal;font-weight:normal;font-size:4.93889px;line-height:1.25;font-family:sans-serif;fill:#000000;fill-opacity:1;stroke:none;stroke-width:0.264583"
       x="31.355722"
       y="29.912533"
       id="text27267"><tspan
         sodipodi:role="line"
         id="tspan27265"
         style="font-style:normal;font-variant:normal;font-weight:bold;font-stretch:normal;font-size:4.93889px;font-family:sans-serif;-inkscape-font-specification:'sans-serif Bold';stroke-width:0.264583"
         x="31.355722"
         y="29.912533">CH0</tspan></text>
    <text
       xml:space="preserve"
       style="font-style:normal;font-weight:normal;font-size:4.93889px;line-height:1.25;font-family:sans-serif;fill:#000000;fill-opacity:1;stroke:none;stroke-width:0.264583"
       x="56.65427"
       y="29.917542"
       id="text27267-1"><tspan
         sodipodi:role="line"
         id="tspan27265-1"
         style="font-style:normal;font-variant:normal;font-weight:bold;font-stretch:normal;font-size:4.93889px;font-family:sans-serif;-inkscape-font-specification:'sans-serif Bold';stroke-width:0.264583"
         x="56.65427"
         y="29.917542">CH1</tspan></text>
    <text
       xml:space="preserve"
       style="font-style:normal;font-weight:normal;font-size:4.93889px;line-height:1.25;font-family:sans-serif;fill:#000000;fill-opacity:1;stroke:none;stroke-width:0.264583"
       x="82.101295"
       y="29.917542"
       id="text27267-1-4"><tspan
         sodipodi:role="line"
         id="tspan27265-1-5"
         style="font-style:normal;font-variant:normal;font-weight:bold;font-stretch:normal;font-size:4.93889px;font-family:sans-serif;-inkscape-font-specification:'sans-serif Bold';stroke-width:0.264583"
         x="82.101295"
         y="29.917542">CH2</tspan></text>
    <text
       xml:space="preserve"
       style="font-style:normal;font-weight:normal;font-size:4.93889px;line-height:1.25;font-family:sans-serif;fill:#000000;fill-opacity:1;stroke:none;stroke-width:0.264583"
       x="107.42896"
       y="29.858711"
       id="text27267-1-3"><tspan
         sodipodi:role="line"
         id="tspan27265-1-9"
         style="font-style:normal;font-variant:normal;font-weight:bold;font-stretch:normal;font-size:4.93889px;font-family:sans-serif;-inkscape-font-specification:'sans-serif Bold';stroke-width:0.264583"
         x="107.42896"
         y="29.858711">CH3</tspan></text>
    <text
       xml:space="preserve"
       style="font-style:normal;font-weight:normal;font-size:4.93889px;line-height:1.25;font-family:sans-serif;fill:#000000;fill-opacity:1;stroke:none;stroke-width:0.264583"
       x="132.89287"
       y="29.87077"
       id="text27267-1-3-0"><tspan
         sodipodi:role="line"
         id="tspan27265-1-9-6"
         style="font-style:normal;font-variant:normal;font-weight:bold;font-stretch:normal;font-size:4.93889px;font-family:sans-serif;-inkscape-font-specification:'sans-serif Bold';stroke-width:0.264583"
         x="132.89287"
         y="29.87077">CH4</tspan></text>
    <text
       xml:space="preserve"
       style="font-style:normal;font-weight:normal;font-size:4.93889px;line-height:1.25;font-family:sans-serif;fill:#000000;fill-opacity:1;stroke:none;stroke-width:0.264583"
       x="158.25668"
       y="29.87077"
       id="text27267-1-3-2"><tspan
         sodipodi:role="line"
         id="tspan27265-1-9-7"
         style="font-style:normal;font-variant:normal;font-weight:bold;font-stretch:normal;font-size:4.93889px;font-family:sans-serif;-inkscape-font-specification:'sans-serif Bold';stroke-width:0.264583"
         x="158.25668"
         y="29.87077">CH5</tspan></text>
    <text
       xml:space="preserve"
       style="font-style:normal;font-weight:normal;font-size:4.93889px;line-height:1.25;font-family:sans-serif;fill:#000000;fill-opacity:1;stroke:none;stroke-width:0.264583"
       x="183.69165"
       y="29.870773"
       id="text27267-1-3-7"><tspan
         sodipodi:role="line"
         id="tspan27265-1-9-3"
         style="font-style:normal;font-variant:normal;font-weight:bold;font-stretch:normal;font-size:4.93889px;font-family:sans-serif;-inkscape-font-specification:'sans-serif Bold';stroke-width:0.264583"
         x="183.69165"
         y="29.870773">CH6</tspan></text>
    <text
       xml:space="preserve"
       style="font-style:normal;font-weight:normal;font-size:4.93889px;line-height:1.25;font-family:sans-serif;fill:#000000;fill-opacity:1;stroke:none;stroke-width:0.264583"
       x="209.05066"
       y="29.87077"
       id="text27267-1-3-25"><tspan
         sodipodi:role="line"
         id="tspan27265-1-9-35"
         style="font-style:normal;font-variant:normal;font-weight:bold;font-stretch:normal;font-size:4.93889px;font-family:sans-serif;-inkscape-font-specification:'sans-serif Bold';stroke-width:0.264583"
         x="209.05066"
         y="29.87077">CH7</tspan></text>
    <text
       xml:space="preserve"
       style="font-style:normal;font-weight:normal;font-size:4.93889px;line-height:1.25;font-family:sans-serif;fill:#000000;fill-opacity:1;stroke:none;stroke-width:0.264583"
       x="29.541046"
       y="59.931824"
       id="text27267-5"><tspan
         sodipodi:role="line"
         id="tspan27265-9"
         style="font-style:normal;font-variant:normal;font-weight:bold;font-stretch:normal;font-size:4.93889px;font-family:sans-serif;-inkscape-font-specification:'sans-serif Bold';stroke-width:0.264583"
         x="29.541046"
         y="59.931824">CH16</tspan></text>
    <text
       xml:space="preserve"
       style="font-style:normal;font-weight:normal;font-size:4.93889px;line-height:1.25;font-family:sans-serif;fill:#000000;fill-opacity:1;stroke:none;stroke-width:0.264583"
       x="54.900055"
       y="59.936836"
       id="text27267-1-0"><tspan
         sodipodi:role="line"
         id="tspan27265-1-8"
         style="font-style:normal;font-variant:normal;font-weight:bold;font-stretch:normal;font-size:4.93889px;font-family:sans-serif;-inkscape-font-specification:'sans-serif Bold';stroke-width:0.264583"
         x="54.900055"
         y="59.936836">CH17</tspan></text>
    <text
       xml:space="preserve"
       style="font-style:normal;font-weight:normal;font-size:4.93889px;line-height:1.25;font-family:sans-serif;fill:#000000;fill-opacity:1;stroke:none;stroke-width:0.264583"
       x="80.342255"
       y="59.936836"
       id="text27267-1-4-0"><tspan
         sodipodi:role="line"
         id="tspan27265-1-5-8"
         style="font-style:normal;font-variant:normal;font-weight:bold;font-stretch:normal;font-size:4.93889px;font-family:sans-serif;-inkscape-font-specification:'sans-serif Bold';stroke-width:0.264583"
         x="80.342255"
         y="59.936836">CH18</tspan></text>
    <text
       xml:space="preserve"
       style="font-style:normal;font-weight:normal;font-size:4.93889px;line-height:1.25;font-family:sans-serif;fill:#000000;fill-opacity:1;stroke:none;stroke-width:0.264583"
       x="105.71573"
       y="59.878006"
       id="text27267-1-3-24"><tspan
         sodipodi:role="line"
         id="tspan27265-1-9-4"
         style="font-style:normal;font-variant:normal;font-weight:bold;font-stretch:normal;font-size:4.93889px;font-family:sans-serif;-inkscape-font-specification:'sans-serif Bold';stroke-width:0.264583"
         x="105.71573"
         y="59.878006">CH19</tspan></text>
    <text
       xml:space="preserve"
       style="font-style:normal;font-weight:normal;font-size:4.93889px;line-height:1.25;font-family:sans-serif;fill:#000000;fill-opacity:1;stroke:none;stroke-width:0.264583"
       x="131.21703"
       y="59.89006"
       id="text27267-1-3-0-4"><tspan
         sodipodi:role="line"
         id="tspan27265-1-9-6-6"
         style="font-style:normal;font-variant:normal;font-weight:bold;font-stretch:normal;font-size:4.93889px;font-family:sans-serif;-inkscape-font-specification:'sans-serif Bold';stroke-width:0.264583"
         x="131.21703"
         y="59.89006">CH20</tspan></text>
    <text
       xml:space="preserve"
       style="font-style:normal;font-weight:normal;font-size:4.93889px;line-height:1.25;font-family:sans-serif;fill:#000000;fill-opacity:1;stroke:none;stroke-width:0.264583"
       x="156.50368"
       y="59.89006"
       id="text27267-1-3-2-8"><tspan
         sodipodi:role="line"
         id="tspan27265-1-9-7-4"
         style="font-style:normal;font-variant:normal;font-weight:bold;font-stretch:normal;font-size:4.93889px;font-family:sans-serif;-inkscape-font-specification:'sans-serif Bold';stroke-width:0.264583"
         x="156.50368"
         y="59.89006">CH21</tspan></text>
    <text
       xml:space="preserve"
       style="font-style:normal;font-weight:normal;font-size:4.93889px;line-height:1.25;font-family:sans-serif;fill:#000000;fill-opacity:1;stroke:none;stroke-width:0.264583"
       x="181.9507"
       y="59.890068"
       id="text27267-1-3-7-0"><tspan
         sodipodi:role="line"
         id="tspan27265-1-9-3-5"
         style="font-style:normal;font-variant:normal;font-weight:bold;font-stretch:normal;font-size:4.93889px;font-family:sans-serif;-inkscape-font-specification:'sans-serif Bold';stroke-width:0.264583"
         x="181.9507"
         y="59.890068">CH22</tspan></text>
    <text
       xml:space="preserve"
       style="font-style:normal;font-weight:normal;font-size:4.93889px;line-height:1.25;font-family:sans-serif;fill:#000000;fill-opacity:1;stroke:none;stroke-width:0.264583"
       x="207.27835"
       y="59.89006"
       id="text27267-1-3-25-3"><tspan
         sodipodi:role="line"
         id="tspan27265-1-9-35-5"
         style="font-style:normal;font-variant:normal;font-weight:bold;font-stretch:normal;font-size:4.93889px;font-family:sans-serif;-inkscape-font-specification:'sans-serif Bold';stroke-width:0.264583"
         x="207.27835"
         y="59.89006">CH23</tspan></text>
    <text
       xml:space="preserve"
       style="font-style:normal;font-weight:normal;font-size:4.93889px;line-height:1.25;font-family:sans-serif;fill:#000000;fill-opacity:1;stroke:none;stroke-width:0.264583"
       x="262.36096"
       y="29.838152"
       id="text27267-2"><tspan
         sodipodi:role="line"
         id="tspan27265-4"
         style="font-style:normal;font-variant:normal;font-weight:bold;font-stretch:normal;font-size:4.93889px;font-family:sans-serif;-inkscape-font-specification:'sans-serif Bold';stroke-width:0.264583"
         x="262.36096"
         y="29.838152">CH8</tspan></text>
    <text
       xml:space="preserve"
       style="font-style:normal;font-weight:normal;font-size:4.93889px;line-height:1.25;font-family:sans-serif;fill:#000000;fill-opacity:1;stroke:none;stroke-width:0.264583"
       x="287.49634"
       y="29.843161"
       id="text27267-1-5"><tspan
         sodipodi:role="line"
         id="tspan27265-1-7"
         style="font-style:normal;font-variant:normal;font-weight:bold;font-stretch:normal;font-size:4.93889px;font-family:sans-serif;-inkscape-font-specification:'sans-serif Bold';stroke-width:0.264583"
         x="287.49634"
         y="29.843161">CH9</tspan></text>
    <text
       xml:space="preserve"
       style="font-style:normal;font-weight:normal;font-size:4.93889px;line-height:1.25;font-family:sans-serif;fill:#000000;fill-opacity:1;stroke:none;stroke-width:0.264583"
       x="311.37924"
       y="29.843161"
       id="text27267-1-4-6"><tspan
         sodipodi:role="line"
         id="tspan27265-1-5-6"
         style="font-style:normal;font-variant:normal;font-weight:bold;font-stretch:normal;font-size:4.93889px;font-family:sans-serif;-inkscape-font-specification:'sans-serif Bold';stroke-width:0.264583"
         x="311.37924"
         y="29.843161">CH10</tspan></text>
    <text
       xml:space="preserve"
       style="font-style:normal;font-weight:normal;font-size:4.93889px;line-height:1.25;font-family:sans-serif;fill:#000000;fill-opacity:1;stroke:none;stroke-width:0.264583"
       x="336.66589"
       y="29.78433"
       id="text27267-1-3-74"><tspan
         sodipodi:role="line"
         id="tspan27265-1-9-75"
         style="font-style:normal;font-variant:normal;font-weight:bold;font-stretch:normal;font-size:4.93889px;font-family:sans-serif;-inkscape-font-specification:'sans-serif Bold';stroke-width:0.264583"
         x="336.66589"
         y="29.78433">CH11</tspan></text>
    <text
       xml:space="preserve"
       style="font-style:normal;font-weight:normal;font-size:4.93889px;line-height:1.25;font-family:sans-serif;fill:#000000;fill-opacity:1;stroke:none;stroke-width:0.264583"
       x="362.11292"
       y="29.796389"
       id="text27267-1-3-0-6"><tspan
         sodipodi:role="line"
         id="tspan27265-1-9-6-8"
         style="font-style:normal;font-variant:normal;font-weight:bold;font-stretch:normal;font-size:4.93889px;font-family:sans-serif;-inkscape-font-specification:'sans-serif Bold';stroke-width:0.264583"
         x="362.11292"
         y="29.796389">CH12</tspan></text>
    <text
       xml:space="preserve"
       style="font-style:normal;font-weight:normal;font-size:4.93889px;line-height:1.25;font-family:sans-serif;fill:#000000;fill-opacity:1;stroke:none;stroke-width:0.264583"
       x="387.44058"
       y="29.796389"
       id="text27267-1-3-2-9"><tspan
         sodipodi:role="line"
         id="tspan27265-1-9-7-49"
         style="font-style:normal;font-variant:normal;font-weight:bold;font-stretch:normal;font-size:4.93889px;font-family:sans-serif;-inkscape-font-specification:'sans-serif Bold';stroke-width:0.264583"
         x="387.44058"
         y="29.796389">CH13</tspan></text>
    <text
       xml:space="preserve"
       style="font-style:normal;font-weight:normal;font-size:4.93889px;line-height:1.25;font-family:sans-serif;fill:#000000;fill-opacity:1;stroke:none;stroke-width:0.264583"
       x="412.90448"
       y="29.796392"
       id="text27267-1-3-7-1"><tspan
         sodipodi:role="line"
         id="tspan27265-1-9-3-6"
         style="font-style:normal;font-variant:normal;font-weight:bold;font-stretch:normal;font-size:4.93889px;font-family:sans-serif;-inkscape-font-specification:'sans-serif Bold';stroke-width:0.264583"
         x="412.90448"
         y="29.796392">CH14</tspan></text>
    <text
       xml:space="preserve"
       style="font-style:normal;font-weight:normal;font-size:4.93889px;line-height:1.25;font-family:sans-serif;fill:#000000;fill-opacity:1;stroke:none;stroke-width:0.264583"
       x="438.26831"
       y="29.796389"
       id="text27267-1-3-25-6"><tspan
         sodipodi:role="line"
         id="tspan27265-1-9-35-1"
         style="font-style:normal;font-variant:normal;font-weight:bold;font-stretch:normal;font-size:4.93889px;font-family:sans-serif;-inkscape-font-specification:'sans-serif Bold';stroke-width:0.264583"
         x="438.26831"
         y="29.796389">CH15</tspan></text>
    <text
       xml:space="preserve"
       style="font-style:normal;font-weight:normal;font-size:4.93889px;line-height:1.25;font-family:sans-serif;fill:#000000;fill-opacity:1;stroke:none;stroke-width:0.264583"
       x="260.50952"
       y="59.857445"
       id="text27267-5-9"><tspan
         sodipodi:role="line"
         id="tspan27265-9-0"
         style="font-style:normal;font-variant:normal;font-weight:bold;font-stretch:normal;font-size:4.93889px;font-family:sans-serif;-inkscape-font-specification:'sans-serif Bold';stroke-width:0.264583"
         x="260.50952"
         y="59.857445">CH24</tspan></text>
    <text
       xml:space="preserve"
       style="font-style:normal;font-weight:normal;font-size:4.93889px;line-height:1.25;font-family:sans-serif;fill:#000000;fill-opacity:1;stroke:none;stroke-width:0.264583"
       x="285.87332"
       y="59.862457"
       id="text27267-1-0-5"><tspan
         sodipodi:role="line"
         id="tspan27265-1-8-3"
         style="font-style:normal;font-variant:normal;font-weight:bold;font-stretch:normal;font-size:4.93889px;font-family:sans-serif;-inkscape-font-specification:'sans-serif Bold';stroke-width:0.264583"
         x="285.87332"
         y="59.862457">CH25</tspan></text>
    <text
       xml:space="preserve"
       style="font-style:normal;font-weight:normal;font-size:4.93889px;line-height:1.25;font-family:sans-serif;fill:#000000;fill-opacity:1;stroke:none;stroke-width:0.264583"
       x="311.30832"
       y="59.862457"
       id="text27267-1-4-0-7"><tspan
         sodipodi:role="line"
         id="tspan27265-1-5-8-8"
         style="font-style:normal;font-variant:normal;font-weight:bold;font-stretch:normal;font-size:4.93889px;font-family:sans-serif;-inkscape-font-specification:'sans-serif Bold';stroke-width:0.264583"
         x="311.30832"
         y="59.862457">CH26</tspan></text>
    <text
       xml:space="preserve"
       style="font-style:normal;font-weight:normal;font-size:4.93889px;line-height:1.25;font-family:sans-serif;fill:#000000;fill-opacity:1;stroke:none;stroke-width:0.264583"
       x="336.6673"
       y="59.803627"
       id="text27267-1-3-24-8"><tspan
         sodipodi:role="line"
         id="tspan27265-1-9-4-8"
         style="font-style:normal;font-variant:normal;font-weight:bold;font-stretch:normal;font-size:4.93889px;font-family:sans-serif;-inkscape-font-specification:'sans-serif Bold';stroke-width:0.264583"
         x="336.6673"
         y="59.803627">CH27</tspan></text>
    <text
       xml:space="preserve"
       style="font-style:normal;font-weight:normal;font-size:4.93889px;line-height:1.25;font-family:sans-serif;fill:#000000;fill-opacity:1;stroke:none;stroke-width:0.264583"
       x="362.1095"
       y="59.815681"
       id="text27267-1-3-0-4-5"><tspan
         sodipodi:role="line"
         id="tspan27265-1-9-6-6-8"
         style="font-style:normal;font-variant:normal;font-weight:bold;font-stretch:normal;font-size:4.93889px;font-family:sans-serif;-inkscape-font-specification:'sans-serif Bold';stroke-width:0.264583"
         x="362.1095"
         y="59.815681">CH28</tspan></text>
    <text
       xml:space="preserve"
       style="font-style:normal;font-weight:normal;font-size:4.93889px;line-height:1.25;font-family:sans-serif;fill:#000000;fill-opacity:1;stroke:none;stroke-width:0.264583"
       x="387.48297"
       y="59.815681"
       id="text27267-1-3-2-8-2"><tspan
         sodipodi:role="line"
         id="tspan27265-1-9-7-4-4"
         style="font-style:normal;font-variant:normal;font-weight:bold;font-stretch:normal;font-size:4.93889px;font-family:sans-serif;-inkscape-font-specification:'sans-serif Bold';stroke-width:0.264583"
         x="387.48297"
         y="59.815681">CH29</tspan></text>
    <text
       xml:space="preserve"
       style="font-style:normal;font-weight:normal;font-size:4.93889px;line-height:1.25;font-family:sans-serif;fill:#000000;fill-opacity:1;stroke:none;stroke-width:0.264583"
       x="412.98428"
       y="59.815689"
       id="text27267-1-3-7-0-0"><tspan
         sodipodi:role="line"
         id="tspan27265-1-9-3-5-2"
         style="font-style:normal;font-variant:normal;font-weight:bold;font-stretch:normal;font-size:4.93889px;font-family:sans-serif;-inkscape-font-specification:'sans-serif Bold';stroke-width:0.264583"
         x="412.98428"
         y="59.815689">CH30</tspan></text>
    <text
       xml:space="preserve"
       style="font-style:normal;font-weight:normal;font-size:4.93889px;line-height:1.25;font-family:sans-serif;fill:#000000;fill-opacity:1;stroke:none;stroke-width:0.264583"
       x="438.27094"
       y="59.815681"
       id="text27267-1-3-25-3-6"><tspan
         sodipodi:role="line"
         id="tspan27265-1-9-35-5-1"
         style="font-style:normal;font-variant:normal;font-weight:bold;font-stretch:normal;font-size:4.93889px;font-family:sans-serif;-inkscape-font-specification:'sans-serif Bold';stroke-width:0.264583"
         x="438.27094"
         y="59.815681">CH31</tspan></text>
  </g>
</svg>
