M48
; DRILL file {KiCad (5.1.10-1-10_14)} date Thursday, October 07, 2021 at 08:18:45 PM
; FORMAT={-:-/ absolute / inch / decimal}
; #@! TF.CreationDate,2021-10-07T20:18:45-04:00
; #@! TF.GenerationSoftware,Kicad,Pcbnew,(5.1.10-1-10_14)
; #@! TF.FileFunction,Plated,1,2,PTH
FMAT,2
INCH
T1C0.0157
T2C0.0315
T3C0.0350
T4C0.0394
T5C0.0469
T6C0.0791
%
G90
G05
T1
X2.0965Y-3.3472
X2.1205Y-3.6484
X2.3189Y-2.8661
X2.3307Y-4.3543
X2.3524Y-3.1665
X2.3772Y-3.0075
X2.4283Y-3.2484
X2.4445Y-3.0894
X2.5102Y-3.1575
X2.5106Y-3.3291
X2.574Y-4.3555
X2.5787Y-3.2213
X2.6035Y-3.4106
X2.6504Y-3.2906
X2.7555Y-3.2969
X2.7559Y-3.4118
X2.8335Y-2.8646
X2.8587Y-3.4138
X2.863Y-3.298
X2.974Y-3.4134
X2.9752Y-3.2969
X3.0Y-4.4173
X3.089Y-3.4154
X3.0921Y-3.2992
X3.1969Y-4.4173
X3.2087Y-3.4154
X3.2118Y-3.2992
X3.3268Y-2.8583
X3.3457Y-3.3004
X3.3461Y-3.4146
X3.3909Y-3.011
X3.3921Y-3.1185
X3.4016Y-4.4173
X3.4677Y-3.302
X3.4791Y-3.415
X3.4898Y-3.1185
X3.5839Y-3.1185
X3.598Y-3.302
X3.6035Y-3.4161
X3.6425Y-3.0138
X3.685Y-4.3622
X3.6937Y-3.1185
X3.7303Y-3.4173
X3.7354Y-3.3035
X3.7862Y-3.1626
X3.787Y-3.0138
X3.8386Y-2.8606
X3.8484Y-3.9488
X3.8496Y-3.4146
X3.8559Y-3.2307
X3.8642Y-3.0787
X3.8752Y-3.3035
X3.9327Y-3.1445
X3.9646Y-3.2874
X3.9685Y-3.4173
X4.0197Y-3.163
X4.0512Y-3.5945
X4.0531Y-4.0787
X4.0591Y-3.2874
X4.0969Y-3.4146
X4.1146Y-3.163
X4.128Y-3.9409
X4.1476Y-3.2874
X4.1988Y-3.163
X4.2343Y-3.4173
X4.2362Y-3.2874
X4.2756Y-2.7461
X4.2795Y-2.8661
X4.2815Y-2.9783
X4.2906Y-3.1626
X4.3268Y-3.2874
X4.3531Y-3.413
X4.3632Y-2.6476
X4.3728Y-3.1602
X4.3937Y-2.9833
X4.3957Y-2.7766
X4.3957Y-2.8819
X4.4272Y-3.2874
X4.4343Y-3.4661
X4.4498Y-2.5817
X4.4579Y-3.1606
X4.4754Y-2.6978
X4.4839Y-3.3543
X4.5118Y-4.3346
X4.5134Y-3.5268
X4.5256Y-3.2874
X4.5465Y-3.4205
X4.5555Y-3.1606
X4.563Y-2.5827
X4.5886Y-3.6388
X4.5886Y-3.939
X4.6031Y-3.526
X4.6157Y-3.2689
X4.6319Y-2.6969
X4.6329Y-3.4213
X4.6545Y-3.1604
X4.686Y-2.5827
X4.6969Y-3.5276
X4.7008Y-2.7726
X4.7028Y-2.8947
X4.7055Y-3.272
X4.7244Y-3.4222
X4.748Y-4.0709
X4.749Y-3.1624
X4.75Y-3.5866
X4.7549Y-2.6506
X4.7717Y-4.3957
X4.7766Y-2.9783
X4.798Y-3.289
X4.814Y-2.7303
X4.814Y-3.439
X4.8159Y-2.8366
X4.8248Y-3.6173
X4.8504Y-3.1762
X4.8533Y-3.0463
X4.8799Y-2.9203
X4.8799Y-3.5148
X4.8831Y-3.3709
X4.889Y-3.6886
X4.9193Y-3.251
X4.9232Y-3.1112
X4.937Y-4.3543
X4.9409Y-3.9528
X4.9409Y-4.1683
X4.9469Y-3.5778
X4.9488Y-3.4386
X4.9496Y-3.7492
X4.9518Y-2.9872
X4.9931Y-3.1791
X4.997Y-3.3327
X5.0055Y-3.4996
X5.0059Y-3.6348
X5.0285Y-3.063
X5.0299Y-3.7866
X5.063Y-3.3976
X5.0689Y-3.2589
X5.0697Y-3.5591
X5.0797Y-3.6781
X5.1004Y-3.1368
X5.1291Y-3.6165
X5.1358Y-3.4636
X5.1382Y-3.7866
X5.1427Y-3.3376
X5.1496Y-4.2835
X5.1683Y-3.6791
X5.1752Y-3.2126
X5.2057Y-3.5157
X5.2146Y-3.622
X5.2185Y-3.4085
X5.2366Y-3.7866
X5.248Y-3.2766
X5.248Y-3.9528
X5.248Y-4.1683
X5.2677Y-3.6772
X5.2677Y-4.2835
X5.2677Y-4.4173
X5.2736Y-2.8839
X5.2746Y-2.9705
X5.2756Y-2.7795
X5.3091Y-2.6722
X5.311Y-3.4301
X5.313Y-3.5157
X5.313Y-3.624
X5.335Y-3.7866
X5.3435Y-3.3238
X5.374Y-3.6772
X5.3927Y-2.9892
X5.3967Y-2.5935
X5.3976Y-2.8878
X5.4006Y-2.7795
X5.4055Y-3.4311
X5.4173Y-4.4173
X5.4193Y-3.624
X5.4213Y-3.5197
X5.4291Y-4.3543
X5.4335Y-3.7866
X5.4616Y-2.6998
X5.4616Y-3.3238
X5.4685Y-4.2047
X5.4705Y-3.6772
X5.4724Y-3.9567
X5.503Y-2.5787
X5.5059Y-3.4311
X5.5157Y-3.624
X5.5295Y-3.5177
X5.5319Y-3.7866
X5.565Y-3.6772
X5.5827Y-2.6959
X5.5827Y-3.3238
X5.6063Y-3.4311
X5.6102Y-3.624
X5.6181Y-3.811
X5.6201Y-3.5177
X5.6289Y-2.5807
X5.6555Y-2.7746
X5.6594Y-2.878
X5.6594Y-3.6791
X5.6624Y-2.998
X5.6988Y-3.3228
X5.7047Y-3.626
X5.7057Y-3.4291
X5.7067Y-3.5177
X5.7126Y-4.0906
X5.7195Y-2.6427
X5.7392Y-3.0787
X5.752Y-3.6772
X5.7874Y-2.7224
X5.7894Y-2.8209
X5.7894Y-2.9311
X5.7933Y-3.5177
X5.7972Y-3.624
X5.8012Y-3.3228
X5.81Y-3.4272
X5.8297Y-3.1673
X5.8504Y-3.6772
X5.8504Y-4.4547
X5.8543Y-2.997
X5.8917Y-3.5157
X5.8957Y-3.624
X5.8996Y-3.9331
X5.8996Y-4.0906
X5.8996Y-4.2382
X5.9045Y-3.3228
X5.9134Y-3.4272
X5.9144Y-3.2313
X5.938Y-3.0827
X5.9587Y-3.689
X5.9852Y-3.5167
X5.9882Y-3.8622
X5.9882Y-4.0118
X5.9882Y-4.1614
X5.9882Y-4.311
X5.9941Y-3.628
X5.997Y-3.2608
X6.0148Y-3.1535
X6.0157Y-3.3209
X6.0177Y-3.75
X6.0335Y-3.4301
X6.064Y-3.9902
X6.0797Y-3.5364
X6.0965Y-4.2382
X6.0994Y-3.2618
X6.1063Y-3.8346
X6.1122Y-3.7569
X6.1142Y-3.4439
X6.122Y-3.1565
X6.122Y-3.626
X6.124Y-4.1169
X6.128Y-3.3199
X6.1319Y-3.9213
X6.1693Y-3.7766
X6.1693Y-3.9839
X6.1821Y-3.5876
X6.1831Y-3.5118
X6.1831Y-3.6683
X6.2008Y-4.374
X6.2077Y-3.2657
X6.2106Y-3.373
X6.2146Y-3.8543
X6.2161Y-4.4915
X6.2313Y-3.1565
X6.2648Y-3.3258
X6.2677Y-4.1063
X6.2726Y-3.9843
X6.2776Y-4.2402
X6.2785Y-3.7943
X6.2844Y-3.4459
X6.3002Y-3.5404
X6.3022Y-3.6388
X6.3071Y-3.2136
X6.3287Y-3.3927
X6.3287Y-3.8563
X6.3327Y-4.376
X6.3386Y-2.8661
X6.3533Y-4.4921
X6.3652Y-3.9783
X6.374Y-3.1309
X6.374Y-4.1093
X6.377Y-3.2805
X6.3898Y-4.2402
X6.3917Y-3.7953
X6.3976Y-3.4577
X6.4085Y-3.0128
X6.4213Y-3.5256
X6.4232Y-3.7293
X6.4252Y-3.6358
X6.4341Y-3.1171
X6.437Y-3.9291
X6.4498Y-3.3543
X6.4705Y-4.376
X6.4783Y-4.0984
X6.4951Y-4.2411
X6.4961Y-4.4915
X6.499Y-3.8661
X6.5236Y-3.4311
X6.5236Y-3.5315
X6.5236Y-3.6289
X6.5236Y-3.7205
X6.5236Y-4.0217
X6.5305Y-3.1181
X6.5541Y-4.0709
X6.563Y-3.7884
X6.5827Y-4.185
X6.5915Y-3.9547
X6.5961Y-4.2515
X6.6083Y-4.376
X6.6132Y-3.1476
X6.6516Y-3.0167
X6.6526Y-4.1624
X6.6594Y-3.7323
X6.6604Y-3.8868
X6.6713Y-4.065
X6.6801Y-3.2087
X6.6821Y-4.4921
X6.7161Y-4.2515
X6.7205Y-3.0807
X6.7215Y-3.8258
X6.7264Y-3.6673
X6.7451Y-3.2697
X6.7539Y-4.1594
X6.7559Y-4.376
X6.7805Y-3.1407
X6.7864Y-3.7579
X6.7904Y-3.6004
X6.7913Y-3.4341
X6.7913Y-3.5128
X6.7923Y-3.3474
X6.7923Y-4.063
X6.8189Y-2.878
X6.8307Y-4.2515
X6.8465Y-3.2096
X6.8514Y-3.6998
X6.8632Y-4.1594
X6.8761Y-4.4915
X6.9006Y-3.2825
X6.9006Y-3.5089
X6.9006Y-3.6063
X6.9035Y-3.4144
X6.9035Y-4.376
X6.9075Y-4.003
X6.9361Y-4.2515
X6.9665Y-4.0866
X6.998Y-3.9173
X7.0161Y-4.2315
X7.0413Y-4.4921
X7.0472Y-4.0128
X7.0512Y-4.376
X7.0768Y-3.8327
X7.0961Y-4.1715
X7.1319Y-3.9321
X7.1361Y-4.3115
X7.1614Y-3.75
X7.1761Y-4.0915
X7.1961Y-4.3765
X7.2057Y-3.8661
X7.2161Y-4.2315
X7.2165Y-4.4921
X7.2313Y-3.6752
X7.2756Y-3.7972
X7.2761Y-4.0715
X7.2785Y-3.5866
X7.2835Y-3.4872
X7.2844Y-3.3002
X7.2844Y-3.4055
X7.2854Y-3.1949
X7.2961Y-4.1915
X7.3311Y-4.3765
X7.3445Y-3.7283
X7.3819Y-3.6683
X7.3878Y-3.5925
X7.3888Y-3.4035
X7.3888Y-3.4931
X7.3898Y-3.1211
X7.3898Y-3.2087
X7.3898Y-3.3061
X7.3917Y-4.4941
X7.3961Y-4.0715
X7.4161Y-4.1915
X7.4433Y-3.9012
X7.5061Y-4.3765
X7.5161Y-4.0715
X7.5561Y-4.1915
X7.5561Y-4.4915
X7.6761Y-4.0515
X7.6961Y-4.1915
X7.7111Y-4.3765
X7.7461Y-4.4931
X7.7761Y-4.1115
X7.7961Y-3.9315
X7.8228Y-2.874
X7.8236Y-3.4063
X7.8411Y-4.3765
X7.8561Y-4.0315
X7.8961Y-3.8315
X7.9193Y-4.4961
X7.9361Y-3.9515
X7.9911Y-4.3765
X7.9961Y-3.7315
X8.0361Y-3.8515
X8.0961Y-3.6315
X8.1061Y-4.3765
X8.122Y-4.4961
X8.1361Y-3.7515
X8.1961Y-3.5315
X8.2111Y-4.3415
X8.2361Y-3.6515
X8.2411Y-4.4892
X8.248Y-3.9756
X8.2761Y-3.1715
X8.2761Y-3.2915
X8.2761Y-3.4315
X8.2961Y-4.2865
X8.3161Y-4.4315
X8.3307Y-2.8701
X8.3561Y-3.5315
X8.3761Y-4.2065
X8.3961Y-3.1715
X8.3961Y-3.2715
X8.3961Y-3.4115
X8.3961Y-4.3515
X8.4004Y-3.0484
X8.4661Y-4.1165
X8.4961Y-4.2515
X8.5611Y-4.0215
X8.5961Y-4.1515
X8.6611Y-3.9165
X8.7077Y-4.4045
X8.7161Y-4.0115
X8.7711Y-3.8115
X8.7795Y-3.315
X8.8161Y-3.9315
X8.8169Y-2.8697
X8.8811Y-3.6965
X8.8961Y-3.8515
X8.9811Y-3.6015
X8.9961Y-3.7515
X9.0661Y-3.5065
X9.0761Y-3.6715
X9.1311Y-3.6165
X9.1511Y-3.4315
X9.1911Y-3.5515
X9.2161Y-3.3465
X9.2711Y-3.2915
X9.2761Y-3.1915
X9.2761Y-3.4665
X9.3425Y-2.8701
X9.3611Y-3.3865
X9.3861Y-3.3115
X9.3911Y-3.1415
X9.3911Y-3.2215
X9.5244Y-4.3898
X9.5291Y-3.6921
T2
X3.0669Y-3.7717
T3
X2.2307Y-3.0669
X2.3307Y-3.0669
X3.2307Y-3.0669
X3.3307Y-3.0669
X4.2307Y-3.0669
X4.3307Y-3.0669
X5.2307Y-3.0669
X5.3307Y-3.0669
X6.2307Y-3.0669
X6.3307Y-3.0669
X7.2307Y-3.0669
X7.3307Y-3.0669
X8.2307Y-3.0669
X8.3307Y-3.0669
X9.2307Y-3.0669
X9.3307Y-3.0669
T4
X2.8504Y-4.2543
X2.8504Y-4.3543
X2.9504Y-4.2543
X2.9504Y-4.3543
X3.0504Y-4.2543
X3.0504Y-4.3543
X3.1504Y-4.2543
X3.1504Y-4.3543
X3.2504Y-4.2543
X3.2504Y-4.3543
X3.3504Y-4.2543
X3.3504Y-4.3543
X3.4504Y-4.2543
X3.4504Y-4.3543
X3.5504Y-4.2543
X3.5504Y-4.3543
T5
X2.122Y-4.3622
X2.222Y-4.3622
X5.2386Y-4.3504
X5.3386Y-4.3504
T6
X2.1307Y-2.8669
X2.5307Y-2.8669
X3.1307Y-2.8669
X3.5307Y-2.8669
X4.1307Y-2.8669
X4.5307Y-2.8669
X5.1307Y-2.8669
X5.5307Y-2.8669
X6.1307Y-2.8669
X6.5307Y-2.8669
X7.1307Y-2.8669
X7.5307Y-2.8669
X8.1307Y-2.8669
X8.5307Y-2.8669
X9.1307Y-2.8669
X9.5307Y-2.8669
T0
M30
