M48
; DRILL file {KiCad (5.1.10-1-10_14)} date Thursday, October 07, 2021 at 06:45:00 PM
; FORMAT={-:-/ absolute / inch / decimal}
; #@! TF.CreationDate,2021-10-07T18:45:00-04:00
; #@! TF.GenerationSoftware,Kicad,Pcbnew,(5.1.10-1-10_14)
; #@! TF.FileFunction,Plated,1,2,PTH
FMAT,2
INCH
T1C0.0157
T2C0.0315
T3C0.0350
T4C0.0394
T5C0.0469
T6C0.0791
%
G90
G05
T1
X2.3189Y-2.8661
X2.3252Y-3.3106
X2.3307Y-4.3543
X2.574Y-4.3555
X2.6516Y-3.1161
X2.7224Y-3.4173
X2.8335Y-2.8646
X2.9744Y-3.4173
X3.0Y-4.4173
X3.0059Y-3.2047
X3.1969Y-4.4173
X3.2087Y-3.4154
X3.3268Y-2.8583
X3.3898Y-3.2047
X3.4016Y-4.4173
X3.4803Y-3.4173
X3.5571Y-3.2047
X3.685Y-4.3622
X3.7244Y-3.2047
X3.7303Y-3.4173
X3.8327Y-3.2539
X3.8386Y-2.8606
X3.8484Y-3.9488
X3.9646Y-3.2874
X3.9685Y-3.4173
X4.0512Y-3.5945
X4.0531Y-4.0787
X4.0591Y-3.2874
X4.128Y-3.9409
X4.1476Y-3.2874
X4.1969Y-3.1535
X4.2343Y-3.4173
X4.2362Y-3.2874
X4.2795Y-2.8661
X4.2854Y-3.1535
X4.3268Y-3.2874
X4.372Y-3.1535
X4.4272Y-3.2874
X4.4528Y-3.4961
X4.4547Y-3.1555
X4.5118Y-4.3346
X4.5256Y-3.2874
X4.5886Y-3.6388
X4.5886Y-3.939
X4.5906Y-3.3425
X4.6791Y-3.3622
X4.6969Y-3.5276
X4.748Y-4.0709
X4.75Y-3.5866
X4.7677Y-3.372
X4.7717Y-4.3957
X4.7972Y-3.1063
X4.8071Y-3.687
X4.8465Y-3.4213
X4.8858Y-2.8622
X4.8858Y-3.7657
X4.9055Y-3.185
X4.9075Y-3.4803
X4.937Y-4.3543
X4.9409Y-3.9528
X4.9409Y-4.1683
X4.9685Y-3.5374
X4.9843Y-3.8051
X5.0039Y-3.2638
X5.0138Y-3.0177
X5.0256Y-3.6083
X5.0728Y-3.3425
X5.0925Y-3.8051
X5.1024Y-3.0965
X5.1063Y-3.6437
X5.1496Y-4.2835
X5.1516Y-3.4114
X5.1811Y-3.1654
X5.1909Y-3.8051
X5.2087Y-3.6457
X5.248Y-3.9528
X5.248Y-4.1683
X5.25Y-3.4705
X5.2677Y-4.2835
X5.2677Y-4.4173
X5.2894Y-3.8051
X5.2992Y-3.185
X5.3071Y-3.6476
X5.3681Y-3.4764
X5.3878Y-3.8051
X5.4134Y-3.6476
X5.4173Y-3.2047
X5.4173Y-4.4173
X5.4291Y-4.3543
X5.4606Y-4.2057
X5.4646Y-3.9567
X5.4764Y-3.4803
X5.4862Y-3.8051
X5.5098Y-3.6476
X5.5453Y-3.2343
X5.5846Y-3.4783
X5.6043Y-3.6476
X5.6181Y-3.811
X5.6752Y-3.4783
X5.6929Y-3.2441
X5.6988Y-3.6496
X5.7126Y-4.0906
X5.7618Y-3.4783
X5.7913Y-3.6476
X5.8307Y-2.8661
X5.8484Y-3.4783
X5.8504Y-3.2638
X5.8504Y-4.4547
X5.8898Y-3.6476
X5.8996Y-3.9331
X5.8996Y-4.0906
X5.8996Y-4.2382
X5.9331Y-3.4783
X5.9882Y-3.6516
X5.9882Y-3.8622
X5.9882Y-4.0118
X5.9882Y-4.1614
X5.9882Y-4.311
X6.0079Y-3.3031
X6.0177Y-3.4803
X6.0177Y-3.75
X6.064Y-3.9902
X6.0965Y-3.126
X6.0965Y-4.2382
X6.1063Y-3.8346
X6.1161Y-3.5197
X6.1319Y-3.9213
X6.1457Y-3.3031
X6.1555Y-3.628
X6.1555Y-3.7559
X6.2008Y-4.374
X6.2047Y-3.1457
X6.2146Y-3.8543
X6.2539Y-3.3622
X6.2559Y-4.1004
X6.2736Y-3.9823
X6.3031Y-3.1654
X6.3228Y-3.7953
X6.3228Y-4.248
X6.3327Y-3.4409
X6.3327Y-4.376
X6.3386Y-2.8661
X6.3524Y-3.5591
X6.3524Y-3.6772
X6.3701Y-4.5039
X6.3819Y-4.1004
X6.4016Y-3.9724
X6.4488Y-3.1969
X6.4567Y-4.248
X6.4705Y-4.376
X6.4803Y-3.8937
X6.5098Y-4.0709
X6.5591Y-3.8051
X6.5669Y-3.252
X6.5886Y-4.2283
X6.6083Y-4.376
X6.6181Y-3.687
X6.6181Y-4.0217
X6.6575Y-3.372
X6.6575Y-3.5394
X6.7008Y-4.5039
X6.7067Y-4.2087
X6.7559Y-3.9626
X6.7559Y-4.376
X6.8189Y-2.878
X6.8307Y-4.2087
X6.874Y-3.8642
X6.9035Y-4.376
X6.9409Y-3.2283
X6.9626Y-4.2087
X6.9823Y-3.7461
X7.0394Y-4.5039
X7.0512Y-4.376
X7.0709Y-4.1102
X7.0807Y-3.5984
X7.1102Y-3.4173
X7.1791Y-4.002
X7.189Y-4.3366
X7.3268Y-4.2874
X7.3937Y-4.5039
X7.4055Y-3.9331
X7.5236Y-4.2874
X7.6024Y-3.7657
X7.7205Y-4.2874
X7.7402Y-4.5039
X7.7598Y-3.4803
X7.7638Y-3.1772
X7.8228Y-2.874
X7.9272Y-4.2579
X8.0866Y-4.1339
X8.1181Y-4.5039
X8.2992Y-3.9213
X8.3307Y-2.8701
X8.5512Y-3.6693
X8.7795Y-3.315
X8.7874Y-4.3858
X8.8169Y-2.8697
X9.2803Y-3.6063
X9.3425Y-2.8701
T2
X3.0669Y-3.7717
T3
X2.2307Y-3.0669
X2.3307Y-3.0669
X3.2307Y-3.0669
X3.3307Y-3.0669
X4.2307Y-3.0669
X4.3307Y-3.0669
X5.2307Y-3.0669
X5.3307Y-3.0669
X6.2307Y-3.0669
X6.3307Y-3.0669
X7.2307Y-3.0669
X7.3307Y-3.0669
X8.2307Y-3.0669
X8.3307Y-3.0669
X9.2307Y-3.0669
X9.3307Y-3.0669
T4
X2.8504Y-4.2543
X2.8504Y-4.3543
X2.9504Y-4.2543
X2.9504Y-4.3543
X3.0504Y-4.2543
X3.0504Y-4.3543
X3.1504Y-4.2543
X3.1504Y-4.3543
X3.2504Y-4.2543
X3.2504Y-4.3543
X3.3504Y-4.2543
X3.3504Y-4.3543
X3.4504Y-4.2543
X3.4504Y-4.3543
X3.5504Y-4.2543
X3.5504Y-4.3543
T5
X2.122Y-4.3622
X2.222Y-4.3622
X5.2386Y-4.3504
X5.3386Y-4.3504
T6
X2.1307Y-2.8669
X2.5307Y-2.8669
X3.1307Y-2.8669
X3.5307Y-2.8669
X4.1307Y-2.8669
X4.5307Y-2.8669
X5.1307Y-2.8669
X5.5307Y-2.8669
X6.1307Y-2.8669
X6.5307Y-2.8669
X7.1307Y-2.8669
X7.5307Y-2.8669
X8.1307Y-2.8669
X8.5307Y-2.8669
X9.1307Y-2.8669
X9.5307Y-2.8669
T0
M30
