%TF.GenerationSoftware,KiCad,Pcbnew,(5.1.10-1-10_14)*%
%TF.CreationDate,2021-10-07T15:40:17-04:00*%
%TF.ProjectId,BufferBox,42756666-6572-4426-9f78-2e6b69636164,1.1*%
%TF.SameCoordinates,Original*%
%TF.FileFunction,Legend,Top*%
%TF.FilePolarity,Positive*%
%FSLAX46Y46*%
G04 Gerber Fmt 4.6, Leading zero omitted, Abs format (unit mm)*
G04 Created by KiCad (PCBNEW (5.1.10-1-10_14)) date 2021-10-07 15:40:17*
%MOMM*%
%LPD*%
G01*
G04 APERTURE LIST*
%ADD10C,0.150000*%
%ADD11C,0.100000*%
%ADD12C,0.010000*%
%ADD13C,0.120000*%
G04 APERTURE END LIST*
D10*
X223898690Y-104899523D02*
X223898690Y-103629523D01*
X224201071Y-103629523D01*
X224382500Y-103690000D01*
X224503452Y-103810952D01*
X224563928Y-103931904D01*
X224624404Y-104173809D01*
X224624404Y-104355238D01*
X224563928Y-104597142D01*
X224503452Y-104718095D01*
X224382500Y-104839047D01*
X224201071Y-104899523D01*
X223898690Y-104899523D01*
X225168690Y-104899523D02*
X225168690Y-104052857D01*
X225168690Y-103629523D02*
X225108214Y-103690000D01*
X225168690Y-103750476D01*
X225229166Y-103690000D01*
X225168690Y-103629523D01*
X225168690Y-103750476D01*
X226317738Y-104052857D02*
X226317738Y-105080952D01*
X226257261Y-105201904D01*
X226196785Y-105262380D01*
X226075833Y-105322857D01*
X225894404Y-105322857D01*
X225773452Y-105262380D01*
X226317738Y-104839047D02*
X226196785Y-104899523D01*
X225954880Y-104899523D01*
X225833928Y-104839047D01*
X225773452Y-104778571D01*
X225712976Y-104657619D01*
X225712976Y-104294761D01*
X225773452Y-104173809D01*
X225833928Y-104113333D01*
X225954880Y-104052857D01*
X226196785Y-104052857D01*
X226317738Y-104113333D01*
X226922500Y-104899523D02*
X226922500Y-104052857D01*
X226922500Y-103629523D02*
X226862023Y-103690000D01*
X226922500Y-103750476D01*
X226982976Y-103690000D01*
X226922500Y-103629523D01*
X226922500Y-103750476D01*
X227345833Y-104052857D02*
X227829642Y-104052857D01*
X227527261Y-103629523D02*
X227527261Y-104718095D01*
X227587738Y-104839047D01*
X227708690Y-104899523D01*
X227829642Y-104899523D01*
X228797261Y-104899523D02*
X228797261Y-104234285D01*
X228736785Y-104113333D01*
X228615833Y-104052857D01*
X228373928Y-104052857D01*
X228252976Y-104113333D01*
X228797261Y-104839047D02*
X228676309Y-104899523D01*
X228373928Y-104899523D01*
X228252976Y-104839047D01*
X228192500Y-104718095D01*
X228192500Y-104597142D01*
X228252976Y-104476190D01*
X228373928Y-104415714D01*
X228676309Y-104415714D01*
X228797261Y-104355238D01*
X229583452Y-104899523D02*
X229462500Y-104839047D01*
X229402023Y-104718095D01*
X229402023Y-103629523D01*
X231458214Y-104234285D02*
X231639642Y-104294761D01*
X231700119Y-104355238D01*
X231760595Y-104476190D01*
X231760595Y-104657619D01*
X231700119Y-104778571D01*
X231639642Y-104839047D01*
X231518690Y-104899523D01*
X231034880Y-104899523D01*
X231034880Y-103629523D01*
X231458214Y-103629523D01*
X231579166Y-103690000D01*
X231639642Y-103750476D01*
X231700119Y-103871428D01*
X231700119Y-103992380D01*
X231639642Y-104113333D01*
X231579166Y-104173809D01*
X231458214Y-104234285D01*
X231034880Y-104234285D01*
X232849166Y-104052857D02*
X232849166Y-104899523D01*
X232304880Y-104052857D02*
X232304880Y-104718095D01*
X232365357Y-104839047D01*
X232486309Y-104899523D01*
X232667738Y-104899523D01*
X232788690Y-104839047D01*
X232849166Y-104778571D01*
X233272500Y-104052857D02*
X233756309Y-104052857D01*
X233453928Y-104899523D02*
X233453928Y-103810952D01*
X233514404Y-103690000D01*
X233635357Y-103629523D01*
X233756309Y-103629523D01*
X233998214Y-104052857D02*
X234482023Y-104052857D01*
X234179642Y-104899523D02*
X234179642Y-103810952D01*
X234240119Y-103690000D01*
X234361071Y-103629523D01*
X234482023Y-103629523D01*
X235389166Y-104839047D02*
X235268214Y-104899523D01*
X235026309Y-104899523D01*
X234905357Y-104839047D01*
X234844880Y-104718095D01*
X234844880Y-104234285D01*
X234905357Y-104113333D01*
X235026309Y-104052857D01*
X235268214Y-104052857D01*
X235389166Y-104113333D01*
X235449642Y-104234285D01*
X235449642Y-104355238D01*
X234844880Y-104476190D01*
X235993928Y-104899523D02*
X235993928Y-104052857D01*
X235993928Y-104294761D02*
X236054404Y-104173809D01*
X236114880Y-104113333D01*
X236235833Y-104052857D01*
X236356785Y-104052857D01*
X238171071Y-104234285D02*
X238352500Y-104294761D01*
X238412976Y-104355238D01*
X238473452Y-104476190D01*
X238473452Y-104657619D01*
X238412976Y-104778571D01*
X238352500Y-104839047D01*
X238231547Y-104899523D01*
X237747738Y-104899523D01*
X237747738Y-103629523D01*
X238171071Y-103629523D01*
X238292023Y-103690000D01*
X238352500Y-103750476D01*
X238412976Y-103871428D01*
X238412976Y-103992380D01*
X238352500Y-104113333D01*
X238292023Y-104173809D01*
X238171071Y-104234285D01*
X237747738Y-104234285D01*
X239199166Y-104899523D02*
X239078214Y-104839047D01*
X239017738Y-104778571D01*
X238957261Y-104657619D01*
X238957261Y-104294761D01*
X239017738Y-104173809D01*
X239078214Y-104113333D01*
X239199166Y-104052857D01*
X239380595Y-104052857D01*
X239501547Y-104113333D01*
X239562023Y-104173809D01*
X239622500Y-104294761D01*
X239622500Y-104657619D01*
X239562023Y-104778571D01*
X239501547Y-104839047D01*
X239380595Y-104899523D01*
X239199166Y-104899523D01*
X240045833Y-104899523D02*
X240711071Y-104052857D01*
X240045833Y-104052857D02*
X240711071Y-104899523D01*
X234602976Y-106954523D02*
X234179642Y-106349761D01*
X233877261Y-106954523D02*
X233877261Y-105684523D01*
X234361071Y-105684523D01*
X234482023Y-105745000D01*
X234542500Y-105805476D01*
X234602976Y-105926428D01*
X234602976Y-106107857D01*
X234542500Y-106228809D01*
X234482023Y-106289285D01*
X234361071Y-106349761D01*
X233877261Y-106349761D01*
X235631071Y-106894047D02*
X235510119Y-106954523D01*
X235268214Y-106954523D01*
X235147261Y-106894047D01*
X235086785Y-106773095D01*
X235086785Y-106289285D01*
X235147261Y-106168333D01*
X235268214Y-106107857D01*
X235510119Y-106107857D01*
X235631071Y-106168333D01*
X235691547Y-106289285D01*
X235691547Y-106410238D01*
X235086785Y-106531190D01*
X236114880Y-106107857D02*
X236417261Y-106954523D01*
X236719642Y-106107857D01*
X238836309Y-106954523D02*
X238110595Y-106954523D01*
X238473452Y-106954523D02*
X238473452Y-105684523D01*
X238352500Y-105865952D01*
X238231547Y-105986904D01*
X238110595Y-106047380D01*
X239380595Y-106833571D02*
X239441071Y-106894047D01*
X239380595Y-106954523D01*
X239320119Y-106894047D01*
X239380595Y-106833571D01*
X239380595Y-106954523D01*
X240227261Y-105684523D02*
X240348214Y-105684523D01*
X240469166Y-105745000D01*
X240529642Y-105805476D01*
X240590119Y-105926428D01*
X240650595Y-106168333D01*
X240650595Y-106470714D01*
X240590119Y-106712619D01*
X240529642Y-106833571D01*
X240469166Y-106894047D01*
X240348214Y-106954523D01*
X240227261Y-106954523D01*
X240106309Y-106894047D01*
X240045833Y-106833571D01*
X239985357Y-106712619D01*
X239924880Y-106470714D01*
X239924880Y-106168333D01*
X239985357Y-105926428D01*
X240045833Y-105805476D01*
X240106309Y-105745000D01*
X240227261Y-105684523D01*
X229704404Y-108162857D02*
X229704404Y-109190952D01*
X229643928Y-109311904D01*
X229583452Y-109372380D01*
X229462500Y-109432857D01*
X229281071Y-109432857D01*
X229160119Y-109372380D01*
X229704404Y-108949047D02*
X229583452Y-109009523D01*
X229341547Y-109009523D01*
X229220595Y-108949047D01*
X229160119Y-108888571D01*
X229099642Y-108767619D01*
X229099642Y-108404761D01*
X229160119Y-108283809D01*
X229220595Y-108223333D01*
X229341547Y-108162857D01*
X229583452Y-108162857D01*
X229704404Y-108223333D01*
X230309166Y-109009523D02*
X230309166Y-108162857D01*
X230309166Y-107739523D02*
X230248690Y-107800000D01*
X230309166Y-107860476D01*
X230369642Y-107800000D01*
X230309166Y-107739523D01*
X230309166Y-107860476D01*
X230732500Y-108162857D02*
X231216309Y-108162857D01*
X230913928Y-107739523D02*
X230913928Y-108828095D01*
X230974404Y-108949047D01*
X231095357Y-109009523D01*
X231216309Y-109009523D01*
X231639642Y-108888571D02*
X231700119Y-108949047D01*
X231639642Y-109009523D01*
X231579166Y-108949047D01*
X231639642Y-108888571D01*
X231639642Y-109009523D01*
X232244404Y-109009523D02*
X232244404Y-108162857D01*
X232244404Y-107739523D02*
X232183928Y-107800000D01*
X232244404Y-107860476D01*
X232304880Y-107800000D01*
X232244404Y-107739523D01*
X232244404Y-107860476D01*
X233030595Y-109009523D02*
X232909642Y-108949047D01*
X232849166Y-108888571D01*
X232788690Y-108767619D01*
X232788690Y-108404761D01*
X232849166Y-108283809D01*
X232909642Y-108223333D01*
X233030595Y-108162857D01*
X233212023Y-108162857D01*
X233332976Y-108223333D01*
X233393452Y-108283809D01*
X233453928Y-108404761D01*
X233453928Y-108767619D01*
X233393452Y-108888571D01*
X233332976Y-108949047D01*
X233212023Y-109009523D01*
X233030595Y-109009523D01*
X234905357Y-107679047D02*
X233816785Y-109311904D01*
X235691547Y-107739523D02*
X235691547Y-108646666D01*
X235631071Y-108828095D01*
X235510119Y-108949047D01*
X235328690Y-109009523D01*
X235207738Y-109009523D01*
X236175357Y-108162857D02*
X236417261Y-109009523D01*
X236659166Y-108404761D01*
X236901071Y-109009523D01*
X237142976Y-108162857D01*
X238292023Y-107800000D02*
X238171071Y-107739523D01*
X237989642Y-107739523D01*
X237808214Y-107800000D01*
X237687261Y-107920952D01*
X237626785Y-108041904D01*
X237566309Y-108283809D01*
X237566309Y-108465238D01*
X237626785Y-108707142D01*
X237687261Y-108828095D01*
X237808214Y-108949047D01*
X237989642Y-109009523D01*
X238110595Y-109009523D01*
X238292023Y-108949047D01*
X238352500Y-108888571D01*
X238352500Y-108465238D01*
X238110595Y-108465238D01*
X238896785Y-107739523D02*
X238896785Y-108767619D01*
X238957261Y-108888571D01*
X239017738Y-108949047D01*
X239138690Y-109009523D01*
X239380595Y-109009523D01*
X239501547Y-108949047D01*
X239562023Y-108888571D01*
X239622500Y-108767619D01*
X239622500Y-107739523D01*
X240045833Y-107739523D02*
X240771547Y-107739523D01*
X240408690Y-109009523D02*
X240408690Y-107739523D01*
X130052380Y-112459523D02*
X131052380Y-112126190D01*
X130052380Y-111792857D01*
X131052380Y-111459523D02*
X130052380Y-111459523D01*
X130052380Y-111221428D01*
X130100000Y-111078571D01*
X130195238Y-110983333D01*
X130290476Y-110935714D01*
X130480952Y-110888095D01*
X130623809Y-110888095D01*
X130814285Y-110935714D01*
X130909523Y-110983333D01*
X131004761Y-111078571D01*
X131052380Y-111221428D01*
X131052380Y-111459523D01*
X131052380Y-110459523D02*
X130052380Y-110459523D01*
X130052380Y-110221428D01*
X130100000Y-110078571D01*
X130195238Y-109983333D01*
X130290476Y-109935714D01*
X130480952Y-109888095D01*
X130623809Y-109888095D01*
X130814285Y-109935714D01*
X130909523Y-109983333D01*
X131004761Y-110078571D01*
X131052380Y-110221428D01*
X131052380Y-110459523D01*
X130147619Y-109507142D02*
X130100000Y-109459523D01*
X130052380Y-109364285D01*
X130052380Y-109126190D01*
X130100000Y-109030952D01*
X130147619Y-108983333D01*
X130242857Y-108935714D01*
X130338095Y-108935714D01*
X130480952Y-108983333D01*
X131052380Y-109554761D01*
X131052380Y-108935714D01*
X137850000Y-111888095D02*
X137802380Y-111983333D01*
X137802380Y-112126190D01*
X137850000Y-112269047D01*
X137945238Y-112364285D01*
X138040476Y-112411904D01*
X138230952Y-112459523D01*
X138373809Y-112459523D01*
X138564285Y-112411904D01*
X138659523Y-112364285D01*
X138754761Y-112269047D01*
X138802380Y-112126190D01*
X138802380Y-112030952D01*
X138754761Y-111888095D01*
X138707142Y-111840476D01*
X138373809Y-111840476D01*
X138373809Y-112030952D01*
X138802380Y-111411904D02*
X137802380Y-111411904D01*
X138802380Y-110840476D01*
X137802380Y-110840476D01*
X138802380Y-110364285D02*
X137802380Y-110364285D01*
X137802380Y-110126190D01*
X137850000Y-109983333D01*
X137945238Y-109888095D01*
X138040476Y-109840476D01*
X138230952Y-109792857D01*
X138373809Y-109792857D01*
X138564285Y-109840476D01*
X138659523Y-109888095D01*
X138754761Y-109983333D01*
X138802380Y-110126190D01*
X138802380Y-110364285D01*
X137897619Y-109411904D02*
X137850000Y-109364285D01*
X137802380Y-109269047D01*
X137802380Y-109030952D01*
X137850000Y-108935714D01*
X137897619Y-108888095D01*
X137992857Y-108840476D01*
X138088095Y-108840476D01*
X138230952Y-108888095D01*
X138802380Y-109459523D01*
X138802380Y-108840476D01*
X50750000Y-112238095D02*
X50702380Y-112333333D01*
X50702380Y-112476190D01*
X50750000Y-112619047D01*
X50845238Y-112714285D01*
X50940476Y-112761904D01*
X51130952Y-112809523D01*
X51273809Y-112809523D01*
X51464285Y-112761904D01*
X51559523Y-112714285D01*
X51654761Y-112619047D01*
X51702380Y-112476190D01*
X51702380Y-112380952D01*
X51654761Y-112238095D01*
X51607142Y-112190476D01*
X51273809Y-112190476D01*
X51273809Y-112380952D01*
X51702380Y-111761904D02*
X50702380Y-111761904D01*
X51702380Y-111190476D01*
X50702380Y-111190476D01*
X51702380Y-110714285D02*
X50702380Y-110714285D01*
X50702380Y-110476190D01*
X50750000Y-110333333D01*
X50845238Y-110238095D01*
X50940476Y-110190476D01*
X51130952Y-110142857D01*
X51273809Y-110142857D01*
X51464285Y-110190476D01*
X51559523Y-110238095D01*
X51654761Y-110333333D01*
X51702380Y-110476190D01*
X51702380Y-110714285D01*
X51702380Y-109190476D02*
X51702380Y-109761904D01*
X51702380Y-109476190D02*
X50702380Y-109476190D01*
X50845238Y-109571428D01*
X50940476Y-109666666D01*
X50988095Y-109761904D01*
X58702380Y-112609523D02*
X59702380Y-112276190D01*
X58702380Y-111942857D01*
X59702380Y-111609523D02*
X58702380Y-111609523D01*
X58702380Y-111371428D01*
X58750000Y-111228571D01*
X58845238Y-111133333D01*
X58940476Y-111085714D01*
X59130952Y-111038095D01*
X59273809Y-111038095D01*
X59464285Y-111085714D01*
X59559523Y-111133333D01*
X59654761Y-111228571D01*
X59702380Y-111371428D01*
X59702380Y-111609523D01*
X59702380Y-110609523D02*
X58702380Y-110609523D01*
X58702380Y-110371428D01*
X58750000Y-110228571D01*
X58845238Y-110133333D01*
X58940476Y-110085714D01*
X59130952Y-110038095D01*
X59273809Y-110038095D01*
X59464285Y-110085714D01*
X59559523Y-110133333D01*
X59654761Y-110228571D01*
X59702380Y-110371428D01*
X59702380Y-110609523D01*
X59702380Y-109085714D02*
X59702380Y-109657142D01*
X59702380Y-109371428D02*
X58702380Y-109371428D01*
X58845238Y-109466666D01*
X58940476Y-109561904D01*
X58988095Y-109657142D01*
D11*
G36*
X96600000Y-111250000D02*
G01*
X96000000Y-110750000D01*
X96600000Y-110250000D01*
X96600000Y-111250000D01*
G37*
X96600000Y-111250000D02*
X96000000Y-110750000D01*
X96600000Y-110250000D01*
X96600000Y-111250000D01*
D10*
X97511904Y-110250000D02*
X97416666Y-110202380D01*
X97273809Y-110202380D01*
X97130952Y-110250000D01*
X97035714Y-110345238D01*
X96988095Y-110440476D01*
X96940476Y-110630952D01*
X96940476Y-110773809D01*
X96988095Y-110964285D01*
X97035714Y-111059523D01*
X97130952Y-111154761D01*
X97273809Y-111202380D01*
X97369047Y-111202380D01*
X97511904Y-111154761D01*
X97559523Y-111107142D01*
X97559523Y-110773809D01*
X97369047Y-110773809D01*
X97988095Y-111202380D02*
X97988095Y-110202380D01*
X98559523Y-111202380D01*
X98559523Y-110202380D01*
X99035714Y-111202380D02*
X99035714Y-110202380D01*
X99273809Y-110202380D01*
X99416666Y-110250000D01*
X99511904Y-110345238D01*
X99559523Y-110440476D01*
X99607142Y-110630952D01*
X99607142Y-110773809D01*
X99559523Y-110964285D01*
X99511904Y-111059523D01*
X99416666Y-111154761D01*
X99273809Y-111202380D01*
X99035714Y-111202380D01*
X100559523Y-111202380D02*
X99988095Y-111202380D01*
X100273809Y-111202380D02*
X100273809Y-110202380D01*
X100178571Y-110345238D01*
X100083333Y-110440476D01*
X99988095Y-110488095D01*
X97011904Y-108452380D02*
X97011904Y-107452380D01*
X97392857Y-107452380D01*
X97488095Y-107500000D01*
X97535714Y-107547619D01*
X97583333Y-107642857D01*
X97583333Y-107785714D01*
X97535714Y-107880952D01*
X97488095Y-107928571D01*
X97392857Y-107976190D01*
X97011904Y-107976190D01*
X97916666Y-107452380D02*
X98583333Y-107452380D01*
X98154761Y-108452380D01*
D11*
G36*
X96600000Y-108500000D02*
G01*
X96000000Y-108000000D01*
X96600000Y-107500000D01*
X96600000Y-108500000D01*
G37*
X96600000Y-108500000D02*
X96000000Y-108000000D01*
X96600000Y-107500000D01*
X96600000Y-108500000D01*
G36*
X66500000Y-108000000D02*
G01*
X65900000Y-108500000D01*
X65900000Y-107500000D01*
X66500000Y-108000000D01*
G37*
X66500000Y-108000000D02*
X65900000Y-108500000D01*
X65900000Y-107500000D01*
X66500000Y-108000000D01*
D10*
X64011904Y-108452380D02*
X64011904Y-107452380D01*
X64392857Y-107452380D01*
X64488095Y-107500000D01*
X64535714Y-107547619D01*
X64583333Y-107642857D01*
X64583333Y-107785714D01*
X64535714Y-107880952D01*
X64488095Y-107928571D01*
X64392857Y-107976190D01*
X64011904Y-107976190D01*
X65202380Y-107452380D02*
X65297619Y-107452380D01*
X65392857Y-107500000D01*
X65440476Y-107547619D01*
X65488095Y-107642857D01*
X65535714Y-107833333D01*
X65535714Y-108071428D01*
X65488095Y-108261904D01*
X65440476Y-108357142D01*
X65392857Y-108404761D01*
X65297619Y-108452380D01*
X65202380Y-108452380D01*
X65107142Y-108404761D01*
X65059523Y-108357142D01*
X65011904Y-108261904D01*
X64964285Y-108071428D01*
X64964285Y-107833333D01*
X65011904Y-107642857D01*
X65059523Y-107547619D01*
X65107142Y-107500000D01*
X65202380Y-107452380D01*
D12*
%TO.C,G\u002A\u002A\u002A*%
G36*
X236696910Y-97431619D02*
G01*
X236810400Y-97482158D01*
X236968833Y-97564288D01*
X236992701Y-98500978D01*
X236854714Y-98599233D01*
X236689077Y-98677505D01*
X236487740Y-98715746D01*
X236281466Y-98712894D01*
X236101014Y-98667888D01*
X236027993Y-98627760D01*
X235889989Y-98480564D01*
X235797658Y-98280983D01*
X235762396Y-98054046D01*
X235762333Y-98044135D01*
X235797773Y-97806702D01*
X235896510Y-97615274D01*
X236047167Y-97475953D01*
X236238370Y-97394837D01*
X236458743Y-97378026D01*
X236696910Y-97431619D01*
G37*
X236696910Y-97431619D02*
X236810400Y-97482158D01*
X236968833Y-97564288D01*
X236992701Y-98500978D01*
X236854714Y-98599233D01*
X236689077Y-98677505D01*
X236487740Y-98715746D01*
X236281466Y-98712894D01*
X236101014Y-98667888D01*
X236027993Y-98627760D01*
X235889989Y-98480564D01*
X235797658Y-98280983D01*
X235762396Y-98054046D01*
X235762333Y-98044135D01*
X235797773Y-97806702D01*
X235896510Y-97615274D01*
X236047167Y-97475953D01*
X236238370Y-97394837D01*
X236458743Y-97378026D01*
X236696910Y-97431619D01*
G36*
X240715333Y-102657333D02*
G01*
X232248667Y-102657333D01*
X232248667Y-101102653D01*
X233646342Y-101102653D01*
X233784457Y-101255576D01*
X233899767Y-101383682D01*
X234016874Y-101514421D01*
X234045117Y-101546083D01*
X234145227Y-101645255D01*
X234222524Y-101675428D01*
X234301018Y-101638141D01*
X234374725Y-101567250D01*
X234439952Y-101490436D01*
X234493402Y-101405493D01*
X234536398Y-101303264D01*
X234570261Y-101174596D01*
X234596313Y-101010331D01*
X234615878Y-100801316D01*
X234630277Y-100538394D01*
X234640833Y-100212411D01*
X234648867Y-99814210D01*
X234651394Y-99651667D01*
X234655477Y-99269874D01*
X234657079Y-98867340D01*
X234656305Y-98464984D01*
X234653258Y-98083728D01*
X234651052Y-97940170D01*
X235093587Y-97940170D01*
X235117034Y-98292970D01*
X235150214Y-98446856D01*
X235267067Y-98756141D01*
X235441948Y-99024509D01*
X235664004Y-99240279D01*
X235922382Y-99391771D01*
X236076300Y-99443526D01*
X236256584Y-99470341D01*
X236475524Y-99466400D01*
X236750307Y-99431046D01*
X236847852Y-99413911D01*
X236980871Y-99389397D01*
X237001353Y-100208448D01*
X237012075Y-100543144D01*
X237026121Y-100804248D01*
X237044456Y-101002801D01*
X237068044Y-101149846D01*
X237091259Y-101237555D01*
X237155631Y-101384953D01*
X237241795Y-101521984D01*
X237333669Y-101627654D01*
X237415174Y-101680970D01*
X237432972Y-101683667D01*
X237480917Y-101655295D01*
X237572152Y-101579018D01*
X237691421Y-101468096D01*
X237768479Y-101392057D01*
X238057853Y-101100448D01*
X237966205Y-100976487D01*
X237945573Y-100947227D01*
X237928308Y-100915202D01*
X237914122Y-100873106D01*
X237902729Y-100813634D01*
X237893842Y-100729480D01*
X237887172Y-100613338D01*
X237882433Y-100457902D01*
X237879338Y-100255867D01*
X237877599Y-99999927D01*
X237876930Y-99682775D01*
X237877043Y-99297107D01*
X237877650Y-98835616D01*
X237877814Y-98728097D01*
X237880999Y-96650617D01*
X238340503Y-96650617D01*
X238355285Y-98077059D01*
X238361765Y-98548635D01*
X238370569Y-98938451D01*
X238381671Y-99245872D01*
X238395046Y-99470264D01*
X238410667Y-99610993D01*
X238419985Y-99651850D01*
X238472245Y-99761029D01*
X238551898Y-99880510D01*
X238640542Y-99987346D01*
X238719776Y-100058590D01*
X238759308Y-100075000D01*
X238805526Y-100045852D01*
X238888685Y-99969684D01*
X238983944Y-99870333D01*
X239129574Y-99710865D01*
X239226653Y-99601870D01*
X239281999Y-99529763D01*
X239302428Y-99480962D01*
X239294757Y-99441885D01*
X239265801Y-99398948D01*
X239238788Y-99362525D01*
X239213839Y-99323977D01*
X239193945Y-99279689D01*
X239178431Y-99219993D01*
X239166625Y-99135219D01*
X239157850Y-99015697D01*
X239151435Y-98851757D01*
X239146704Y-98633730D01*
X239142983Y-98351947D01*
X239139599Y-97996737D01*
X239139035Y-97931501D01*
X239127833Y-96624833D01*
X238873833Y-96611675D01*
X238708428Y-96608793D01*
X238554902Y-96615453D01*
X238480168Y-96624567D01*
X238340503Y-96650617D01*
X237880999Y-96650617D01*
X237881071Y-96603667D01*
X237458806Y-96603667D01*
X237257725Y-96606099D01*
X237125575Y-96614944D01*
X237046719Y-96632521D01*
X237005520Y-96661149D01*
X236998311Y-96671978D01*
X236958184Y-96716031D01*
X236896812Y-96705100D01*
X236858807Y-96686089D01*
X236766320Y-96658916D01*
X236620533Y-96639467D01*
X236452734Y-96631891D01*
X236450047Y-96631889D01*
X236148009Y-96660870D01*
X235881112Y-96753069D01*
X235631240Y-96916368D01*
X235479471Y-97054231D01*
X235276325Y-97314372D01*
X235147191Y-97611828D01*
X235093587Y-97940170D01*
X234651052Y-97940170D01*
X234648043Y-97744494D01*
X234640765Y-97468202D01*
X234640455Y-97459390D01*
X234609910Y-96600614D01*
X234223038Y-96612724D01*
X233836167Y-96624833D01*
X233815000Y-98720333D01*
X233809921Y-99200692D01*
X233805010Y-99603737D01*
X233799957Y-99936822D01*
X233794448Y-100207297D01*
X233788173Y-100422516D01*
X233780820Y-100589829D01*
X233772078Y-100716590D01*
X233761634Y-100810151D01*
X233749176Y-100877863D01*
X233734395Y-100927079D01*
X233720088Y-100959243D01*
X233646342Y-101102653D01*
X232248667Y-101102653D01*
X232248667Y-95907351D01*
X233792802Y-95907351D01*
X233806236Y-96064412D01*
X233882135Y-96209589D01*
X233999281Y-96310451D01*
X234172755Y-96381541D01*
X234340502Y-96372417D01*
X234482613Y-96307272D01*
X234588574Y-96222571D01*
X234664095Y-96127412D01*
X234669325Y-96116930D01*
X234727256Y-96038581D01*
X234785215Y-96011000D01*
X234859086Y-95991981D01*
X234975187Y-95943231D01*
X235056469Y-95902600D01*
X235188293Y-95843421D01*
X235303712Y-95810128D01*
X235351559Y-95807350D01*
X235430115Y-95852567D01*
X235533331Y-95962414D01*
X235616082Y-96074500D01*
X235714780Y-96211154D01*
X235789370Y-96288961D01*
X235857248Y-96322872D01*
X235911635Y-96328500D01*
X236022347Y-96295473D01*
X236124642Y-96192951D01*
X236222291Y-96015768D01*
X236312193Y-95779591D01*
X236384591Y-95598231D01*
X236453365Y-95499172D01*
X236517751Y-95483244D01*
X236555593Y-95516099D01*
X236588388Y-95578022D01*
X236640810Y-95695590D01*
X236702457Y-95845287D01*
X236712902Y-95871718D01*
X236821216Y-96110106D01*
X236927700Y-96264700D01*
X237035157Y-96336246D01*
X237146395Y-96325488D01*
X237264217Y-96233171D01*
X237391429Y-96060042D01*
X237395703Y-96053149D01*
X237505858Y-95896418D01*
X237606890Y-95814690D01*
X237717399Y-95802970D01*
X237855984Y-95856263D01*
X237942500Y-95906271D01*
X238065538Y-95969867D01*
X238175492Y-96006928D01*
X238207083Y-96010783D01*
X238283308Y-96034315D01*
X238302333Y-96072576D01*
X238335794Y-96153663D01*
X238418705Y-96247916D01*
X238524863Y-96330491D01*
X238621325Y-96374990D01*
X238788928Y-96379185D01*
X238950469Y-96319877D01*
X239084861Y-96212415D01*
X239171013Y-96072145D01*
X239191333Y-95960176D01*
X239154002Y-95769681D01*
X239050683Y-95621649D01*
X238894391Y-95529281D01*
X238741959Y-95504346D01*
X238555177Y-95539200D01*
X238400422Y-95637194D01*
X238300165Y-95783946D01*
X238298535Y-95788155D01*
X238255362Y-95861522D01*
X238185981Y-95872909D01*
X238142947Y-95863965D01*
X238032492Y-95821813D01*
X237963589Y-95777815D01*
X237876363Y-95719858D01*
X237783505Y-95676264D01*
X237642100Y-95656752D01*
X237512664Y-95714438D01*
X237388014Y-95852807D01*
X237372547Y-95875743D01*
X237260553Y-96034425D01*
X237161956Y-96152060D01*
X237088435Y-96215403D01*
X237066615Y-96222667D01*
X237035457Y-96186728D01*
X236977380Y-96089011D01*
X236900833Y-95944664D01*
X236818712Y-95778167D01*
X236723479Y-95583621D01*
X236652927Y-95454385D01*
X236598306Y-95377980D01*
X236550866Y-95341927D01*
X236507068Y-95333667D01*
X236443054Y-95340733D01*
X236388957Y-95370327D01*
X236335574Y-95435045D01*
X236273704Y-95547480D01*
X236194144Y-95720227D01*
X236148829Y-95823973D01*
X236074673Y-95986291D01*
X236008003Y-96116339D01*
X235958396Y-96196184D01*
X235941435Y-96212355D01*
X235895254Y-96188533D01*
X235817831Y-96111437D01*
X235725770Y-95997641D01*
X235724070Y-95995343D01*
X235573595Y-95809471D01*
X235444377Y-95696683D01*
X235323558Y-95652574D01*
X235198278Y-95672740D01*
X235055676Y-95752776D01*
X235042667Y-95761968D01*
X234924948Y-95827888D01*
X234824408Y-95864424D01*
X234736932Y-95870918D01*
X234692439Y-95822481D01*
X234681876Y-95792337D01*
X234597697Y-95651095D01*
X234455879Y-95550205D01*
X234279798Y-95505413D01*
X234254626Y-95504522D01*
X234072742Y-95536992D01*
X233931508Y-95626429D01*
X233836377Y-95755619D01*
X233792802Y-95907351D01*
X232248667Y-95907351D01*
X232248667Y-94190667D01*
X240715333Y-94190667D01*
X240715333Y-102657333D01*
G37*
X240715333Y-102657333D02*
X232248667Y-102657333D01*
X232248667Y-101102653D01*
X233646342Y-101102653D01*
X233784457Y-101255576D01*
X233899767Y-101383682D01*
X234016874Y-101514421D01*
X234045117Y-101546083D01*
X234145227Y-101645255D01*
X234222524Y-101675428D01*
X234301018Y-101638141D01*
X234374725Y-101567250D01*
X234439952Y-101490436D01*
X234493402Y-101405493D01*
X234536398Y-101303264D01*
X234570261Y-101174596D01*
X234596313Y-101010331D01*
X234615878Y-100801316D01*
X234630277Y-100538394D01*
X234640833Y-100212411D01*
X234648867Y-99814210D01*
X234651394Y-99651667D01*
X234655477Y-99269874D01*
X234657079Y-98867340D01*
X234656305Y-98464984D01*
X234653258Y-98083728D01*
X234651052Y-97940170D01*
X235093587Y-97940170D01*
X235117034Y-98292970D01*
X235150214Y-98446856D01*
X235267067Y-98756141D01*
X235441948Y-99024509D01*
X235664004Y-99240279D01*
X235922382Y-99391771D01*
X236076300Y-99443526D01*
X236256584Y-99470341D01*
X236475524Y-99466400D01*
X236750307Y-99431046D01*
X236847852Y-99413911D01*
X236980871Y-99389397D01*
X237001353Y-100208448D01*
X237012075Y-100543144D01*
X237026121Y-100804248D01*
X237044456Y-101002801D01*
X237068044Y-101149846D01*
X237091259Y-101237555D01*
X237155631Y-101384953D01*
X237241795Y-101521984D01*
X237333669Y-101627654D01*
X237415174Y-101680970D01*
X237432972Y-101683667D01*
X237480917Y-101655295D01*
X237572152Y-101579018D01*
X237691421Y-101468096D01*
X237768479Y-101392057D01*
X238057853Y-101100448D01*
X237966205Y-100976487D01*
X237945573Y-100947227D01*
X237928308Y-100915202D01*
X237914122Y-100873106D01*
X237902729Y-100813634D01*
X237893842Y-100729480D01*
X237887172Y-100613338D01*
X237882433Y-100457902D01*
X237879338Y-100255867D01*
X237877599Y-99999927D01*
X237876930Y-99682775D01*
X237877043Y-99297107D01*
X237877650Y-98835616D01*
X237877814Y-98728097D01*
X237880999Y-96650617D01*
X238340503Y-96650617D01*
X238355285Y-98077059D01*
X238361765Y-98548635D01*
X238370569Y-98938451D01*
X238381671Y-99245872D01*
X238395046Y-99470264D01*
X238410667Y-99610993D01*
X238419985Y-99651850D01*
X238472245Y-99761029D01*
X238551898Y-99880510D01*
X238640542Y-99987346D01*
X238719776Y-100058590D01*
X238759308Y-100075000D01*
X238805526Y-100045852D01*
X238888685Y-99969684D01*
X238983944Y-99870333D01*
X239129574Y-99710865D01*
X239226653Y-99601870D01*
X239281999Y-99529763D01*
X239302428Y-99480962D01*
X239294757Y-99441885D01*
X239265801Y-99398948D01*
X239238788Y-99362525D01*
X239213839Y-99323977D01*
X239193945Y-99279689D01*
X239178431Y-99219993D01*
X239166625Y-99135219D01*
X239157850Y-99015697D01*
X239151435Y-98851757D01*
X239146704Y-98633730D01*
X239142983Y-98351947D01*
X239139599Y-97996737D01*
X239139035Y-97931501D01*
X239127833Y-96624833D01*
X238873833Y-96611675D01*
X238708428Y-96608793D01*
X238554902Y-96615453D01*
X238480168Y-96624567D01*
X238340503Y-96650617D01*
X237880999Y-96650617D01*
X237881071Y-96603667D01*
X237458806Y-96603667D01*
X237257725Y-96606099D01*
X237125575Y-96614944D01*
X237046719Y-96632521D01*
X237005520Y-96661149D01*
X236998311Y-96671978D01*
X236958184Y-96716031D01*
X236896812Y-96705100D01*
X236858807Y-96686089D01*
X236766320Y-96658916D01*
X236620533Y-96639467D01*
X236452734Y-96631891D01*
X236450047Y-96631889D01*
X236148009Y-96660870D01*
X235881112Y-96753069D01*
X235631240Y-96916368D01*
X235479471Y-97054231D01*
X235276325Y-97314372D01*
X235147191Y-97611828D01*
X235093587Y-97940170D01*
X234651052Y-97940170D01*
X234648043Y-97744494D01*
X234640765Y-97468202D01*
X234640455Y-97459390D01*
X234609910Y-96600614D01*
X234223038Y-96612724D01*
X233836167Y-96624833D01*
X233815000Y-98720333D01*
X233809921Y-99200692D01*
X233805010Y-99603737D01*
X233799957Y-99936822D01*
X233794448Y-100207297D01*
X233788173Y-100422516D01*
X233780820Y-100589829D01*
X233772078Y-100716590D01*
X233761634Y-100810151D01*
X233749176Y-100877863D01*
X233734395Y-100927079D01*
X233720088Y-100959243D01*
X233646342Y-101102653D01*
X232248667Y-101102653D01*
X232248667Y-95907351D01*
X233792802Y-95907351D01*
X233806236Y-96064412D01*
X233882135Y-96209589D01*
X233999281Y-96310451D01*
X234172755Y-96381541D01*
X234340502Y-96372417D01*
X234482613Y-96307272D01*
X234588574Y-96222571D01*
X234664095Y-96127412D01*
X234669325Y-96116930D01*
X234727256Y-96038581D01*
X234785215Y-96011000D01*
X234859086Y-95991981D01*
X234975187Y-95943231D01*
X235056469Y-95902600D01*
X235188293Y-95843421D01*
X235303712Y-95810128D01*
X235351559Y-95807350D01*
X235430115Y-95852567D01*
X235533331Y-95962414D01*
X235616082Y-96074500D01*
X235714780Y-96211154D01*
X235789370Y-96288961D01*
X235857248Y-96322872D01*
X235911635Y-96328500D01*
X236022347Y-96295473D01*
X236124642Y-96192951D01*
X236222291Y-96015768D01*
X236312193Y-95779591D01*
X236384591Y-95598231D01*
X236453365Y-95499172D01*
X236517751Y-95483244D01*
X236555593Y-95516099D01*
X236588388Y-95578022D01*
X236640810Y-95695590D01*
X236702457Y-95845287D01*
X236712902Y-95871718D01*
X236821216Y-96110106D01*
X236927700Y-96264700D01*
X237035157Y-96336246D01*
X237146395Y-96325488D01*
X237264217Y-96233171D01*
X237391429Y-96060042D01*
X237395703Y-96053149D01*
X237505858Y-95896418D01*
X237606890Y-95814690D01*
X237717399Y-95802970D01*
X237855984Y-95856263D01*
X237942500Y-95906271D01*
X238065538Y-95969867D01*
X238175492Y-96006928D01*
X238207083Y-96010783D01*
X238283308Y-96034315D01*
X238302333Y-96072576D01*
X238335794Y-96153663D01*
X238418705Y-96247916D01*
X238524863Y-96330491D01*
X238621325Y-96374990D01*
X238788928Y-96379185D01*
X238950469Y-96319877D01*
X239084861Y-96212415D01*
X239171013Y-96072145D01*
X239191333Y-95960176D01*
X239154002Y-95769681D01*
X239050683Y-95621649D01*
X238894391Y-95529281D01*
X238741959Y-95504346D01*
X238555177Y-95539200D01*
X238400422Y-95637194D01*
X238300165Y-95783946D01*
X238298535Y-95788155D01*
X238255362Y-95861522D01*
X238185981Y-95872909D01*
X238142947Y-95863965D01*
X238032492Y-95821813D01*
X237963589Y-95777815D01*
X237876363Y-95719858D01*
X237783505Y-95676264D01*
X237642100Y-95656752D01*
X237512664Y-95714438D01*
X237388014Y-95852807D01*
X237372547Y-95875743D01*
X237260553Y-96034425D01*
X237161956Y-96152060D01*
X237088435Y-96215403D01*
X237066615Y-96222667D01*
X237035457Y-96186728D01*
X236977380Y-96089011D01*
X236900833Y-95944664D01*
X236818712Y-95778167D01*
X236723479Y-95583621D01*
X236652927Y-95454385D01*
X236598306Y-95377980D01*
X236550866Y-95341927D01*
X236507068Y-95333667D01*
X236443054Y-95340733D01*
X236388957Y-95370327D01*
X236335574Y-95435045D01*
X236273704Y-95547480D01*
X236194144Y-95720227D01*
X236148829Y-95823973D01*
X236074673Y-95986291D01*
X236008003Y-96116339D01*
X235958396Y-96196184D01*
X235941435Y-96212355D01*
X235895254Y-96188533D01*
X235817831Y-96111437D01*
X235725770Y-95997641D01*
X235724070Y-95995343D01*
X235573595Y-95809471D01*
X235444377Y-95696683D01*
X235323558Y-95652574D01*
X235198278Y-95672740D01*
X235055676Y-95752776D01*
X235042667Y-95761968D01*
X234924948Y-95827888D01*
X234824408Y-95864424D01*
X234736932Y-95870918D01*
X234692439Y-95822481D01*
X234681876Y-95792337D01*
X234597697Y-95651095D01*
X234455879Y-95550205D01*
X234279798Y-95505413D01*
X234254626Y-95504522D01*
X234072742Y-95536992D01*
X233931508Y-95626429D01*
X233836377Y-95755619D01*
X233792802Y-95907351D01*
X232248667Y-95907351D01*
X232248667Y-94190667D01*
X240715333Y-94190667D01*
X240715333Y-102657333D01*
D13*
%TO.C,U3*%
X147400000Y-95990000D02*
X143540000Y-95990000D01*
X143540000Y-95990000D02*
X143540000Y-96255000D01*
X147400000Y-95990000D02*
X151260000Y-95990000D01*
X151260000Y-95990000D02*
X151260000Y-96255000D01*
X147400000Y-111610000D02*
X143540000Y-111610000D01*
X143540000Y-111610000D02*
X143540000Y-111345000D01*
X147400000Y-111610000D02*
X151260000Y-111610000D01*
X151260000Y-111610000D02*
X151260000Y-111345000D01*
X151260000Y-111345000D02*
X153075000Y-111345000D01*
%TO.C,U2*%
X111900000Y-113110000D02*
X115760000Y-113110000D01*
X115760000Y-113110000D02*
X115760000Y-112855000D01*
X111900000Y-113110000D02*
X108040000Y-113110000D01*
X108040000Y-113110000D02*
X108040000Y-112855000D01*
X111900000Y-102590000D02*
X115760000Y-102590000D01*
X115760000Y-102590000D02*
X115760000Y-102845000D01*
X111900000Y-102590000D02*
X108040000Y-102590000D01*
X108040000Y-102590000D02*
X108040000Y-102845000D01*
X108040000Y-102845000D02*
X106225000Y-102845000D01*
%TO.C,C4*%
X104161252Y-104335000D02*
X103638748Y-104335000D01*
X104161252Y-102865000D02*
X103638748Y-102865000D01*
%TO.C,C8*%
X140211252Y-99765000D02*
X139688748Y-99765000D01*
X140211252Y-101235000D02*
X139688748Y-101235000D01*
%TO.C,J10*%
X72900000Y-115280000D02*
X72400000Y-114280000D01*
X71900000Y-115280000D02*
X72900000Y-115280000D01*
X72400000Y-114280000D02*
X71900000Y-115280000D01*
X83340000Y-112580000D02*
X83340000Y-113890000D01*
X83340000Y-112580000D02*
X83340000Y-112580000D01*
X94090000Y-112580000D02*
X83340000Y-112580000D01*
X94090000Y-106080000D02*
X94090000Y-112580000D01*
X68490000Y-106080000D02*
X94090000Y-106080000D01*
X68490000Y-112580000D02*
X68490000Y-106080000D01*
X79240000Y-112580000D02*
X68490000Y-112580000D01*
X79240000Y-113890000D02*
X79240000Y-112580000D01*
X95390000Y-113890000D02*
X67190000Y-113890000D01*
X95390000Y-104770000D02*
X95390000Y-113890000D01*
X67190000Y-104770000D02*
X95390000Y-104770000D01*
X67190000Y-113890000D02*
X67190000Y-104770000D01*
%TO.C,R9*%
X153860436Y-113535000D02*
X154314564Y-113535000D01*
X153860436Y-112065000D02*
X154314564Y-112065000D01*
%TO.C,R8*%
X157172936Y-110135000D02*
X157627064Y-110135000D01*
X157172936Y-108665000D02*
X157627064Y-108665000D01*
%TO.C,R7*%
X156860436Y-106735000D02*
X157314564Y-106735000D01*
X156860436Y-105265000D02*
X157314564Y-105265000D01*
%TO.C,C1*%
X79260000Y-93563748D02*
X79260000Y-94986252D01*
X76540000Y-93563748D02*
X76540000Y-94986252D01*
%TO.C,U1*%
X111900000Y-100860000D02*
X115760000Y-100860000D01*
X115760000Y-100860000D02*
X115760000Y-100605000D01*
X111900000Y-100860000D02*
X108040000Y-100860000D01*
X108040000Y-100860000D02*
X108040000Y-100605000D01*
X111900000Y-90340000D02*
X115760000Y-90340000D01*
X115760000Y-90340000D02*
X115760000Y-90595000D01*
X111900000Y-90340000D02*
X108040000Y-90340000D01*
X108040000Y-90340000D02*
X108040000Y-90595000D01*
X108040000Y-90595000D02*
X106225000Y-90595000D01*
%TO.C,R6*%
X157485436Y-101865000D02*
X157939564Y-101865000D01*
X157485436Y-103335000D02*
X157939564Y-103335000D01*
%TO.C,R5*%
X158660436Y-98665000D02*
X159114564Y-98665000D01*
X158660436Y-100135000D02*
X159114564Y-100135000D01*
%TO.C,R4*%
X157865000Y-94014564D02*
X157865000Y-93560436D01*
X159335000Y-94014564D02*
X159335000Y-93560436D01*
%TO.C,R3*%
X153265000Y-93714564D02*
X153265000Y-93260436D01*
X154735000Y-93714564D02*
X154735000Y-93260436D01*
%TO.C,R2*%
X148614564Y-94065000D02*
X148160436Y-94065000D01*
X148614564Y-95535000D02*
X148160436Y-95535000D01*
%TO.C,J9*%
X52520000Y-107770000D02*
X52520000Y-113790000D01*
X52520000Y-113790000D02*
X57820000Y-113790000D01*
X57820000Y-113790000D02*
X57820000Y-107770000D01*
X57820000Y-107770000D02*
X52520000Y-107770000D01*
X52230000Y-108800000D02*
X52230000Y-112800000D01*
X53900000Y-113790000D02*
X53900000Y-112790000D01*
X53900000Y-112790000D02*
X56440000Y-112790000D01*
X56440000Y-112790000D02*
X56440000Y-113790000D01*
X53900000Y-112790000D02*
X54150000Y-112260000D01*
X54150000Y-112260000D02*
X56190000Y-112260000D01*
X56190000Y-112260000D02*
X56440000Y-112790000D01*
X54150000Y-113790000D02*
X54150000Y-112790000D01*
X56190000Y-113790000D02*
X56190000Y-112790000D01*
X53100000Y-107770000D02*
X53100000Y-108370000D01*
X53100000Y-108370000D02*
X54700000Y-108370000D01*
X54700000Y-108370000D02*
X54700000Y-107770000D01*
X55640000Y-107770000D02*
X55640000Y-108370000D01*
X55640000Y-108370000D02*
X57240000Y-108370000D01*
X57240000Y-108370000D02*
X57240000Y-107770000D01*
%TO.C,J8*%
X136980000Y-113530000D02*
X136980000Y-107510000D01*
X136980000Y-107510000D02*
X131680000Y-107510000D01*
X131680000Y-107510000D02*
X131680000Y-113530000D01*
X131680000Y-113530000D02*
X136980000Y-113530000D01*
X137270000Y-112500000D02*
X137270000Y-108500000D01*
X135600000Y-107510000D02*
X135600000Y-108510000D01*
X135600000Y-108510000D02*
X133060000Y-108510000D01*
X133060000Y-108510000D02*
X133060000Y-107510000D01*
X135600000Y-108510000D02*
X135350000Y-109040000D01*
X135350000Y-109040000D02*
X133310000Y-109040000D01*
X133310000Y-109040000D02*
X133060000Y-108510000D01*
X135350000Y-107510000D02*
X135350000Y-108510000D01*
X133310000Y-107510000D02*
X133310000Y-108510000D01*
X136400000Y-113530000D02*
X136400000Y-112930000D01*
X136400000Y-112930000D02*
X134800000Y-112930000D01*
X134800000Y-112930000D02*
X134800000Y-113530000D01*
X133860000Y-113530000D02*
X133860000Y-112930000D01*
X133860000Y-112930000D02*
X132260000Y-112930000D01*
X132260000Y-112930000D02*
X132260000Y-113530000D01*
%TO.C,J7*%
X229500000Y-65200000D02*
X244500000Y-65200000D01*
X244500000Y-65200000D02*
X244500000Y-80200000D01*
X244500000Y-80200000D02*
X229500000Y-80200000D01*
X229500000Y-80200000D02*
X229500000Y-65200000D01*
X237000000Y-65400000D02*
X236000000Y-66400000D01*
X237000000Y-65400000D02*
X238000000Y-66400000D01*
%TO.C,J6*%
X204100000Y-65200000D02*
X219100000Y-65200000D01*
X219100000Y-65200000D02*
X219100000Y-80200000D01*
X219100000Y-80200000D02*
X204100000Y-80200000D01*
X204100000Y-80200000D02*
X204100000Y-65200000D01*
X211600000Y-65400000D02*
X210600000Y-66400000D01*
X211600000Y-65400000D02*
X212600000Y-66400000D01*
%TO.C,J5*%
X178700000Y-65200000D02*
X193700000Y-65200000D01*
X193700000Y-65200000D02*
X193700000Y-80200000D01*
X193700000Y-80200000D02*
X178700000Y-80200000D01*
X178700000Y-80200000D02*
X178700000Y-65200000D01*
X186200000Y-65400000D02*
X185200000Y-66400000D01*
X186200000Y-65400000D02*
X187200000Y-66400000D01*
%TO.C,J4*%
X153300000Y-65200000D02*
X168300000Y-65200000D01*
X168300000Y-65200000D02*
X168300000Y-80200000D01*
X168300000Y-80200000D02*
X153300000Y-80200000D01*
X153300000Y-80200000D02*
X153300000Y-65200000D01*
X160800000Y-65400000D02*
X159800000Y-66400000D01*
X160800000Y-65400000D02*
X161800000Y-66400000D01*
%TO.C,J3*%
X127900000Y-65200000D02*
X142900000Y-65200000D01*
X142900000Y-65200000D02*
X142900000Y-80200000D01*
X142900000Y-80200000D02*
X127900000Y-80200000D01*
X127900000Y-80200000D02*
X127900000Y-65200000D01*
X135400000Y-65400000D02*
X134400000Y-66400000D01*
X135400000Y-65400000D02*
X136400000Y-66400000D01*
%TO.C,J2*%
X102500000Y-65200000D02*
X117500000Y-65200000D01*
X117500000Y-65200000D02*
X117500000Y-80200000D01*
X117500000Y-80200000D02*
X102500000Y-80200000D01*
X102500000Y-80200000D02*
X102500000Y-65200000D01*
X110000000Y-65400000D02*
X109000000Y-66400000D01*
X110000000Y-65400000D02*
X111000000Y-66400000D01*
%TO.C,J1*%
X77100000Y-65200000D02*
X92100000Y-65200000D01*
X92100000Y-65200000D02*
X92100000Y-80200000D01*
X92100000Y-80200000D02*
X77100000Y-80200000D01*
X77100000Y-80200000D02*
X77100000Y-65200000D01*
X84600000Y-65400000D02*
X83600000Y-66400000D01*
X84600000Y-65400000D02*
X85600000Y-66400000D01*
%TO.C,J0*%
X51700000Y-65200000D02*
X66700000Y-65200000D01*
X66700000Y-65200000D02*
X66700000Y-80200000D01*
X66700000Y-80200000D02*
X51700000Y-80200000D01*
X51700000Y-80200000D02*
X51700000Y-65200000D01*
X59200000Y-65400000D02*
X58200000Y-66400000D01*
X59200000Y-65400000D02*
X60200000Y-66400000D01*
%TO.C,C7*%
X140111252Y-107535000D02*
X139588748Y-107535000D01*
X140111252Y-106065000D02*
X139588748Y-106065000D01*
%TO.C,C6*%
X119388748Y-102615000D02*
X119911252Y-102615000D01*
X119388748Y-104085000D02*
X119911252Y-104085000D01*
%TO.C,C5*%
X119388748Y-90365000D02*
X119911252Y-90365000D01*
X119388748Y-91835000D02*
X119911252Y-91835000D01*
%TO.C,C3*%
X104061252Y-92035000D02*
X103538748Y-92035000D01*
X104061252Y-90565000D02*
X103538748Y-90565000D01*
%TO.C,C2*%
X127636252Y-111960000D02*
X126213748Y-111960000D01*
X127636252Y-109240000D02*
X126213748Y-109240000D01*
%TO.C,U3*%
D10*
X144738095Y-111902380D02*
X144738095Y-112711904D01*
X144785714Y-112807142D01*
X144833333Y-112854761D01*
X144928571Y-112902380D01*
X145119047Y-112902380D01*
X145214285Y-112854761D01*
X145261904Y-112807142D01*
X145309523Y-112711904D01*
X145309523Y-111902380D01*
X145690476Y-111902380D02*
X146309523Y-111902380D01*
X145976190Y-112283333D01*
X146119047Y-112283333D01*
X146214285Y-112330952D01*
X146261904Y-112378571D01*
X146309523Y-112473809D01*
X146309523Y-112711904D01*
X146261904Y-112807142D01*
X146214285Y-112854761D01*
X146119047Y-112902380D01*
X145833333Y-112902380D01*
X145738095Y-112854761D01*
X145690476Y-112807142D01*
%TO.C,U2*%
X111138095Y-101202380D02*
X111138095Y-102011904D01*
X111185714Y-102107142D01*
X111233333Y-102154761D01*
X111328571Y-102202380D01*
X111519047Y-102202380D01*
X111614285Y-102154761D01*
X111661904Y-102107142D01*
X111709523Y-102011904D01*
X111709523Y-101202380D01*
X112138095Y-101297619D02*
X112185714Y-101250000D01*
X112280952Y-101202380D01*
X112519047Y-101202380D01*
X112614285Y-101250000D01*
X112661904Y-101297619D01*
X112709523Y-101392857D01*
X112709523Y-101488095D01*
X112661904Y-101630952D01*
X112090476Y-102202380D01*
X112709523Y-102202380D01*
%TO.C,C4*%
X103733333Y-102207142D02*
X103685714Y-102254761D01*
X103542857Y-102302380D01*
X103447619Y-102302380D01*
X103304761Y-102254761D01*
X103209523Y-102159523D01*
X103161904Y-102064285D01*
X103114285Y-101873809D01*
X103114285Y-101730952D01*
X103161904Y-101540476D01*
X103209523Y-101445238D01*
X103304761Y-101350000D01*
X103447619Y-101302380D01*
X103542857Y-101302380D01*
X103685714Y-101350000D01*
X103733333Y-101397619D01*
X104590476Y-101635714D02*
X104590476Y-102302380D01*
X104352380Y-101254761D02*
X104114285Y-101969047D01*
X104733333Y-101969047D01*
%TO.C,C8*%
X139683333Y-99257142D02*
X139635714Y-99304761D01*
X139492857Y-99352380D01*
X139397619Y-99352380D01*
X139254761Y-99304761D01*
X139159523Y-99209523D01*
X139111904Y-99114285D01*
X139064285Y-98923809D01*
X139064285Y-98780952D01*
X139111904Y-98590476D01*
X139159523Y-98495238D01*
X139254761Y-98400000D01*
X139397619Y-98352380D01*
X139492857Y-98352380D01*
X139635714Y-98400000D01*
X139683333Y-98447619D01*
X140254761Y-98780952D02*
X140159523Y-98733333D01*
X140111904Y-98685714D01*
X140064285Y-98590476D01*
X140064285Y-98542857D01*
X140111904Y-98447619D01*
X140159523Y-98400000D01*
X140254761Y-98352380D01*
X140445238Y-98352380D01*
X140540476Y-98400000D01*
X140588095Y-98447619D01*
X140635714Y-98542857D01*
X140635714Y-98590476D01*
X140588095Y-98685714D01*
X140540476Y-98733333D01*
X140445238Y-98780952D01*
X140254761Y-98780952D01*
X140159523Y-98828571D01*
X140111904Y-98876190D01*
X140064285Y-98971428D01*
X140064285Y-99161904D01*
X140111904Y-99257142D01*
X140159523Y-99304761D01*
X140254761Y-99352380D01*
X140445238Y-99352380D01*
X140540476Y-99304761D01*
X140588095Y-99257142D01*
X140635714Y-99161904D01*
X140635714Y-98971428D01*
X140588095Y-98876190D01*
X140540476Y-98828571D01*
X140445238Y-98780952D01*
%TO.C,J10*%
X65452380Y-111559523D02*
X66166666Y-111559523D01*
X66309523Y-111607142D01*
X66404761Y-111702380D01*
X66452380Y-111845238D01*
X66452380Y-111940476D01*
X66452380Y-110559523D02*
X66452380Y-111130952D01*
X66452380Y-110845238D02*
X65452380Y-110845238D01*
X65595238Y-110940476D01*
X65690476Y-111035714D01*
X65738095Y-111130952D01*
X65452380Y-109940476D02*
X65452380Y-109845238D01*
X65500000Y-109750000D01*
X65547619Y-109702380D01*
X65642857Y-109654761D01*
X65833333Y-109607142D01*
X66071428Y-109607142D01*
X66261904Y-109654761D01*
X66357142Y-109702380D01*
X66404761Y-109750000D01*
X66452380Y-109845238D01*
X66452380Y-109940476D01*
X66404761Y-110035714D01*
X66357142Y-110083333D01*
X66261904Y-110130952D01*
X66071428Y-110178571D01*
X65833333Y-110178571D01*
X65642857Y-110130952D01*
X65547619Y-110083333D01*
X65500000Y-110035714D01*
X65452380Y-109940476D01*
%TO.C,R9*%
X156683333Y-113352380D02*
X156350000Y-112876190D01*
X156111904Y-113352380D02*
X156111904Y-112352380D01*
X156492857Y-112352380D01*
X156588095Y-112400000D01*
X156635714Y-112447619D01*
X156683333Y-112542857D01*
X156683333Y-112685714D01*
X156635714Y-112780952D01*
X156588095Y-112828571D01*
X156492857Y-112876190D01*
X156111904Y-112876190D01*
X157159523Y-113352380D02*
X157350000Y-113352380D01*
X157445238Y-113304761D01*
X157492857Y-113257142D01*
X157588095Y-113114285D01*
X157635714Y-112923809D01*
X157635714Y-112542857D01*
X157588095Y-112447619D01*
X157540476Y-112400000D01*
X157445238Y-112352380D01*
X157254761Y-112352380D01*
X157159523Y-112400000D01*
X157111904Y-112447619D01*
X157064285Y-112542857D01*
X157064285Y-112780952D01*
X157111904Y-112876190D01*
X157159523Y-112923809D01*
X157254761Y-112971428D01*
X157445238Y-112971428D01*
X157540476Y-112923809D01*
X157588095Y-112876190D01*
X157635714Y-112780952D01*
%TO.C,R8*%
X159833333Y-109752380D02*
X159500000Y-109276190D01*
X159261904Y-109752380D02*
X159261904Y-108752380D01*
X159642857Y-108752380D01*
X159738095Y-108800000D01*
X159785714Y-108847619D01*
X159833333Y-108942857D01*
X159833333Y-109085714D01*
X159785714Y-109180952D01*
X159738095Y-109228571D01*
X159642857Y-109276190D01*
X159261904Y-109276190D01*
X160404761Y-109180952D02*
X160309523Y-109133333D01*
X160261904Y-109085714D01*
X160214285Y-108990476D01*
X160214285Y-108942857D01*
X160261904Y-108847619D01*
X160309523Y-108800000D01*
X160404761Y-108752380D01*
X160595238Y-108752380D01*
X160690476Y-108800000D01*
X160738095Y-108847619D01*
X160785714Y-108942857D01*
X160785714Y-108990476D01*
X160738095Y-109085714D01*
X160690476Y-109133333D01*
X160595238Y-109180952D01*
X160404761Y-109180952D01*
X160309523Y-109228571D01*
X160261904Y-109276190D01*
X160214285Y-109371428D01*
X160214285Y-109561904D01*
X160261904Y-109657142D01*
X160309523Y-109704761D01*
X160404761Y-109752380D01*
X160595238Y-109752380D01*
X160690476Y-109704761D01*
X160738095Y-109657142D01*
X160785714Y-109561904D01*
X160785714Y-109371428D01*
X160738095Y-109276190D01*
X160690476Y-109228571D01*
X160595238Y-109180952D01*
%TO.C,R7*%
X159608333Y-106352380D02*
X159275000Y-105876190D01*
X159036904Y-106352380D02*
X159036904Y-105352380D01*
X159417857Y-105352380D01*
X159513095Y-105400000D01*
X159560714Y-105447619D01*
X159608333Y-105542857D01*
X159608333Y-105685714D01*
X159560714Y-105780952D01*
X159513095Y-105828571D01*
X159417857Y-105876190D01*
X159036904Y-105876190D01*
X159941666Y-105352380D02*
X160608333Y-105352380D01*
X160179761Y-106352380D01*
%TO.C,C1*%
X80557142Y-94441666D02*
X80604761Y-94489285D01*
X80652380Y-94632142D01*
X80652380Y-94727380D01*
X80604761Y-94870238D01*
X80509523Y-94965476D01*
X80414285Y-95013095D01*
X80223809Y-95060714D01*
X80080952Y-95060714D01*
X79890476Y-95013095D01*
X79795238Y-94965476D01*
X79700000Y-94870238D01*
X79652380Y-94727380D01*
X79652380Y-94632142D01*
X79700000Y-94489285D01*
X79747619Y-94441666D01*
X80652380Y-93489285D02*
X80652380Y-94060714D01*
X80652380Y-93775000D02*
X79652380Y-93775000D01*
X79795238Y-93870238D01*
X79890476Y-93965476D01*
X79938095Y-94060714D01*
%TO.C,U1*%
X111138095Y-88952380D02*
X111138095Y-89761904D01*
X111185714Y-89857142D01*
X111233333Y-89904761D01*
X111328571Y-89952380D01*
X111519047Y-89952380D01*
X111614285Y-89904761D01*
X111661904Y-89857142D01*
X111709523Y-89761904D01*
X111709523Y-88952380D01*
X112709523Y-89952380D02*
X112138095Y-89952380D01*
X112423809Y-89952380D02*
X112423809Y-88952380D01*
X112328571Y-89095238D01*
X112233333Y-89190476D01*
X112138095Y-89238095D01*
%TO.C,R6*%
X160145833Y-102952380D02*
X159812500Y-102476190D01*
X159574404Y-102952380D02*
X159574404Y-101952380D01*
X159955357Y-101952380D01*
X160050595Y-102000000D01*
X160098214Y-102047619D01*
X160145833Y-102142857D01*
X160145833Y-102285714D01*
X160098214Y-102380952D01*
X160050595Y-102428571D01*
X159955357Y-102476190D01*
X159574404Y-102476190D01*
X161002976Y-101952380D02*
X160812500Y-101952380D01*
X160717261Y-102000000D01*
X160669642Y-102047619D01*
X160574404Y-102190476D01*
X160526785Y-102380952D01*
X160526785Y-102761904D01*
X160574404Y-102857142D01*
X160622023Y-102904761D01*
X160717261Y-102952380D01*
X160907738Y-102952380D01*
X161002976Y-102904761D01*
X161050595Y-102857142D01*
X161098214Y-102761904D01*
X161098214Y-102523809D01*
X161050595Y-102428571D01*
X161002976Y-102380952D01*
X160907738Y-102333333D01*
X160717261Y-102333333D01*
X160622023Y-102380952D01*
X160574404Y-102428571D01*
X160526785Y-102523809D01*
%TO.C,R5*%
X161320833Y-99752380D02*
X160987500Y-99276190D01*
X160749404Y-99752380D02*
X160749404Y-98752380D01*
X161130357Y-98752380D01*
X161225595Y-98800000D01*
X161273214Y-98847619D01*
X161320833Y-98942857D01*
X161320833Y-99085714D01*
X161273214Y-99180952D01*
X161225595Y-99228571D01*
X161130357Y-99276190D01*
X160749404Y-99276190D01*
X162225595Y-98752380D02*
X161749404Y-98752380D01*
X161701785Y-99228571D01*
X161749404Y-99180952D01*
X161844642Y-99133333D01*
X162082738Y-99133333D01*
X162177976Y-99180952D01*
X162225595Y-99228571D01*
X162273214Y-99323809D01*
X162273214Y-99561904D01*
X162225595Y-99657142D01*
X162177976Y-99704761D01*
X162082738Y-99752380D01*
X161844642Y-99752380D01*
X161749404Y-99704761D01*
X161701785Y-99657142D01*
%TO.C,R4*%
X159052380Y-91316666D02*
X158576190Y-91650000D01*
X159052380Y-91888095D02*
X158052380Y-91888095D01*
X158052380Y-91507142D01*
X158100000Y-91411904D01*
X158147619Y-91364285D01*
X158242857Y-91316666D01*
X158385714Y-91316666D01*
X158480952Y-91364285D01*
X158528571Y-91411904D01*
X158576190Y-91507142D01*
X158576190Y-91888095D01*
X158385714Y-90459523D02*
X159052380Y-90459523D01*
X158004761Y-90697619D02*
X158719047Y-90935714D01*
X158719047Y-90316666D01*
%TO.C,R3*%
X154452380Y-91054166D02*
X153976190Y-91387500D01*
X154452380Y-91625595D02*
X153452380Y-91625595D01*
X153452380Y-91244642D01*
X153500000Y-91149404D01*
X153547619Y-91101785D01*
X153642857Y-91054166D01*
X153785714Y-91054166D01*
X153880952Y-91101785D01*
X153928571Y-91149404D01*
X153976190Y-91244642D01*
X153976190Y-91625595D01*
X153452380Y-90720833D02*
X153452380Y-90101785D01*
X153833333Y-90435119D01*
X153833333Y-90292261D01*
X153880952Y-90197023D01*
X153928571Y-90149404D01*
X154023809Y-90101785D01*
X154261904Y-90101785D01*
X154357142Y-90149404D01*
X154404761Y-90197023D01*
X154452380Y-90292261D01*
X154452380Y-90577976D01*
X154404761Y-90673214D01*
X154357142Y-90720833D01*
%TO.C,R2*%
X145420833Y-95352380D02*
X145087500Y-94876190D01*
X144849404Y-95352380D02*
X144849404Y-94352380D01*
X145230357Y-94352380D01*
X145325595Y-94400000D01*
X145373214Y-94447619D01*
X145420833Y-94542857D01*
X145420833Y-94685714D01*
X145373214Y-94780952D01*
X145325595Y-94828571D01*
X145230357Y-94876190D01*
X144849404Y-94876190D01*
X145801785Y-94447619D02*
X145849404Y-94400000D01*
X145944642Y-94352380D01*
X146182738Y-94352380D01*
X146277976Y-94400000D01*
X146325595Y-94447619D01*
X146373214Y-94542857D01*
X146373214Y-94638095D01*
X146325595Y-94780952D01*
X145754166Y-95352380D01*
X146373214Y-95352380D01*
%TO.C,J9*%
X54836666Y-106132380D02*
X54836666Y-106846666D01*
X54789047Y-106989523D01*
X54693809Y-107084761D01*
X54550952Y-107132380D01*
X54455714Y-107132380D01*
X55360476Y-107132380D02*
X55550952Y-107132380D01*
X55646190Y-107084761D01*
X55693809Y-107037142D01*
X55789047Y-106894285D01*
X55836666Y-106703809D01*
X55836666Y-106322857D01*
X55789047Y-106227619D01*
X55741428Y-106180000D01*
X55646190Y-106132380D01*
X55455714Y-106132380D01*
X55360476Y-106180000D01*
X55312857Y-106227619D01*
X55265238Y-106322857D01*
X55265238Y-106560952D01*
X55312857Y-106656190D01*
X55360476Y-106703809D01*
X55455714Y-106751428D01*
X55646190Y-106751428D01*
X55741428Y-106703809D01*
X55789047Y-106656190D01*
X55836666Y-106560952D01*
%TO.C,J8*%
X133996666Y-114072380D02*
X133996666Y-114786666D01*
X133949047Y-114929523D01*
X133853809Y-115024761D01*
X133710952Y-115072380D01*
X133615714Y-115072380D01*
X134615714Y-114500952D02*
X134520476Y-114453333D01*
X134472857Y-114405714D01*
X134425238Y-114310476D01*
X134425238Y-114262857D01*
X134472857Y-114167619D01*
X134520476Y-114120000D01*
X134615714Y-114072380D01*
X134806190Y-114072380D01*
X134901428Y-114120000D01*
X134949047Y-114167619D01*
X134996666Y-114262857D01*
X134996666Y-114310476D01*
X134949047Y-114405714D01*
X134901428Y-114453333D01*
X134806190Y-114500952D01*
X134615714Y-114500952D01*
X134520476Y-114548571D01*
X134472857Y-114596190D01*
X134425238Y-114691428D01*
X134425238Y-114881904D01*
X134472857Y-114977142D01*
X134520476Y-115024761D01*
X134615714Y-115072380D01*
X134806190Y-115072380D01*
X134901428Y-115024761D01*
X134949047Y-114977142D01*
X134996666Y-114881904D01*
X134996666Y-114691428D01*
X134949047Y-114596190D01*
X134901428Y-114548571D01*
X134806190Y-114500952D01*
%TO.C,J7*%
X227452380Y-73233333D02*
X228166666Y-73233333D01*
X228309523Y-73280952D01*
X228404761Y-73376190D01*
X228452380Y-73519047D01*
X228452380Y-73614285D01*
X227452380Y-72852380D02*
X227452380Y-72185714D01*
X228452380Y-72614285D01*
%TO.C,J6*%
X202052380Y-73233333D02*
X202766666Y-73233333D01*
X202909523Y-73280952D01*
X203004761Y-73376190D01*
X203052380Y-73519047D01*
X203052380Y-73614285D01*
X202052380Y-72328571D02*
X202052380Y-72519047D01*
X202100000Y-72614285D01*
X202147619Y-72661904D01*
X202290476Y-72757142D01*
X202480952Y-72804761D01*
X202861904Y-72804761D01*
X202957142Y-72757142D01*
X203004761Y-72709523D01*
X203052380Y-72614285D01*
X203052380Y-72423809D01*
X203004761Y-72328571D01*
X202957142Y-72280952D01*
X202861904Y-72233333D01*
X202623809Y-72233333D01*
X202528571Y-72280952D01*
X202480952Y-72328571D01*
X202433333Y-72423809D01*
X202433333Y-72614285D01*
X202480952Y-72709523D01*
X202528571Y-72757142D01*
X202623809Y-72804761D01*
%TO.C,J5*%
X176652380Y-73233333D02*
X177366666Y-73233333D01*
X177509523Y-73280952D01*
X177604761Y-73376190D01*
X177652380Y-73519047D01*
X177652380Y-73614285D01*
X176652380Y-72280952D02*
X176652380Y-72757142D01*
X177128571Y-72804761D01*
X177080952Y-72757142D01*
X177033333Y-72661904D01*
X177033333Y-72423809D01*
X177080952Y-72328571D01*
X177128571Y-72280952D01*
X177223809Y-72233333D01*
X177461904Y-72233333D01*
X177557142Y-72280952D01*
X177604761Y-72328571D01*
X177652380Y-72423809D01*
X177652380Y-72661904D01*
X177604761Y-72757142D01*
X177557142Y-72804761D01*
%TO.C,J4*%
X151252380Y-73233333D02*
X151966666Y-73233333D01*
X152109523Y-73280952D01*
X152204761Y-73376190D01*
X152252380Y-73519047D01*
X152252380Y-73614285D01*
X151585714Y-72328571D02*
X152252380Y-72328571D01*
X151204761Y-72566666D02*
X151919047Y-72804761D01*
X151919047Y-72185714D01*
%TO.C,J3*%
X125852380Y-73233333D02*
X126566666Y-73233333D01*
X126709523Y-73280952D01*
X126804761Y-73376190D01*
X126852380Y-73519047D01*
X126852380Y-73614285D01*
X125852380Y-72852380D02*
X125852380Y-72233333D01*
X126233333Y-72566666D01*
X126233333Y-72423809D01*
X126280952Y-72328571D01*
X126328571Y-72280952D01*
X126423809Y-72233333D01*
X126661904Y-72233333D01*
X126757142Y-72280952D01*
X126804761Y-72328571D01*
X126852380Y-72423809D01*
X126852380Y-72709523D01*
X126804761Y-72804761D01*
X126757142Y-72852380D01*
%TO.C,J2*%
X100452380Y-73233333D02*
X101166666Y-73233333D01*
X101309523Y-73280952D01*
X101404761Y-73376190D01*
X101452380Y-73519047D01*
X101452380Y-73614285D01*
X100547619Y-72804761D02*
X100500000Y-72757142D01*
X100452380Y-72661904D01*
X100452380Y-72423809D01*
X100500000Y-72328571D01*
X100547619Y-72280952D01*
X100642857Y-72233333D01*
X100738095Y-72233333D01*
X100880952Y-72280952D01*
X101452380Y-72852380D01*
X101452380Y-72233333D01*
%TO.C,J1*%
X75052380Y-73233333D02*
X75766666Y-73233333D01*
X75909523Y-73280952D01*
X76004761Y-73376190D01*
X76052380Y-73519047D01*
X76052380Y-73614285D01*
X76052380Y-72233333D02*
X76052380Y-72804761D01*
X76052380Y-72519047D02*
X75052380Y-72519047D01*
X75195238Y-72614285D01*
X75290476Y-72709523D01*
X75338095Y-72804761D01*
%TO.C,J0*%
X49866666Y-72352380D02*
X49866666Y-73066666D01*
X49819047Y-73209523D01*
X49723809Y-73304761D01*
X49580952Y-73352380D01*
X49485714Y-73352380D01*
X50533333Y-72352380D02*
X50628571Y-72352380D01*
X50723809Y-72400000D01*
X50771428Y-72447619D01*
X50819047Y-72542857D01*
X50866666Y-72733333D01*
X50866666Y-72971428D01*
X50819047Y-73161904D01*
X50771428Y-73257142D01*
X50723809Y-73304761D01*
X50628571Y-73352380D01*
X50533333Y-73352380D01*
X50438095Y-73304761D01*
X50390476Y-73257142D01*
X50342857Y-73161904D01*
X50295238Y-72971428D01*
X50295238Y-72733333D01*
X50342857Y-72542857D01*
X50390476Y-72447619D01*
X50438095Y-72400000D01*
X50533333Y-72352380D01*
%TO.C,C7*%
X139683333Y-105507142D02*
X139635714Y-105554761D01*
X139492857Y-105602380D01*
X139397619Y-105602380D01*
X139254761Y-105554761D01*
X139159523Y-105459523D01*
X139111904Y-105364285D01*
X139064285Y-105173809D01*
X139064285Y-105030952D01*
X139111904Y-104840476D01*
X139159523Y-104745238D01*
X139254761Y-104650000D01*
X139397619Y-104602380D01*
X139492857Y-104602380D01*
X139635714Y-104650000D01*
X139683333Y-104697619D01*
X140016666Y-104602380D02*
X140683333Y-104602380D01*
X140254761Y-105602380D01*
%TO.C,C6*%
X119483333Y-102027142D02*
X119435714Y-102074761D01*
X119292857Y-102122380D01*
X119197619Y-102122380D01*
X119054761Y-102074761D01*
X118959523Y-101979523D01*
X118911904Y-101884285D01*
X118864285Y-101693809D01*
X118864285Y-101550952D01*
X118911904Y-101360476D01*
X118959523Y-101265238D01*
X119054761Y-101170000D01*
X119197619Y-101122380D01*
X119292857Y-101122380D01*
X119435714Y-101170000D01*
X119483333Y-101217619D01*
X120340476Y-101122380D02*
X120150000Y-101122380D01*
X120054761Y-101170000D01*
X120007142Y-101217619D01*
X119911904Y-101360476D01*
X119864285Y-101550952D01*
X119864285Y-101931904D01*
X119911904Y-102027142D01*
X119959523Y-102074761D01*
X120054761Y-102122380D01*
X120245238Y-102122380D01*
X120340476Y-102074761D01*
X120388095Y-102027142D01*
X120435714Y-101931904D01*
X120435714Y-101693809D01*
X120388095Y-101598571D01*
X120340476Y-101550952D01*
X120245238Y-101503333D01*
X120054761Y-101503333D01*
X119959523Y-101550952D01*
X119911904Y-101598571D01*
X119864285Y-101693809D01*
%TO.C,C5*%
X119483333Y-89777142D02*
X119435714Y-89824761D01*
X119292857Y-89872380D01*
X119197619Y-89872380D01*
X119054761Y-89824761D01*
X118959523Y-89729523D01*
X118911904Y-89634285D01*
X118864285Y-89443809D01*
X118864285Y-89300952D01*
X118911904Y-89110476D01*
X118959523Y-89015238D01*
X119054761Y-88920000D01*
X119197619Y-88872380D01*
X119292857Y-88872380D01*
X119435714Y-88920000D01*
X119483333Y-88967619D01*
X120388095Y-88872380D02*
X119911904Y-88872380D01*
X119864285Y-89348571D01*
X119911904Y-89300952D01*
X120007142Y-89253333D01*
X120245238Y-89253333D01*
X120340476Y-89300952D01*
X120388095Y-89348571D01*
X120435714Y-89443809D01*
X120435714Y-89681904D01*
X120388095Y-89777142D01*
X120340476Y-89824761D01*
X120245238Y-89872380D01*
X120007142Y-89872380D01*
X119911904Y-89824761D01*
X119864285Y-89777142D01*
%TO.C,C3*%
X100833333Y-91857142D02*
X100785714Y-91904761D01*
X100642857Y-91952380D01*
X100547619Y-91952380D01*
X100404761Y-91904761D01*
X100309523Y-91809523D01*
X100261904Y-91714285D01*
X100214285Y-91523809D01*
X100214285Y-91380952D01*
X100261904Y-91190476D01*
X100309523Y-91095238D01*
X100404761Y-91000000D01*
X100547619Y-90952380D01*
X100642857Y-90952380D01*
X100785714Y-91000000D01*
X100833333Y-91047619D01*
X101166666Y-90952380D02*
X101785714Y-90952380D01*
X101452380Y-91333333D01*
X101595238Y-91333333D01*
X101690476Y-91380952D01*
X101738095Y-91428571D01*
X101785714Y-91523809D01*
X101785714Y-91761904D01*
X101738095Y-91857142D01*
X101690476Y-91904761D01*
X101595238Y-91952380D01*
X101309523Y-91952380D01*
X101214285Y-91904761D01*
X101166666Y-91857142D01*
%TO.C,C2*%
X126758333Y-113257142D02*
X126710714Y-113304761D01*
X126567857Y-113352380D01*
X126472619Y-113352380D01*
X126329761Y-113304761D01*
X126234523Y-113209523D01*
X126186904Y-113114285D01*
X126139285Y-112923809D01*
X126139285Y-112780952D01*
X126186904Y-112590476D01*
X126234523Y-112495238D01*
X126329761Y-112400000D01*
X126472619Y-112352380D01*
X126567857Y-112352380D01*
X126710714Y-112400000D01*
X126758333Y-112447619D01*
X127139285Y-112447619D02*
X127186904Y-112400000D01*
X127282142Y-112352380D01*
X127520238Y-112352380D01*
X127615476Y-112400000D01*
X127663095Y-112447619D01*
X127710714Y-112542857D01*
X127710714Y-112638095D01*
X127663095Y-112780952D01*
X127091666Y-113352380D01*
X127710714Y-113352380D01*
%TD*%
M02*
