%TF.GenerationSoftware,KiCad,Pcbnew,(5.1.10-1-10_14)*%
%TF.CreationDate,2021-10-06T14:17:19-04:00*%
%TF.ProjectId,BufferBox,42756666-6572-4426-9f78-2e6b69636164,1.0*%
%TF.SameCoordinates,Original*%
%TF.FileFunction,Legend,Top*%
%TF.FilePolarity,Positive*%
%FSLAX46Y46*%
G04 Gerber Fmt 4.6, Leading zero omitted, Abs format (unit mm)*
G04 Created by KiCad (PCBNEW (5.1.10-1-10_14)) date 2021-10-06 14:17:19*
%MOMM*%
%LPD*%
G01*
G04 APERTURE LIST*
%ADD10C,0.150000*%
%ADD11C,0.100000*%
%ADD12C,0.010000*%
%ADD13C,0.120000*%
G04 APERTURE END LIST*
D10*
X224398690Y-96899523D02*
X224398690Y-95629523D01*
X224701071Y-95629523D01*
X224882500Y-95690000D01*
X225003452Y-95810952D01*
X225063928Y-95931904D01*
X225124404Y-96173809D01*
X225124404Y-96355238D01*
X225063928Y-96597142D01*
X225003452Y-96718095D01*
X224882500Y-96839047D01*
X224701071Y-96899523D01*
X224398690Y-96899523D01*
X225668690Y-96899523D02*
X225668690Y-96052857D01*
X225668690Y-95629523D02*
X225608214Y-95690000D01*
X225668690Y-95750476D01*
X225729166Y-95690000D01*
X225668690Y-95629523D01*
X225668690Y-95750476D01*
X226817738Y-96052857D02*
X226817738Y-97080952D01*
X226757261Y-97201904D01*
X226696785Y-97262380D01*
X226575833Y-97322857D01*
X226394404Y-97322857D01*
X226273452Y-97262380D01*
X226817738Y-96839047D02*
X226696785Y-96899523D01*
X226454880Y-96899523D01*
X226333928Y-96839047D01*
X226273452Y-96778571D01*
X226212976Y-96657619D01*
X226212976Y-96294761D01*
X226273452Y-96173809D01*
X226333928Y-96113333D01*
X226454880Y-96052857D01*
X226696785Y-96052857D01*
X226817738Y-96113333D01*
X227422500Y-96899523D02*
X227422500Y-96052857D01*
X227422500Y-95629523D02*
X227362023Y-95690000D01*
X227422500Y-95750476D01*
X227482976Y-95690000D01*
X227422500Y-95629523D01*
X227422500Y-95750476D01*
X227845833Y-96052857D02*
X228329642Y-96052857D01*
X228027261Y-95629523D02*
X228027261Y-96718095D01*
X228087738Y-96839047D01*
X228208690Y-96899523D01*
X228329642Y-96899523D01*
X229297261Y-96899523D02*
X229297261Y-96234285D01*
X229236785Y-96113333D01*
X229115833Y-96052857D01*
X228873928Y-96052857D01*
X228752976Y-96113333D01*
X229297261Y-96839047D02*
X229176309Y-96899523D01*
X228873928Y-96899523D01*
X228752976Y-96839047D01*
X228692500Y-96718095D01*
X228692500Y-96597142D01*
X228752976Y-96476190D01*
X228873928Y-96415714D01*
X229176309Y-96415714D01*
X229297261Y-96355238D01*
X230083452Y-96899523D02*
X229962500Y-96839047D01*
X229902023Y-96718095D01*
X229902023Y-95629523D01*
X231958214Y-96234285D02*
X232139642Y-96294761D01*
X232200119Y-96355238D01*
X232260595Y-96476190D01*
X232260595Y-96657619D01*
X232200119Y-96778571D01*
X232139642Y-96839047D01*
X232018690Y-96899523D01*
X231534880Y-96899523D01*
X231534880Y-95629523D01*
X231958214Y-95629523D01*
X232079166Y-95690000D01*
X232139642Y-95750476D01*
X232200119Y-95871428D01*
X232200119Y-95992380D01*
X232139642Y-96113333D01*
X232079166Y-96173809D01*
X231958214Y-96234285D01*
X231534880Y-96234285D01*
X233349166Y-96052857D02*
X233349166Y-96899523D01*
X232804880Y-96052857D02*
X232804880Y-96718095D01*
X232865357Y-96839047D01*
X232986309Y-96899523D01*
X233167738Y-96899523D01*
X233288690Y-96839047D01*
X233349166Y-96778571D01*
X233772500Y-96052857D02*
X234256309Y-96052857D01*
X233953928Y-96899523D02*
X233953928Y-95810952D01*
X234014404Y-95690000D01*
X234135357Y-95629523D01*
X234256309Y-95629523D01*
X234498214Y-96052857D02*
X234982023Y-96052857D01*
X234679642Y-96899523D02*
X234679642Y-95810952D01*
X234740119Y-95690000D01*
X234861071Y-95629523D01*
X234982023Y-95629523D01*
X235889166Y-96839047D02*
X235768214Y-96899523D01*
X235526309Y-96899523D01*
X235405357Y-96839047D01*
X235344880Y-96718095D01*
X235344880Y-96234285D01*
X235405357Y-96113333D01*
X235526309Y-96052857D01*
X235768214Y-96052857D01*
X235889166Y-96113333D01*
X235949642Y-96234285D01*
X235949642Y-96355238D01*
X235344880Y-96476190D01*
X236493928Y-96899523D02*
X236493928Y-96052857D01*
X236493928Y-96294761D02*
X236554404Y-96173809D01*
X236614880Y-96113333D01*
X236735833Y-96052857D01*
X236856785Y-96052857D01*
X238671071Y-96234285D02*
X238852500Y-96294761D01*
X238912976Y-96355238D01*
X238973452Y-96476190D01*
X238973452Y-96657619D01*
X238912976Y-96778571D01*
X238852500Y-96839047D01*
X238731547Y-96899523D01*
X238247738Y-96899523D01*
X238247738Y-95629523D01*
X238671071Y-95629523D01*
X238792023Y-95690000D01*
X238852500Y-95750476D01*
X238912976Y-95871428D01*
X238912976Y-95992380D01*
X238852500Y-96113333D01*
X238792023Y-96173809D01*
X238671071Y-96234285D01*
X238247738Y-96234285D01*
X239699166Y-96899523D02*
X239578214Y-96839047D01*
X239517738Y-96778571D01*
X239457261Y-96657619D01*
X239457261Y-96294761D01*
X239517738Y-96173809D01*
X239578214Y-96113333D01*
X239699166Y-96052857D01*
X239880595Y-96052857D01*
X240001547Y-96113333D01*
X240062023Y-96173809D01*
X240122500Y-96294761D01*
X240122500Y-96657619D01*
X240062023Y-96778571D01*
X240001547Y-96839047D01*
X239880595Y-96899523D01*
X239699166Y-96899523D01*
X240545833Y-96899523D02*
X241211071Y-96052857D01*
X240545833Y-96052857D02*
X241211071Y-96899523D01*
X235102976Y-98954523D02*
X234679642Y-98349761D01*
X234377261Y-98954523D02*
X234377261Y-97684523D01*
X234861071Y-97684523D01*
X234982023Y-97745000D01*
X235042500Y-97805476D01*
X235102976Y-97926428D01*
X235102976Y-98107857D01*
X235042500Y-98228809D01*
X234982023Y-98289285D01*
X234861071Y-98349761D01*
X234377261Y-98349761D01*
X236131071Y-98894047D02*
X236010119Y-98954523D01*
X235768214Y-98954523D01*
X235647261Y-98894047D01*
X235586785Y-98773095D01*
X235586785Y-98289285D01*
X235647261Y-98168333D01*
X235768214Y-98107857D01*
X236010119Y-98107857D01*
X236131071Y-98168333D01*
X236191547Y-98289285D01*
X236191547Y-98410238D01*
X235586785Y-98531190D01*
X236614880Y-98107857D02*
X236917261Y-98954523D01*
X237219642Y-98107857D01*
X239336309Y-98954523D02*
X238610595Y-98954523D01*
X238973452Y-98954523D02*
X238973452Y-97684523D01*
X238852500Y-97865952D01*
X238731547Y-97986904D01*
X238610595Y-98047380D01*
X239880595Y-98833571D02*
X239941071Y-98894047D01*
X239880595Y-98954523D01*
X239820119Y-98894047D01*
X239880595Y-98833571D01*
X239880595Y-98954523D01*
X240727261Y-97684523D02*
X240848214Y-97684523D01*
X240969166Y-97745000D01*
X241029642Y-97805476D01*
X241090119Y-97926428D01*
X241150595Y-98168333D01*
X241150595Y-98470714D01*
X241090119Y-98712619D01*
X241029642Y-98833571D01*
X240969166Y-98894047D01*
X240848214Y-98954523D01*
X240727261Y-98954523D01*
X240606309Y-98894047D01*
X240545833Y-98833571D01*
X240485357Y-98712619D01*
X240424880Y-98470714D01*
X240424880Y-98168333D01*
X240485357Y-97926428D01*
X240545833Y-97805476D01*
X240606309Y-97745000D01*
X240727261Y-97684523D01*
X230204404Y-100162857D02*
X230204404Y-101190952D01*
X230143928Y-101311904D01*
X230083452Y-101372380D01*
X229962500Y-101432857D01*
X229781071Y-101432857D01*
X229660119Y-101372380D01*
X230204404Y-100949047D02*
X230083452Y-101009523D01*
X229841547Y-101009523D01*
X229720595Y-100949047D01*
X229660119Y-100888571D01*
X229599642Y-100767619D01*
X229599642Y-100404761D01*
X229660119Y-100283809D01*
X229720595Y-100223333D01*
X229841547Y-100162857D01*
X230083452Y-100162857D01*
X230204404Y-100223333D01*
X230809166Y-101009523D02*
X230809166Y-100162857D01*
X230809166Y-99739523D02*
X230748690Y-99800000D01*
X230809166Y-99860476D01*
X230869642Y-99800000D01*
X230809166Y-99739523D01*
X230809166Y-99860476D01*
X231232500Y-100162857D02*
X231716309Y-100162857D01*
X231413928Y-99739523D02*
X231413928Y-100828095D01*
X231474404Y-100949047D01*
X231595357Y-101009523D01*
X231716309Y-101009523D01*
X232139642Y-100888571D02*
X232200119Y-100949047D01*
X232139642Y-101009523D01*
X232079166Y-100949047D01*
X232139642Y-100888571D01*
X232139642Y-101009523D01*
X232744404Y-101009523D02*
X232744404Y-100162857D01*
X232744404Y-99739523D02*
X232683928Y-99800000D01*
X232744404Y-99860476D01*
X232804880Y-99800000D01*
X232744404Y-99739523D01*
X232744404Y-99860476D01*
X233530595Y-101009523D02*
X233409642Y-100949047D01*
X233349166Y-100888571D01*
X233288690Y-100767619D01*
X233288690Y-100404761D01*
X233349166Y-100283809D01*
X233409642Y-100223333D01*
X233530595Y-100162857D01*
X233712023Y-100162857D01*
X233832976Y-100223333D01*
X233893452Y-100283809D01*
X233953928Y-100404761D01*
X233953928Y-100767619D01*
X233893452Y-100888571D01*
X233832976Y-100949047D01*
X233712023Y-101009523D01*
X233530595Y-101009523D01*
X235405357Y-99679047D02*
X234316785Y-101311904D01*
X236191547Y-99739523D02*
X236191547Y-100646666D01*
X236131071Y-100828095D01*
X236010119Y-100949047D01*
X235828690Y-101009523D01*
X235707738Y-101009523D01*
X236675357Y-100162857D02*
X236917261Y-101009523D01*
X237159166Y-100404761D01*
X237401071Y-101009523D01*
X237642976Y-100162857D01*
X238792023Y-99800000D02*
X238671071Y-99739523D01*
X238489642Y-99739523D01*
X238308214Y-99800000D01*
X238187261Y-99920952D01*
X238126785Y-100041904D01*
X238066309Y-100283809D01*
X238066309Y-100465238D01*
X238126785Y-100707142D01*
X238187261Y-100828095D01*
X238308214Y-100949047D01*
X238489642Y-101009523D01*
X238610595Y-101009523D01*
X238792023Y-100949047D01*
X238852500Y-100888571D01*
X238852500Y-100465238D01*
X238610595Y-100465238D01*
X239396785Y-99739523D02*
X239396785Y-100767619D01*
X239457261Y-100888571D01*
X239517738Y-100949047D01*
X239638690Y-101009523D01*
X239880595Y-101009523D01*
X240001547Y-100949047D01*
X240062023Y-100888571D01*
X240122500Y-100767619D01*
X240122500Y-99739523D01*
X240545833Y-99739523D02*
X241271547Y-99739523D01*
X240908690Y-101009523D02*
X240908690Y-99739523D01*
X235202380Y-112059523D02*
X236202380Y-111726190D01*
X235202380Y-111392857D01*
X236202380Y-111059523D02*
X235202380Y-111059523D01*
X235202380Y-110821428D01*
X235250000Y-110678571D01*
X235345238Y-110583333D01*
X235440476Y-110535714D01*
X235630952Y-110488095D01*
X235773809Y-110488095D01*
X235964285Y-110535714D01*
X236059523Y-110583333D01*
X236154761Y-110678571D01*
X236202380Y-110821428D01*
X236202380Y-111059523D01*
X236202380Y-110059523D02*
X235202380Y-110059523D01*
X235202380Y-109821428D01*
X235250000Y-109678571D01*
X235345238Y-109583333D01*
X235440476Y-109535714D01*
X235630952Y-109488095D01*
X235773809Y-109488095D01*
X235964285Y-109535714D01*
X236059523Y-109583333D01*
X236154761Y-109678571D01*
X236202380Y-109821428D01*
X236202380Y-110059523D01*
X235297619Y-109107142D02*
X235250000Y-109059523D01*
X235202380Y-108964285D01*
X235202380Y-108726190D01*
X235250000Y-108630952D01*
X235297619Y-108583333D01*
X235392857Y-108535714D01*
X235488095Y-108535714D01*
X235630952Y-108583333D01*
X236202380Y-109154761D01*
X236202380Y-108535714D01*
X243250000Y-111488095D02*
X243202380Y-111583333D01*
X243202380Y-111726190D01*
X243250000Y-111869047D01*
X243345238Y-111964285D01*
X243440476Y-112011904D01*
X243630952Y-112059523D01*
X243773809Y-112059523D01*
X243964285Y-112011904D01*
X244059523Y-111964285D01*
X244154761Y-111869047D01*
X244202380Y-111726190D01*
X244202380Y-111630952D01*
X244154761Y-111488095D01*
X244107142Y-111440476D01*
X243773809Y-111440476D01*
X243773809Y-111630952D01*
X244202380Y-111011904D02*
X243202380Y-111011904D01*
X244202380Y-110440476D01*
X243202380Y-110440476D01*
X244202380Y-109964285D02*
X243202380Y-109964285D01*
X243202380Y-109726190D01*
X243250000Y-109583333D01*
X243345238Y-109488095D01*
X243440476Y-109440476D01*
X243630952Y-109392857D01*
X243773809Y-109392857D01*
X243964285Y-109440476D01*
X244059523Y-109488095D01*
X244154761Y-109583333D01*
X244202380Y-109726190D01*
X244202380Y-109964285D01*
X243297619Y-109011904D02*
X243250000Y-108964285D01*
X243202380Y-108869047D01*
X243202380Y-108630952D01*
X243250000Y-108535714D01*
X243297619Y-108488095D01*
X243392857Y-108440476D01*
X243488095Y-108440476D01*
X243630952Y-108488095D01*
X244202380Y-109059523D01*
X244202380Y-108440476D01*
X50750000Y-111488095D02*
X50702380Y-111583333D01*
X50702380Y-111726190D01*
X50750000Y-111869047D01*
X50845238Y-111964285D01*
X50940476Y-112011904D01*
X51130952Y-112059523D01*
X51273809Y-112059523D01*
X51464285Y-112011904D01*
X51559523Y-111964285D01*
X51654761Y-111869047D01*
X51702380Y-111726190D01*
X51702380Y-111630952D01*
X51654761Y-111488095D01*
X51607142Y-111440476D01*
X51273809Y-111440476D01*
X51273809Y-111630952D01*
X51702380Y-111011904D02*
X50702380Y-111011904D01*
X51702380Y-110440476D01*
X50702380Y-110440476D01*
X51702380Y-109964285D02*
X50702380Y-109964285D01*
X50702380Y-109726190D01*
X50750000Y-109583333D01*
X50845238Y-109488095D01*
X50940476Y-109440476D01*
X51130952Y-109392857D01*
X51273809Y-109392857D01*
X51464285Y-109440476D01*
X51559523Y-109488095D01*
X51654761Y-109583333D01*
X51702380Y-109726190D01*
X51702380Y-109964285D01*
X51702380Y-108440476D02*
X51702380Y-109011904D01*
X51702380Y-108726190D02*
X50702380Y-108726190D01*
X50845238Y-108821428D01*
X50940476Y-108916666D01*
X50988095Y-109011904D01*
X58702380Y-111809523D02*
X59702380Y-111476190D01*
X58702380Y-111142857D01*
X59702380Y-110809523D02*
X58702380Y-110809523D01*
X58702380Y-110571428D01*
X58750000Y-110428571D01*
X58845238Y-110333333D01*
X58940476Y-110285714D01*
X59130952Y-110238095D01*
X59273809Y-110238095D01*
X59464285Y-110285714D01*
X59559523Y-110333333D01*
X59654761Y-110428571D01*
X59702380Y-110571428D01*
X59702380Y-110809523D01*
X59702380Y-109809523D02*
X58702380Y-109809523D01*
X58702380Y-109571428D01*
X58750000Y-109428571D01*
X58845238Y-109333333D01*
X58940476Y-109285714D01*
X59130952Y-109238095D01*
X59273809Y-109238095D01*
X59464285Y-109285714D01*
X59559523Y-109333333D01*
X59654761Y-109428571D01*
X59702380Y-109571428D01*
X59702380Y-109809523D01*
X59702380Y-108285714D02*
X59702380Y-108857142D01*
X59702380Y-108571428D02*
X58702380Y-108571428D01*
X58845238Y-108666666D01*
X58940476Y-108761904D01*
X58988095Y-108857142D01*
D11*
G36*
X96600000Y-111250000D02*
G01*
X96000000Y-110750000D01*
X96600000Y-110250000D01*
X96600000Y-111250000D01*
G37*
X96600000Y-111250000D02*
X96000000Y-110750000D01*
X96600000Y-110250000D01*
X96600000Y-111250000D01*
D10*
X97511904Y-110250000D02*
X97416666Y-110202380D01*
X97273809Y-110202380D01*
X97130952Y-110250000D01*
X97035714Y-110345238D01*
X96988095Y-110440476D01*
X96940476Y-110630952D01*
X96940476Y-110773809D01*
X96988095Y-110964285D01*
X97035714Y-111059523D01*
X97130952Y-111154761D01*
X97273809Y-111202380D01*
X97369047Y-111202380D01*
X97511904Y-111154761D01*
X97559523Y-111107142D01*
X97559523Y-110773809D01*
X97369047Y-110773809D01*
X97988095Y-111202380D02*
X97988095Y-110202380D01*
X98559523Y-111202380D01*
X98559523Y-110202380D01*
X99035714Y-111202380D02*
X99035714Y-110202380D01*
X99273809Y-110202380D01*
X99416666Y-110250000D01*
X99511904Y-110345238D01*
X99559523Y-110440476D01*
X99607142Y-110630952D01*
X99607142Y-110773809D01*
X99559523Y-110964285D01*
X99511904Y-111059523D01*
X99416666Y-111154761D01*
X99273809Y-111202380D01*
X99035714Y-111202380D01*
X100559523Y-111202380D02*
X99988095Y-111202380D01*
X100273809Y-111202380D02*
X100273809Y-110202380D01*
X100178571Y-110345238D01*
X100083333Y-110440476D01*
X99988095Y-110488095D01*
X97011904Y-108452380D02*
X97011904Y-107452380D01*
X97392857Y-107452380D01*
X97488095Y-107500000D01*
X97535714Y-107547619D01*
X97583333Y-107642857D01*
X97583333Y-107785714D01*
X97535714Y-107880952D01*
X97488095Y-107928571D01*
X97392857Y-107976190D01*
X97011904Y-107976190D01*
X97916666Y-107452380D02*
X98583333Y-107452380D01*
X98154761Y-108452380D01*
D11*
G36*
X96600000Y-108500000D02*
G01*
X96000000Y-108000000D01*
X96600000Y-107500000D01*
X96600000Y-108500000D01*
G37*
X96600000Y-108500000D02*
X96000000Y-108000000D01*
X96600000Y-107500000D01*
X96600000Y-108500000D01*
G36*
X66500000Y-108000000D02*
G01*
X65900000Y-108500000D01*
X65900000Y-107500000D01*
X66500000Y-108000000D01*
G37*
X66500000Y-108000000D02*
X65900000Y-108500000D01*
X65900000Y-107500000D01*
X66500000Y-108000000D01*
D10*
X64011904Y-108452380D02*
X64011904Y-107452380D01*
X64392857Y-107452380D01*
X64488095Y-107500000D01*
X64535714Y-107547619D01*
X64583333Y-107642857D01*
X64583333Y-107785714D01*
X64535714Y-107880952D01*
X64488095Y-107928571D01*
X64392857Y-107976190D01*
X64011904Y-107976190D01*
X65202380Y-107452380D02*
X65297619Y-107452380D01*
X65392857Y-107500000D01*
X65440476Y-107547619D01*
X65488095Y-107642857D01*
X65535714Y-107833333D01*
X65535714Y-108071428D01*
X65488095Y-108261904D01*
X65440476Y-108357142D01*
X65392857Y-108404761D01*
X65297619Y-108452380D01*
X65202380Y-108452380D01*
X65107142Y-108404761D01*
X65059523Y-108357142D01*
X65011904Y-108261904D01*
X64964285Y-108071428D01*
X64964285Y-107833333D01*
X65011904Y-107642857D01*
X65059523Y-107547619D01*
X65107142Y-107500000D01*
X65202380Y-107452380D01*
D12*
%TO.C,G\u002A\u002A\u002A*%
G36*
X237196910Y-89431619D02*
G01*
X237310400Y-89482158D01*
X237468833Y-89564288D01*
X237492701Y-90500978D01*
X237354714Y-90599233D01*
X237189077Y-90677505D01*
X236987740Y-90715746D01*
X236781466Y-90712894D01*
X236601014Y-90667888D01*
X236527993Y-90627760D01*
X236389989Y-90480564D01*
X236297658Y-90280983D01*
X236262396Y-90054046D01*
X236262333Y-90044135D01*
X236297773Y-89806702D01*
X236396510Y-89615274D01*
X236547167Y-89475953D01*
X236738370Y-89394837D01*
X236958743Y-89378026D01*
X237196910Y-89431619D01*
G37*
X237196910Y-89431619D02*
X237310400Y-89482158D01*
X237468833Y-89564288D01*
X237492701Y-90500978D01*
X237354714Y-90599233D01*
X237189077Y-90677505D01*
X236987740Y-90715746D01*
X236781466Y-90712894D01*
X236601014Y-90667888D01*
X236527993Y-90627760D01*
X236389989Y-90480564D01*
X236297658Y-90280983D01*
X236262396Y-90054046D01*
X236262333Y-90044135D01*
X236297773Y-89806702D01*
X236396510Y-89615274D01*
X236547167Y-89475953D01*
X236738370Y-89394837D01*
X236958743Y-89378026D01*
X237196910Y-89431619D01*
G36*
X241215333Y-94657333D02*
G01*
X232748667Y-94657333D01*
X232748667Y-93102653D01*
X234146342Y-93102653D01*
X234284457Y-93255576D01*
X234399767Y-93383682D01*
X234516874Y-93514421D01*
X234545117Y-93546083D01*
X234645227Y-93645255D01*
X234722524Y-93675428D01*
X234801018Y-93638141D01*
X234874725Y-93567250D01*
X234939952Y-93490436D01*
X234993402Y-93405493D01*
X235036398Y-93303264D01*
X235070261Y-93174596D01*
X235096313Y-93010331D01*
X235115878Y-92801316D01*
X235130277Y-92538394D01*
X235140833Y-92212411D01*
X235148867Y-91814210D01*
X235151394Y-91651667D01*
X235155477Y-91269874D01*
X235157079Y-90867340D01*
X235156305Y-90464984D01*
X235153258Y-90083728D01*
X235151052Y-89940170D01*
X235593587Y-89940170D01*
X235617034Y-90292970D01*
X235650214Y-90446856D01*
X235767067Y-90756141D01*
X235941948Y-91024509D01*
X236164004Y-91240279D01*
X236422382Y-91391771D01*
X236576300Y-91443526D01*
X236756584Y-91470341D01*
X236975524Y-91466400D01*
X237250307Y-91431046D01*
X237347852Y-91413911D01*
X237480871Y-91389397D01*
X237501353Y-92208448D01*
X237512075Y-92543144D01*
X237526121Y-92804248D01*
X237544456Y-93002801D01*
X237568044Y-93149846D01*
X237591259Y-93237555D01*
X237655631Y-93384953D01*
X237741795Y-93521984D01*
X237833669Y-93627654D01*
X237915174Y-93680970D01*
X237932972Y-93683667D01*
X237980917Y-93655295D01*
X238072152Y-93579018D01*
X238191421Y-93468096D01*
X238268479Y-93392057D01*
X238557853Y-93100448D01*
X238466205Y-92976487D01*
X238445573Y-92947227D01*
X238428308Y-92915202D01*
X238414122Y-92873106D01*
X238402729Y-92813634D01*
X238393842Y-92729480D01*
X238387172Y-92613338D01*
X238382433Y-92457902D01*
X238379338Y-92255867D01*
X238377599Y-91999927D01*
X238376930Y-91682775D01*
X238377043Y-91297107D01*
X238377650Y-90835616D01*
X238377814Y-90728097D01*
X238380999Y-88650617D01*
X238840503Y-88650617D01*
X238855285Y-90077059D01*
X238861765Y-90548635D01*
X238870569Y-90938451D01*
X238881671Y-91245872D01*
X238895046Y-91470264D01*
X238910667Y-91610993D01*
X238919985Y-91651850D01*
X238972245Y-91761029D01*
X239051898Y-91880510D01*
X239140542Y-91987346D01*
X239219776Y-92058590D01*
X239259308Y-92075000D01*
X239305526Y-92045852D01*
X239388685Y-91969684D01*
X239483944Y-91870333D01*
X239629574Y-91710865D01*
X239726653Y-91601870D01*
X239781999Y-91529763D01*
X239802428Y-91480962D01*
X239794757Y-91441885D01*
X239765801Y-91398948D01*
X239738788Y-91362525D01*
X239713839Y-91323977D01*
X239693945Y-91279689D01*
X239678431Y-91219993D01*
X239666625Y-91135219D01*
X239657850Y-91015697D01*
X239651435Y-90851757D01*
X239646704Y-90633730D01*
X239642983Y-90351947D01*
X239639599Y-89996737D01*
X239639035Y-89931501D01*
X239627833Y-88624833D01*
X239373833Y-88611675D01*
X239208428Y-88608793D01*
X239054902Y-88615453D01*
X238980168Y-88624567D01*
X238840503Y-88650617D01*
X238380999Y-88650617D01*
X238381071Y-88603667D01*
X237958806Y-88603667D01*
X237757725Y-88606099D01*
X237625575Y-88614944D01*
X237546719Y-88632521D01*
X237505520Y-88661149D01*
X237498311Y-88671978D01*
X237458184Y-88716031D01*
X237396812Y-88705100D01*
X237358807Y-88686089D01*
X237266320Y-88658916D01*
X237120533Y-88639467D01*
X236952734Y-88631891D01*
X236950047Y-88631889D01*
X236648009Y-88660870D01*
X236381112Y-88753069D01*
X236131240Y-88916368D01*
X235979471Y-89054231D01*
X235776325Y-89314372D01*
X235647191Y-89611828D01*
X235593587Y-89940170D01*
X235151052Y-89940170D01*
X235148043Y-89744494D01*
X235140765Y-89468202D01*
X235140455Y-89459390D01*
X235109910Y-88600614D01*
X234723038Y-88612724D01*
X234336167Y-88624833D01*
X234315000Y-90720333D01*
X234309921Y-91200692D01*
X234305010Y-91603737D01*
X234299957Y-91936822D01*
X234294448Y-92207297D01*
X234288173Y-92422516D01*
X234280820Y-92589829D01*
X234272078Y-92716590D01*
X234261634Y-92810151D01*
X234249176Y-92877863D01*
X234234395Y-92927079D01*
X234220088Y-92959243D01*
X234146342Y-93102653D01*
X232748667Y-93102653D01*
X232748667Y-87907351D01*
X234292802Y-87907351D01*
X234306236Y-88064412D01*
X234382135Y-88209589D01*
X234499281Y-88310451D01*
X234672755Y-88381541D01*
X234840502Y-88372417D01*
X234982613Y-88307272D01*
X235088574Y-88222571D01*
X235164095Y-88127412D01*
X235169325Y-88116930D01*
X235227256Y-88038581D01*
X235285215Y-88011000D01*
X235359086Y-87991981D01*
X235475187Y-87943231D01*
X235556469Y-87902600D01*
X235688293Y-87843421D01*
X235803712Y-87810128D01*
X235851559Y-87807350D01*
X235930115Y-87852567D01*
X236033331Y-87962414D01*
X236116082Y-88074500D01*
X236214780Y-88211154D01*
X236289370Y-88288961D01*
X236357248Y-88322872D01*
X236411635Y-88328500D01*
X236522347Y-88295473D01*
X236624642Y-88192951D01*
X236722291Y-88015768D01*
X236812193Y-87779591D01*
X236884591Y-87598231D01*
X236953365Y-87499172D01*
X237017751Y-87483244D01*
X237055593Y-87516099D01*
X237088388Y-87578022D01*
X237140810Y-87695590D01*
X237202457Y-87845287D01*
X237212902Y-87871718D01*
X237321216Y-88110106D01*
X237427700Y-88264700D01*
X237535157Y-88336246D01*
X237646395Y-88325488D01*
X237764217Y-88233171D01*
X237891429Y-88060042D01*
X237895703Y-88053149D01*
X238005858Y-87896418D01*
X238106890Y-87814690D01*
X238217399Y-87802970D01*
X238355984Y-87856263D01*
X238442500Y-87906271D01*
X238565538Y-87969867D01*
X238675492Y-88006928D01*
X238707083Y-88010783D01*
X238783308Y-88034315D01*
X238802333Y-88072576D01*
X238835794Y-88153663D01*
X238918705Y-88247916D01*
X239024863Y-88330491D01*
X239121325Y-88374990D01*
X239288928Y-88379185D01*
X239450469Y-88319877D01*
X239584861Y-88212415D01*
X239671013Y-88072145D01*
X239691333Y-87960176D01*
X239654002Y-87769681D01*
X239550683Y-87621649D01*
X239394391Y-87529281D01*
X239241959Y-87504346D01*
X239055177Y-87539200D01*
X238900422Y-87637194D01*
X238800165Y-87783946D01*
X238798535Y-87788155D01*
X238755362Y-87861522D01*
X238685981Y-87872909D01*
X238642947Y-87863965D01*
X238532492Y-87821813D01*
X238463589Y-87777815D01*
X238376363Y-87719858D01*
X238283505Y-87676264D01*
X238142100Y-87656752D01*
X238012664Y-87714438D01*
X237888014Y-87852807D01*
X237872547Y-87875743D01*
X237760553Y-88034425D01*
X237661956Y-88152060D01*
X237588435Y-88215403D01*
X237566615Y-88222667D01*
X237535457Y-88186728D01*
X237477380Y-88089011D01*
X237400833Y-87944664D01*
X237318712Y-87778167D01*
X237223479Y-87583621D01*
X237152927Y-87454385D01*
X237098306Y-87377980D01*
X237050866Y-87341927D01*
X237007068Y-87333667D01*
X236943054Y-87340733D01*
X236888957Y-87370327D01*
X236835574Y-87435045D01*
X236773704Y-87547480D01*
X236694144Y-87720227D01*
X236648829Y-87823973D01*
X236574673Y-87986291D01*
X236508003Y-88116339D01*
X236458396Y-88196184D01*
X236441435Y-88212355D01*
X236395254Y-88188533D01*
X236317831Y-88111437D01*
X236225770Y-87997641D01*
X236224070Y-87995343D01*
X236073595Y-87809471D01*
X235944377Y-87696683D01*
X235823558Y-87652574D01*
X235698278Y-87672740D01*
X235555676Y-87752776D01*
X235542667Y-87761968D01*
X235424948Y-87827888D01*
X235324408Y-87864424D01*
X235236932Y-87870918D01*
X235192439Y-87822481D01*
X235181876Y-87792337D01*
X235097697Y-87651095D01*
X234955879Y-87550205D01*
X234779798Y-87505413D01*
X234754626Y-87504522D01*
X234572742Y-87536992D01*
X234431508Y-87626429D01*
X234336377Y-87755619D01*
X234292802Y-87907351D01*
X232748667Y-87907351D01*
X232748667Y-86190667D01*
X241215333Y-86190667D01*
X241215333Y-94657333D01*
G37*
X241215333Y-94657333D02*
X232748667Y-94657333D01*
X232748667Y-93102653D01*
X234146342Y-93102653D01*
X234284457Y-93255576D01*
X234399767Y-93383682D01*
X234516874Y-93514421D01*
X234545117Y-93546083D01*
X234645227Y-93645255D01*
X234722524Y-93675428D01*
X234801018Y-93638141D01*
X234874725Y-93567250D01*
X234939952Y-93490436D01*
X234993402Y-93405493D01*
X235036398Y-93303264D01*
X235070261Y-93174596D01*
X235096313Y-93010331D01*
X235115878Y-92801316D01*
X235130277Y-92538394D01*
X235140833Y-92212411D01*
X235148867Y-91814210D01*
X235151394Y-91651667D01*
X235155477Y-91269874D01*
X235157079Y-90867340D01*
X235156305Y-90464984D01*
X235153258Y-90083728D01*
X235151052Y-89940170D01*
X235593587Y-89940170D01*
X235617034Y-90292970D01*
X235650214Y-90446856D01*
X235767067Y-90756141D01*
X235941948Y-91024509D01*
X236164004Y-91240279D01*
X236422382Y-91391771D01*
X236576300Y-91443526D01*
X236756584Y-91470341D01*
X236975524Y-91466400D01*
X237250307Y-91431046D01*
X237347852Y-91413911D01*
X237480871Y-91389397D01*
X237501353Y-92208448D01*
X237512075Y-92543144D01*
X237526121Y-92804248D01*
X237544456Y-93002801D01*
X237568044Y-93149846D01*
X237591259Y-93237555D01*
X237655631Y-93384953D01*
X237741795Y-93521984D01*
X237833669Y-93627654D01*
X237915174Y-93680970D01*
X237932972Y-93683667D01*
X237980917Y-93655295D01*
X238072152Y-93579018D01*
X238191421Y-93468096D01*
X238268479Y-93392057D01*
X238557853Y-93100448D01*
X238466205Y-92976487D01*
X238445573Y-92947227D01*
X238428308Y-92915202D01*
X238414122Y-92873106D01*
X238402729Y-92813634D01*
X238393842Y-92729480D01*
X238387172Y-92613338D01*
X238382433Y-92457902D01*
X238379338Y-92255867D01*
X238377599Y-91999927D01*
X238376930Y-91682775D01*
X238377043Y-91297107D01*
X238377650Y-90835616D01*
X238377814Y-90728097D01*
X238380999Y-88650617D01*
X238840503Y-88650617D01*
X238855285Y-90077059D01*
X238861765Y-90548635D01*
X238870569Y-90938451D01*
X238881671Y-91245872D01*
X238895046Y-91470264D01*
X238910667Y-91610993D01*
X238919985Y-91651850D01*
X238972245Y-91761029D01*
X239051898Y-91880510D01*
X239140542Y-91987346D01*
X239219776Y-92058590D01*
X239259308Y-92075000D01*
X239305526Y-92045852D01*
X239388685Y-91969684D01*
X239483944Y-91870333D01*
X239629574Y-91710865D01*
X239726653Y-91601870D01*
X239781999Y-91529763D01*
X239802428Y-91480962D01*
X239794757Y-91441885D01*
X239765801Y-91398948D01*
X239738788Y-91362525D01*
X239713839Y-91323977D01*
X239693945Y-91279689D01*
X239678431Y-91219993D01*
X239666625Y-91135219D01*
X239657850Y-91015697D01*
X239651435Y-90851757D01*
X239646704Y-90633730D01*
X239642983Y-90351947D01*
X239639599Y-89996737D01*
X239639035Y-89931501D01*
X239627833Y-88624833D01*
X239373833Y-88611675D01*
X239208428Y-88608793D01*
X239054902Y-88615453D01*
X238980168Y-88624567D01*
X238840503Y-88650617D01*
X238380999Y-88650617D01*
X238381071Y-88603667D01*
X237958806Y-88603667D01*
X237757725Y-88606099D01*
X237625575Y-88614944D01*
X237546719Y-88632521D01*
X237505520Y-88661149D01*
X237498311Y-88671978D01*
X237458184Y-88716031D01*
X237396812Y-88705100D01*
X237358807Y-88686089D01*
X237266320Y-88658916D01*
X237120533Y-88639467D01*
X236952734Y-88631891D01*
X236950047Y-88631889D01*
X236648009Y-88660870D01*
X236381112Y-88753069D01*
X236131240Y-88916368D01*
X235979471Y-89054231D01*
X235776325Y-89314372D01*
X235647191Y-89611828D01*
X235593587Y-89940170D01*
X235151052Y-89940170D01*
X235148043Y-89744494D01*
X235140765Y-89468202D01*
X235140455Y-89459390D01*
X235109910Y-88600614D01*
X234723038Y-88612724D01*
X234336167Y-88624833D01*
X234315000Y-90720333D01*
X234309921Y-91200692D01*
X234305010Y-91603737D01*
X234299957Y-91936822D01*
X234294448Y-92207297D01*
X234288173Y-92422516D01*
X234280820Y-92589829D01*
X234272078Y-92716590D01*
X234261634Y-92810151D01*
X234249176Y-92877863D01*
X234234395Y-92927079D01*
X234220088Y-92959243D01*
X234146342Y-93102653D01*
X232748667Y-93102653D01*
X232748667Y-87907351D01*
X234292802Y-87907351D01*
X234306236Y-88064412D01*
X234382135Y-88209589D01*
X234499281Y-88310451D01*
X234672755Y-88381541D01*
X234840502Y-88372417D01*
X234982613Y-88307272D01*
X235088574Y-88222571D01*
X235164095Y-88127412D01*
X235169325Y-88116930D01*
X235227256Y-88038581D01*
X235285215Y-88011000D01*
X235359086Y-87991981D01*
X235475187Y-87943231D01*
X235556469Y-87902600D01*
X235688293Y-87843421D01*
X235803712Y-87810128D01*
X235851559Y-87807350D01*
X235930115Y-87852567D01*
X236033331Y-87962414D01*
X236116082Y-88074500D01*
X236214780Y-88211154D01*
X236289370Y-88288961D01*
X236357248Y-88322872D01*
X236411635Y-88328500D01*
X236522347Y-88295473D01*
X236624642Y-88192951D01*
X236722291Y-88015768D01*
X236812193Y-87779591D01*
X236884591Y-87598231D01*
X236953365Y-87499172D01*
X237017751Y-87483244D01*
X237055593Y-87516099D01*
X237088388Y-87578022D01*
X237140810Y-87695590D01*
X237202457Y-87845287D01*
X237212902Y-87871718D01*
X237321216Y-88110106D01*
X237427700Y-88264700D01*
X237535157Y-88336246D01*
X237646395Y-88325488D01*
X237764217Y-88233171D01*
X237891429Y-88060042D01*
X237895703Y-88053149D01*
X238005858Y-87896418D01*
X238106890Y-87814690D01*
X238217399Y-87802970D01*
X238355984Y-87856263D01*
X238442500Y-87906271D01*
X238565538Y-87969867D01*
X238675492Y-88006928D01*
X238707083Y-88010783D01*
X238783308Y-88034315D01*
X238802333Y-88072576D01*
X238835794Y-88153663D01*
X238918705Y-88247916D01*
X239024863Y-88330491D01*
X239121325Y-88374990D01*
X239288928Y-88379185D01*
X239450469Y-88319877D01*
X239584861Y-88212415D01*
X239671013Y-88072145D01*
X239691333Y-87960176D01*
X239654002Y-87769681D01*
X239550683Y-87621649D01*
X239394391Y-87529281D01*
X239241959Y-87504346D01*
X239055177Y-87539200D01*
X238900422Y-87637194D01*
X238800165Y-87783946D01*
X238798535Y-87788155D01*
X238755362Y-87861522D01*
X238685981Y-87872909D01*
X238642947Y-87863965D01*
X238532492Y-87821813D01*
X238463589Y-87777815D01*
X238376363Y-87719858D01*
X238283505Y-87676264D01*
X238142100Y-87656752D01*
X238012664Y-87714438D01*
X237888014Y-87852807D01*
X237872547Y-87875743D01*
X237760553Y-88034425D01*
X237661956Y-88152060D01*
X237588435Y-88215403D01*
X237566615Y-88222667D01*
X237535457Y-88186728D01*
X237477380Y-88089011D01*
X237400833Y-87944664D01*
X237318712Y-87778167D01*
X237223479Y-87583621D01*
X237152927Y-87454385D01*
X237098306Y-87377980D01*
X237050866Y-87341927D01*
X237007068Y-87333667D01*
X236943054Y-87340733D01*
X236888957Y-87370327D01*
X236835574Y-87435045D01*
X236773704Y-87547480D01*
X236694144Y-87720227D01*
X236648829Y-87823973D01*
X236574673Y-87986291D01*
X236508003Y-88116339D01*
X236458396Y-88196184D01*
X236441435Y-88212355D01*
X236395254Y-88188533D01*
X236317831Y-88111437D01*
X236225770Y-87997641D01*
X236224070Y-87995343D01*
X236073595Y-87809471D01*
X235944377Y-87696683D01*
X235823558Y-87652574D01*
X235698278Y-87672740D01*
X235555676Y-87752776D01*
X235542667Y-87761968D01*
X235424948Y-87827888D01*
X235324408Y-87864424D01*
X235236932Y-87870918D01*
X235192439Y-87822481D01*
X235181876Y-87792337D01*
X235097697Y-87651095D01*
X234955879Y-87550205D01*
X234779798Y-87505413D01*
X234754626Y-87504522D01*
X234572742Y-87536992D01*
X234431508Y-87626429D01*
X234336377Y-87755619D01*
X234292802Y-87907351D01*
X232748667Y-87907351D01*
X232748667Y-86190667D01*
X241215333Y-86190667D01*
X241215333Y-94657333D01*
D13*
%TO.C,U3*%
X147400000Y-94040000D02*
X143540000Y-94040000D01*
X143540000Y-94040000D02*
X143540000Y-94305000D01*
X147400000Y-94040000D02*
X151260000Y-94040000D01*
X151260000Y-94040000D02*
X151260000Y-94305000D01*
X147400000Y-109660000D02*
X143540000Y-109660000D01*
X143540000Y-109660000D02*
X143540000Y-109395000D01*
X147400000Y-109660000D02*
X151260000Y-109660000D01*
X151260000Y-109660000D02*
X151260000Y-109395000D01*
X151260000Y-109395000D02*
X153075000Y-109395000D01*
%TO.C,U2*%
X111900000Y-113110000D02*
X115760000Y-113110000D01*
X115760000Y-113110000D02*
X115760000Y-112855000D01*
X111900000Y-113110000D02*
X108040000Y-113110000D01*
X108040000Y-113110000D02*
X108040000Y-112855000D01*
X111900000Y-102590000D02*
X115760000Y-102590000D01*
X115760000Y-102590000D02*
X115760000Y-102845000D01*
X111900000Y-102590000D02*
X108040000Y-102590000D01*
X108040000Y-102590000D02*
X108040000Y-102845000D01*
X108040000Y-102845000D02*
X106225000Y-102845000D01*
%TO.C,C4*%
X104161252Y-104335000D02*
X103638748Y-104335000D01*
X104161252Y-102865000D02*
X103638748Y-102865000D01*
%TO.C,C8*%
X139861252Y-98115000D02*
X139338748Y-98115000D01*
X139861252Y-99585000D02*
X139338748Y-99585000D01*
%TO.C,J10*%
X72900000Y-115280000D02*
X72400000Y-114280000D01*
X71900000Y-115280000D02*
X72900000Y-115280000D01*
X72400000Y-114280000D02*
X71900000Y-115280000D01*
X83340000Y-112580000D02*
X83340000Y-113890000D01*
X83340000Y-112580000D02*
X83340000Y-112580000D01*
X94090000Y-112580000D02*
X83340000Y-112580000D01*
X94090000Y-106080000D02*
X94090000Y-112580000D01*
X68490000Y-106080000D02*
X94090000Y-106080000D01*
X68490000Y-112580000D02*
X68490000Y-106080000D01*
X79240000Y-112580000D02*
X68490000Y-112580000D01*
X79240000Y-113890000D02*
X79240000Y-112580000D01*
X95390000Y-113890000D02*
X67190000Y-113890000D01*
X95390000Y-104770000D02*
X95390000Y-113890000D01*
X67190000Y-104770000D02*
X95390000Y-104770000D01*
X67190000Y-113890000D02*
X67190000Y-104770000D01*
%TO.C,R9*%
X156085436Y-111485000D02*
X156539564Y-111485000D01*
X156085436Y-110015000D02*
X156539564Y-110015000D01*
%TO.C,R8*%
X157172936Y-108585000D02*
X157627064Y-108585000D01*
X157172936Y-107115000D02*
X157627064Y-107115000D01*
%TO.C,R7*%
X156085436Y-105585000D02*
X156539564Y-105585000D01*
X156085436Y-104115000D02*
X156539564Y-104115000D01*
%TO.C,C1*%
X79260000Y-93563748D02*
X79260000Y-94986252D01*
X76540000Y-93563748D02*
X76540000Y-94986252D01*
%TO.C,U1*%
X111900000Y-100860000D02*
X115760000Y-100860000D01*
X115760000Y-100860000D02*
X115760000Y-100605000D01*
X111900000Y-100860000D02*
X108040000Y-100860000D01*
X108040000Y-100860000D02*
X108040000Y-100605000D01*
X111900000Y-90340000D02*
X115760000Y-90340000D01*
X115760000Y-90340000D02*
X115760000Y-90595000D01*
X111900000Y-90340000D02*
X108040000Y-90340000D01*
X108040000Y-90340000D02*
X108040000Y-90595000D01*
X108040000Y-90595000D02*
X106225000Y-90595000D01*
%TO.C,R6*%
X157506936Y-101115000D02*
X157961064Y-101115000D01*
X157506936Y-102585000D02*
X157961064Y-102585000D01*
%TO.C,R5*%
X156848436Y-98325000D02*
X157302564Y-98325000D01*
X156848436Y-99795000D02*
X157302564Y-99795000D01*
%TO.C,R4*%
X157015000Y-93040564D02*
X157015000Y-92586436D01*
X158485000Y-93040564D02*
X158485000Y-92586436D01*
%TO.C,R3*%
X153615000Y-92827064D02*
X153615000Y-92372936D01*
X155085000Y-92827064D02*
X155085000Y-92372936D01*
%TO.C,R2*%
X148666564Y-92145000D02*
X148212436Y-92145000D01*
X148666564Y-93615000D02*
X148212436Y-93615000D01*
%TO.C,J9*%
X52520000Y-107070000D02*
X52520000Y-113090000D01*
X52520000Y-113090000D02*
X57820000Y-113090000D01*
X57820000Y-113090000D02*
X57820000Y-107070000D01*
X57820000Y-107070000D02*
X52520000Y-107070000D01*
X52230000Y-108100000D02*
X52230000Y-112100000D01*
X53900000Y-113090000D02*
X53900000Y-112090000D01*
X53900000Y-112090000D02*
X56440000Y-112090000D01*
X56440000Y-112090000D02*
X56440000Y-113090000D01*
X53900000Y-112090000D02*
X54150000Y-111560000D01*
X54150000Y-111560000D02*
X56190000Y-111560000D01*
X56190000Y-111560000D02*
X56440000Y-112090000D01*
X54150000Y-113090000D02*
X54150000Y-112090000D01*
X56190000Y-113090000D02*
X56190000Y-112090000D01*
X53100000Y-107070000D02*
X53100000Y-107670000D01*
X53100000Y-107670000D02*
X54700000Y-107670000D01*
X54700000Y-107670000D02*
X54700000Y-107070000D01*
X55640000Y-107070000D02*
X55640000Y-107670000D01*
X55640000Y-107670000D02*
X57240000Y-107670000D01*
X57240000Y-107670000D02*
X57240000Y-107070000D01*
%TO.C,J8*%
X242380000Y-113130000D02*
X242380000Y-107110000D01*
X242380000Y-107110000D02*
X237080000Y-107110000D01*
X237080000Y-107110000D02*
X237080000Y-113130000D01*
X237080000Y-113130000D02*
X242380000Y-113130000D01*
X242670000Y-112100000D02*
X242670000Y-108100000D01*
X241000000Y-107110000D02*
X241000000Y-108110000D01*
X241000000Y-108110000D02*
X238460000Y-108110000D01*
X238460000Y-108110000D02*
X238460000Y-107110000D01*
X241000000Y-108110000D02*
X240750000Y-108640000D01*
X240750000Y-108640000D02*
X238710000Y-108640000D01*
X238710000Y-108640000D02*
X238460000Y-108110000D01*
X240750000Y-107110000D02*
X240750000Y-108110000D01*
X238710000Y-107110000D02*
X238710000Y-108110000D01*
X241800000Y-113130000D02*
X241800000Y-112530000D01*
X241800000Y-112530000D02*
X240200000Y-112530000D01*
X240200000Y-112530000D02*
X240200000Y-113130000D01*
X239260000Y-113130000D02*
X239260000Y-112530000D01*
X239260000Y-112530000D02*
X237660000Y-112530000D01*
X237660000Y-112530000D02*
X237660000Y-113130000D01*
%TO.C,J7*%
X229500000Y-65200000D02*
X244500000Y-65200000D01*
X244500000Y-65200000D02*
X244500000Y-80200000D01*
X244500000Y-80200000D02*
X229500000Y-80200000D01*
X229500000Y-80200000D02*
X229500000Y-65200000D01*
X237000000Y-65400000D02*
X236000000Y-66400000D01*
X237000000Y-65400000D02*
X238000000Y-66400000D01*
%TO.C,J6*%
X204100000Y-65200000D02*
X219100000Y-65200000D01*
X219100000Y-65200000D02*
X219100000Y-80200000D01*
X219100000Y-80200000D02*
X204100000Y-80200000D01*
X204100000Y-80200000D02*
X204100000Y-65200000D01*
X211600000Y-65400000D02*
X210600000Y-66400000D01*
X211600000Y-65400000D02*
X212600000Y-66400000D01*
%TO.C,J5*%
X178700000Y-65200000D02*
X193700000Y-65200000D01*
X193700000Y-65200000D02*
X193700000Y-80200000D01*
X193700000Y-80200000D02*
X178700000Y-80200000D01*
X178700000Y-80200000D02*
X178700000Y-65200000D01*
X186200000Y-65400000D02*
X185200000Y-66400000D01*
X186200000Y-65400000D02*
X187200000Y-66400000D01*
%TO.C,J4*%
X153300000Y-65200000D02*
X168300000Y-65200000D01*
X168300000Y-65200000D02*
X168300000Y-80200000D01*
X168300000Y-80200000D02*
X153300000Y-80200000D01*
X153300000Y-80200000D02*
X153300000Y-65200000D01*
X160800000Y-65400000D02*
X159800000Y-66400000D01*
X160800000Y-65400000D02*
X161800000Y-66400000D01*
%TO.C,J3*%
X127900000Y-65200000D02*
X142900000Y-65200000D01*
X142900000Y-65200000D02*
X142900000Y-80200000D01*
X142900000Y-80200000D02*
X127900000Y-80200000D01*
X127900000Y-80200000D02*
X127900000Y-65200000D01*
X135400000Y-65400000D02*
X134400000Y-66400000D01*
X135400000Y-65400000D02*
X136400000Y-66400000D01*
%TO.C,J2*%
X102500000Y-65200000D02*
X117500000Y-65200000D01*
X117500000Y-65200000D02*
X117500000Y-80200000D01*
X117500000Y-80200000D02*
X102500000Y-80200000D01*
X102500000Y-80200000D02*
X102500000Y-65200000D01*
X110000000Y-65400000D02*
X109000000Y-66400000D01*
X110000000Y-65400000D02*
X111000000Y-66400000D01*
%TO.C,J1*%
X77100000Y-65200000D02*
X92100000Y-65200000D01*
X92100000Y-65200000D02*
X92100000Y-80200000D01*
X92100000Y-80200000D02*
X77100000Y-80200000D01*
X77100000Y-80200000D02*
X77100000Y-65200000D01*
X84600000Y-65400000D02*
X83600000Y-66400000D01*
X84600000Y-65400000D02*
X85600000Y-66400000D01*
%TO.C,J0*%
X51700000Y-65200000D02*
X66700000Y-65200000D01*
X66700000Y-65200000D02*
X66700000Y-80200000D01*
X66700000Y-80200000D02*
X51700000Y-80200000D01*
X51700000Y-80200000D02*
X51700000Y-65200000D01*
X59200000Y-65400000D02*
X58200000Y-66400000D01*
X59200000Y-65400000D02*
X60200000Y-66400000D01*
%TO.C,C7*%
X139911252Y-105735000D02*
X139388748Y-105735000D01*
X139911252Y-104265000D02*
X139388748Y-104265000D01*
%TO.C,C6*%
X119388748Y-102615000D02*
X119911252Y-102615000D01*
X119388748Y-104085000D02*
X119911252Y-104085000D01*
%TO.C,C5*%
X119388748Y-90365000D02*
X119911252Y-90365000D01*
X119388748Y-91835000D02*
X119911252Y-91835000D01*
%TO.C,C3*%
X104061252Y-92035000D02*
X103538748Y-92035000D01*
X104061252Y-90565000D02*
X103538748Y-90565000D01*
%TO.C,C2*%
X181040000Y-110436252D02*
X181040000Y-109013748D01*
X183760000Y-110436252D02*
X183760000Y-109013748D01*
%TO.C,U3*%
D10*
X144738095Y-109952380D02*
X144738095Y-110761904D01*
X144785714Y-110857142D01*
X144833333Y-110904761D01*
X144928571Y-110952380D01*
X145119047Y-110952380D01*
X145214285Y-110904761D01*
X145261904Y-110857142D01*
X145309523Y-110761904D01*
X145309523Y-109952380D01*
X145690476Y-109952380D02*
X146309523Y-109952380D01*
X145976190Y-110333333D01*
X146119047Y-110333333D01*
X146214285Y-110380952D01*
X146261904Y-110428571D01*
X146309523Y-110523809D01*
X146309523Y-110761904D01*
X146261904Y-110857142D01*
X146214285Y-110904761D01*
X146119047Y-110952380D01*
X145833333Y-110952380D01*
X145738095Y-110904761D01*
X145690476Y-110857142D01*
%TO.C,U2*%
X111138095Y-101202380D02*
X111138095Y-102011904D01*
X111185714Y-102107142D01*
X111233333Y-102154761D01*
X111328571Y-102202380D01*
X111519047Y-102202380D01*
X111614285Y-102154761D01*
X111661904Y-102107142D01*
X111709523Y-102011904D01*
X111709523Y-101202380D01*
X112138095Y-101297619D02*
X112185714Y-101250000D01*
X112280952Y-101202380D01*
X112519047Y-101202380D01*
X112614285Y-101250000D01*
X112661904Y-101297619D01*
X112709523Y-101392857D01*
X112709523Y-101488095D01*
X112661904Y-101630952D01*
X112090476Y-102202380D01*
X112709523Y-102202380D01*
%TO.C,C4*%
X103733333Y-102207142D02*
X103685714Y-102254761D01*
X103542857Y-102302380D01*
X103447619Y-102302380D01*
X103304761Y-102254761D01*
X103209523Y-102159523D01*
X103161904Y-102064285D01*
X103114285Y-101873809D01*
X103114285Y-101730952D01*
X103161904Y-101540476D01*
X103209523Y-101445238D01*
X103304761Y-101350000D01*
X103447619Y-101302380D01*
X103542857Y-101302380D01*
X103685714Y-101350000D01*
X103733333Y-101397619D01*
X104590476Y-101635714D02*
X104590476Y-102302380D01*
X104352380Y-101254761D02*
X104114285Y-101969047D01*
X104733333Y-101969047D01*
%TO.C,C8*%
X139333333Y-97607142D02*
X139285714Y-97654761D01*
X139142857Y-97702380D01*
X139047619Y-97702380D01*
X138904761Y-97654761D01*
X138809523Y-97559523D01*
X138761904Y-97464285D01*
X138714285Y-97273809D01*
X138714285Y-97130952D01*
X138761904Y-96940476D01*
X138809523Y-96845238D01*
X138904761Y-96750000D01*
X139047619Y-96702380D01*
X139142857Y-96702380D01*
X139285714Y-96750000D01*
X139333333Y-96797619D01*
X139904761Y-97130952D02*
X139809523Y-97083333D01*
X139761904Y-97035714D01*
X139714285Y-96940476D01*
X139714285Y-96892857D01*
X139761904Y-96797619D01*
X139809523Y-96750000D01*
X139904761Y-96702380D01*
X140095238Y-96702380D01*
X140190476Y-96750000D01*
X140238095Y-96797619D01*
X140285714Y-96892857D01*
X140285714Y-96940476D01*
X140238095Y-97035714D01*
X140190476Y-97083333D01*
X140095238Y-97130952D01*
X139904761Y-97130952D01*
X139809523Y-97178571D01*
X139761904Y-97226190D01*
X139714285Y-97321428D01*
X139714285Y-97511904D01*
X139761904Y-97607142D01*
X139809523Y-97654761D01*
X139904761Y-97702380D01*
X140095238Y-97702380D01*
X140190476Y-97654761D01*
X140238095Y-97607142D01*
X140285714Y-97511904D01*
X140285714Y-97321428D01*
X140238095Y-97226190D01*
X140190476Y-97178571D01*
X140095238Y-97130952D01*
%TO.C,J10*%
X65452380Y-111559523D02*
X66166666Y-111559523D01*
X66309523Y-111607142D01*
X66404761Y-111702380D01*
X66452380Y-111845238D01*
X66452380Y-111940476D01*
X66452380Y-110559523D02*
X66452380Y-111130952D01*
X66452380Y-110845238D02*
X65452380Y-110845238D01*
X65595238Y-110940476D01*
X65690476Y-111035714D01*
X65738095Y-111130952D01*
X65452380Y-109940476D02*
X65452380Y-109845238D01*
X65500000Y-109750000D01*
X65547619Y-109702380D01*
X65642857Y-109654761D01*
X65833333Y-109607142D01*
X66071428Y-109607142D01*
X66261904Y-109654761D01*
X66357142Y-109702380D01*
X66404761Y-109750000D01*
X66452380Y-109845238D01*
X66452380Y-109940476D01*
X66404761Y-110035714D01*
X66357142Y-110083333D01*
X66261904Y-110130952D01*
X66071428Y-110178571D01*
X65833333Y-110178571D01*
X65642857Y-110130952D01*
X65547619Y-110083333D01*
X65500000Y-110035714D01*
X65452380Y-109940476D01*
%TO.C,R9*%
X153333333Y-111452380D02*
X153000000Y-110976190D01*
X152761904Y-111452380D02*
X152761904Y-110452380D01*
X153142857Y-110452380D01*
X153238095Y-110500000D01*
X153285714Y-110547619D01*
X153333333Y-110642857D01*
X153333333Y-110785714D01*
X153285714Y-110880952D01*
X153238095Y-110928571D01*
X153142857Y-110976190D01*
X152761904Y-110976190D01*
X153809523Y-111452380D02*
X154000000Y-111452380D01*
X154095238Y-111404761D01*
X154142857Y-111357142D01*
X154238095Y-111214285D01*
X154285714Y-111023809D01*
X154285714Y-110642857D01*
X154238095Y-110547619D01*
X154190476Y-110500000D01*
X154095238Y-110452380D01*
X153904761Y-110452380D01*
X153809523Y-110500000D01*
X153761904Y-110547619D01*
X153714285Y-110642857D01*
X153714285Y-110880952D01*
X153761904Y-110976190D01*
X153809523Y-111023809D01*
X153904761Y-111071428D01*
X154095238Y-111071428D01*
X154190476Y-111023809D01*
X154238095Y-110976190D01*
X154285714Y-110880952D01*
%TO.C,R8*%
X159833333Y-108202380D02*
X159500000Y-107726190D01*
X159261904Y-108202380D02*
X159261904Y-107202380D01*
X159642857Y-107202380D01*
X159738095Y-107250000D01*
X159785714Y-107297619D01*
X159833333Y-107392857D01*
X159833333Y-107535714D01*
X159785714Y-107630952D01*
X159738095Y-107678571D01*
X159642857Y-107726190D01*
X159261904Y-107726190D01*
X160404761Y-107630952D02*
X160309523Y-107583333D01*
X160261904Y-107535714D01*
X160214285Y-107440476D01*
X160214285Y-107392857D01*
X160261904Y-107297619D01*
X160309523Y-107250000D01*
X160404761Y-107202380D01*
X160595238Y-107202380D01*
X160690476Y-107250000D01*
X160738095Y-107297619D01*
X160785714Y-107392857D01*
X160785714Y-107440476D01*
X160738095Y-107535714D01*
X160690476Y-107583333D01*
X160595238Y-107630952D01*
X160404761Y-107630952D01*
X160309523Y-107678571D01*
X160261904Y-107726190D01*
X160214285Y-107821428D01*
X160214285Y-108011904D01*
X160261904Y-108107142D01*
X160309523Y-108154761D01*
X160404761Y-108202380D01*
X160595238Y-108202380D01*
X160690476Y-108154761D01*
X160738095Y-108107142D01*
X160785714Y-108011904D01*
X160785714Y-107821428D01*
X160738095Y-107726190D01*
X160690476Y-107678571D01*
X160595238Y-107630952D01*
%TO.C,R7*%
X158833333Y-105202380D02*
X158500000Y-104726190D01*
X158261904Y-105202380D02*
X158261904Y-104202380D01*
X158642857Y-104202380D01*
X158738095Y-104250000D01*
X158785714Y-104297619D01*
X158833333Y-104392857D01*
X158833333Y-104535714D01*
X158785714Y-104630952D01*
X158738095Y-104678571D01*
X158642857Y-104726190D01*
X158261904Y-104726190D01*
X159166666Y-104202380D02*
X159833333Y-104202380D01*
X159404761Y-105202380D01*
%TO.C,C1*%
X80557142Y-94441666D02*
X80604761Y-94489285D01*
X80652380Y-94632142D01*
X80652380Y-94727380D01*
X80604761Y-94870238D01*
X80509523Y-94965476D01*
X80414285Y-95013095D01*
X80223809Y-95060714D01*
X80080952Y-95060714D01*
X79890476Y-95013095D01*
X79795238Y-94965476D01*
X79700000Y-94870238D01*
X79652380Y-94727380D01*
X79652380Y-94632142D01*
X79700000Y-94489285D01*
X79747619Y-94441666D01*
X80652380Y-93489285D02*
X80652380Y-94060714D01*
X80652380Y-93775000D02*
X79652380Y-93775000D01*
X79795238Y-93870238D01*
X79890476Y-93965476D01*
X79938095Y-94060714D01*
%TO.C,U1*%
X111138095Y-88952380D02*
X111138095Y-89761904D01*
X111185714Y-89857142D01*
X111233333Y-89904761D01*
X111328571Y-89952380D01*
X111519047Y-89952380D01*
X111614285Y-89904761D01*
X111661904Y-89857142D01*
X111709523Y-89761904D01*
X111709523Y-88952380D01*
X112709523Y-89952380D02*
X112138095Y-89952380D01*
X112423809Y-89952380D02*
X112423809Y-88952380D01*
X112328571Y-89095238D01*
X112233333Y-89190476D01*
X112138095Y-89238095D01*
%TO.C,R6*%
X160167333Y-102202380D02*
X159834000Y-101726190D01*
X159595904Y-102202380D02*
X159595904Y-101202380D01*
X159976857Y-101202380D01*
X160072095Y-101250000D01*
X160119714Y-101297619D01*
X160167333Y-101392857D01*
X160167333Y-101535714D01*
X160119714Y-101630952D01*
X160072095Y-101678571D01*
X159976857Y-101726190D01*
X159595904Y-101726190D01*
X161024476Y-101202380D02*
X160834000Y-101202380D01*
X160738761Y-101250000D01*
X160691142Y-101297619D01*
X160595904Y-101440476D01*
X160548285Y-101630952D01*
X160548285Y-102011904D01*
X160595904Y-102107142D01*
X160643523Y-102154761D01*
X160738761Y-102202380D01*
X160929238Y-102202380D01*
X161024476Y-102154761D01*
X161072095Y-102107142D01*
X161119714Y-102011904D01*
X161119714Y-101773809D01*
X161072095Y-101678571D01*
X161024476Y-101630952D01*
X160929238Y-101583333D01*
X160738761Y-101583333D01*
X160643523Y-101630952D01*
X160595904Y-101678571D01*
X160548285Y-101773809D01*
%TO.C,R5*%
X159508833Y-99412380D02*
X159175500Y-98936190D01*
X158937404Y-99412380D02*
X158937404Y-98412380D01*
X159318357Y-98412380D01*
X159413595Y-98460000D01*
X159461214Y-98507619D01*
X159508833Y-98602857D01*
X159508833Y-98745714D01*
X159461214Y-98840952D01*
X159413595Y-98888571D01*
X159318357Y-98936190D01*
X158937404Y-98936190D01*
X160413595Y-98412380D02*
X159937404Y-98412380D01*
X159889785Y-98888571D01*
X159937404Y-98840952D01*
X160032642Y-98793333D01*
X160270738Y-98793333D01*
X160365976Y-98840952D01*
X160413595Y-98888571D01*
X160461214Y-98983809D01*
X160461214Y-99221904D01*
X160413595Y-99317142D01*
X160365976Y-99364761D01*
X160270738Y-99412380D01*
X160032642Y-99412380D01*
X159937404Y-99364761D01*
X159889785Y-99317142D01*
%TO.C,R4*%
X158102380Y-90380166D02*
X157626190Y-90713500D01*
X158102380Y-90951595D02*
X157102380Y-90951595D01*
X157102380Y-90570642D01*
X157150000Y-90475404D01*
X157197619Y-90427785D01*
X157292857Y-90380166D01*
X157435714Y-90380166D01*
X157530952Y-90427785D01*
X157578571Y-90475404D01*
X157626190Y-90570642D01*
X157626190Y-90951595D01*
X157435714Y-89523023D02*
X158102380Y-89523023D01*
X157054761Y-89761119D02*
X157769047Y-89999214D01*
X157769047Y-89380166D01*
%TO.C,R3*%
X154802380Y-90166666D02*
X154326190Y-90500000D01*
X154802380Y-90738095D02*
X153802380Y-90738095D01*
X153802380Y-90357142D01*
X153850000Y-90261904D01*
X153897619Y-90214285D01*
X153992857Y-90166666D01*
X154135714Y-90166666D01*
X154230952Y-90214285D01*
X154278571Y-90261904D01*
X154326190Y-90357142D01*
X154326190Y-90738095D01*
X153802380Y-89833333D02*
X153802380Y-89214285D01*
X154183333Y-89547619D01*
X154183333Y-89404761D01*
X154230952Y-89309523D01*
X154278571Y-89261904D01*
X154373809Y-89214285D01*
X154611904Y-89214285D01*
X154707142Y-89261904D01*
X154754761Y-89309523D01*
X154802380Y-89404761D01*
X154802380Y-89690476D01*
X154754761Y-89785714D01*
X154707142Y-89833333D01*
%TO.C,R2*%
X145472833Y-93432380D02*
X145139500Y-92956190D01*
X144901404Y-93432380D02*
X144901404Y-92432380D01*
X145282357Y-92432380D01*
X145377595Y-92480000D01*
X145425214Y-92527619D01*
X145472833Y-92622857D01*
X145472833Y-92765714D01*
X145425214Y-92860952D01*
X145377595Y-92908571D01*
X145282357Y-92956190D01*
X144901404Y-92956190D01*
X145853785Y-92527619D02*
X145901404Y-92480000D01*
X145996642Y-92432380D01*
X146234738Y-92432380D01*
X146329976Y-92480000D01*
X146377595Y-92527619D01*
X146425214Y-92622857D01*
X146425214Y-92718095D01*
X146377595Y-92860952D01*
X145806166Y-93432380D01*
X146425214Y-93432380D01*
%TO.C,J9*%
X54836666Y-105432380D02*
X54836666Y-106146666D01*
X54789047Y-106289523D01*
X54693809Y-106384761D01*
X54550952Y-106432380D01*
X54455714Y-106432380D01*
X55360476Y-106432380D02*
X55550952Y-106432380D01*
X55646190Y-106384761D01*
X55693809Y-106337142D01*
X55789047Y-106194285D01*
X55836666Y-106003809D01*
X55836666Y-105622857D01*
X55789047Y-105527619D01*
X55741428Y-105480000D01*
X55646190Y-105432380D01*
X55455714Y-105432380D01*
X55360476Y-105480000D01*
X55312857Y-105527619D01*
X55265238Y-105622857D01*
X55265238Y-105860952D01*
X55312857Y-105956190D01*
X55360476Y-106003809D01*
X55455714Y-106051428D01*
X55646190Y-106051428D01*
X55741428Y-106003809D01*
X55789047Y-105956190D01*
X55836666Y-105860952D01*
%TO.C,J8*%
X239396666Y-113672380D02*
X239396666Y-114386666D01*
X239349047Y-114529523D01*
X239253809Y-114624761D01*
X239110952Y-114672380D01*
X239015714Y-114672380D01*
X240015714Y-114100952D02*
X239920476Y-114053333D01*
X239872857Y-114005714D01*
X239825238Y-113910476D01*
X239825238Y-113862857D01*
X239872857Y-113767619D01*
X239920476Y-113720000D01*
X240015714Y-113672380D01*
X240206190Y-113672380D01*
X240301428Y-113720000D01*
X240349047Y-113767619D01*
X240396666Y-113862857D01*
X240396666Y-113910476D01*
X240349047Y-114005714D01*
X240301428Y-114053333D01*
X240206190Y-114100952D01*
X240015714Y-114100952D01*
X239920476Y-114148571D01*
X239872857Y-114196190D01*
X239825238Y-114291428D01*
X239825238Y-114481904D01*
X239872857Y-114577142D01*
X239920476Y-114624761D01*
X240015714Y-114672380D01*
X240206190Y-114672380D01*
X240301428Y-114624761D01*
X240349047Y-114577142D01*
X240396666Y-114481904D01*
X240396666Y-114291428D01*
X240349047Y-114196190D01*
X240301428Y-114148571D01*
X240206190Y-114100952D01*
%TO.C,J7*%
X227452380Y-73233333D02*
X228166666Y-73233333D01*
X228309523Y-73280952D01*
X228404761Y-73376190D01*
X228452380Y-73519047D01*
X228452380Y-73614285D01*
X227452380Y-72852380D02*
X227452380Y-72185714D01*
X228452380Y-72614285D01*
%TO.C,J6*%
X202052380Y-73233333D02*
X202766666Y-73233333D01*
X202909523Y-73280952D01*
X203004761Y-73376190D01*
X203052380Y-73519047D01*
X203052380Y-73614285D01*
X202052380Y-72328571D02*
X202052380Y-72519047D01*
X202100000Y-72614285D01*
X202147619Y-72661904D01*
X202290476Y-72757142D01*
X202480952Y-72804761D01*
X202861904Y-72804761D01*
X202957142Y-72757142D01*
X203004761Y-72709523D01*
X203052380Y-72614285D01*
X203052380Y-72423809D01*
X203004761Y-72328571D01*
X202957142Y-72280952D01*
X202861904Y-72233333D01*
X202623809Y-72233333D01*
X202528571Y-72280952D01*
X202480952Y-72328571D01*
X202433333Y-72423809D01*
X202433333Y-72614285D01*
X202480952Y-72709523D01*
X202528571Y-72757142D01*
X202623809Y-72804761D01*
%TO.C,J5*%
X176652380Y-73233333D02*
X177366666Y-73233333D01*
X177509523Y-73280952D01*
X177604761Y-73376190D01*
X177652380Y-73519047D01*
X177652380Y-73614285D01*
X176652380Y-72280952D02*
X176652380Y-72757142D01*
X177128571Y-72804761D01*
X177080952Y-72757142D01*
X177033333Y-72661904D01*
X177033333Y-72423809D01*
X177080952Y-72328571D01*
X177128571Y-72280952D01*
X177223809Y-72233333D01*
X177461904Y-72233333D01*
X177557142Y-72280952D01*
X177604761Y-72328571D01*
X177652380Y-72423809D01*
X177652380Y-72661904D01*
X177604761Y-72757142D01*
X177557142Y-72804761D01*
%TO.C,J4*%
X151252380Y-73233333D02*
X151966666Y-73233333D01*
X152109523Y-73280952D01*
X152204761Y-73376190D01*
X152252380Y-73519047D01*
X152252380Y-73614285D01*
X151585714Y-72328571D02*
X152252380Y-72328571D01*
X151204761Y-72566666D02*
X151919047Y-72804761D01*
X151919047Y-72185714D01*
%TO.C,J3*%
X125852380Y-73233333D02*
X126566666Y-73233333D01*
X126709523Y-73280952D01*
X126804761Y-73376190D01*
X126852380Y-73519047D01*
X126852380Y-73614285D01*
X125852380Y-72852380D02*
X125852380Y-72233333D01*
X126233333Y-72566666D01*
X126233333Y-72423809D01*
X126280952Y-72328571D01*
X126328571Y-72280952D01*
X126423809Y-72233333D01*
X126661904Y-72233333D01*
X126757142Y-72280952D01*
X126804761Y-72328571D01*
X126852380Y-72423809D01*
X126852380Y-72709523D01*
X126804761Y-72804761D01*
X126757142Y-72852380D01*
%TO.C,J2*%
X100452380Y-73233333D02*
X101166666Y-73233333D01*
X101309523Y-73280952D01*
X101404761Y-73376190D01*
X101452380Y-73519047D01*
X101452380Y-73614285D01*
X100547619Y-72804761D02*
X100500000Y-72757142D01*
X100452380Y-72661904D01*
X100452380Y-72423809D01*
X100500000Y-72328571D01*
X100547619Y-72280952D01*
X100642857Y-72233333D01*
X100738095Y-72233333D01*
X100880952Y-72280952D01*
X101452380Y-72852380D01*
X101452380Y-72233333D01*
%TO.C,J1*%
X75052380Y-73233333D02*
X75766666Y-73233333D01*
X75909523Y-73280952D01*
X76004761Y-73376190D01*
X76052380Y-73519047D01*
X76052380Y-73614285D01*
X76052380Y-72233333D02*
X76052380Y-72804761D01*
X76052380Y-72519047D02*
X75052380Y-72519047D01*
X75195238Y-72614285D01*
X75290476Y-72709523D01*
X75338095Y-72804761D01*
%TO.C,J0*%
X49866666Y-72352380D02*
X49866666Y-73066666D01*
X49819047Y-73209523D01*
X49723809Y-73304761D01*
X49580952Y-73352380D01*
X49485714Y-73352380D01*
X50533333Y-72352380D02*
X50628571Y-72352380D01*
X50723809Y-72400000D01*
X50771428Y-72447619D01*
X50819047Y-72542857D01*
X50866666Y-72733333D01*
X50866666Y-72971428D01*
X50819047Y-73161904D01*
X50771428Y-73257142D01*
X50723809Y-73304761D01*
X50628571Y-73352380D01*
X50533333Y-73352380D01*
X50438095Y-73304761D01*
X50390476Y-73257142D01*
X50342857Y-73161904D01*
X50295238Y-72971428D01*
X50295238Y-72733333D01*
X50342857Y-72542857D01*
X50390476Y-72447619D01*
X50438095Y-72400000D01*
X50533333Y-72352380D01*
%TO.C,C7*%
X136833333Y-105507142D02*
X136785714Y-105554761D01*
X136642857Y-105602380D01*
X136547619Y-105602380D01*
X136404761Y-105554761D01*
X136309523Y-105459523D01*
X136261904Y-105364285D01*
X136214285Y-105173809D01*
X136214285Y-105030952D01*
X136261904Y-104840476D01*
X136309523Y-104745238D01*
X136404761Y-104650000D01*
X136547619Y-104602380D01*
X136642857Y-104602380D01*
X136785714Y-104650000D01*
X136833333Y-104697619D01*
X137166666Y-104602380D02*
X137833333Y-104602380D01*
X137404761Y-105602380D01*
%TO.C,C6*%
X119483333Y-102027142D02*
X119435714Y-102074761D01*
X119292857Y-102122380D01*
X119197619Y-102122380D01*
X119054761Y-102074761D01*
X118959523Y-101979523D01*
X118911904Y-101884285D01*
X118864285Y-101693809D01*
X118864285Y-101550952D01*
X118911904Y-101360476D01*
X118959523Y-101265238D01*
X119054761Y-101170000D01*
X119197619Y-101122380D01*
X119292857Y-101122380D01*
X119435714Y-101170000D01*
X119483333Y-101217619D01*
X120340476Y-101122380D02*
X120150000Y-101122380D01*
X120054761Y-101170000D01*
X120007142Y-101217619D01*
X119911904Y-101360476D01*
X119864285Y-101550952D01*
X119864285Y-101931904D01*
X119911904Y-102027142D01*
X119959523Y-102074761D01*
X120054761Y-102122380D01*
X120245238Y-102122380D01*
X120340476Y-102074761D01*
X120388095Y-102027142D01*
X120435714Y-101931904D01*
X120435714Y-101693809D01*
X120388095Y-101598571D01*
X120340476Y-101550952D01*
X120245238Y-101503333D01*
X120054761Y-101503333D01*
X119959523Y-101550952D01*
X119911904Y-101598571D01*
X119864285Y-101693809D01*
%TO.C,C5*%
X119483333Y-89777142D02*
X119435714Y-89824761D01*
X119292857Y-89872380D01*
X119197619Y-89872380D01*
X119054761Y-89824761D01*
X118959523Y-89729523D01*
X118911904Y-89634285D01*
X118864285Y-89443809D01*
X118864285Y-89300952D01*
X118911904Y-89110476D01*
X118959523Y-89015238D01*
X119054761Y-88920000D01*
X119197619Y-88872380D01*
X119292857Y-88872380D01*
X119435714Y-88920000D01*
X119483333Y-88967619D01*
X120388095Y-88872380D02*
X119911904Y-88872380D01*
X119864285Y-89348571D01*
X119911904Y-89300952D01*
X120007142Y-89253333D01*
X120245238Y-89253333D01*
X120340476Y-89300952D01*
X120388095Y-89348571D01*
X120435714Y-89443809D01*
X120435714Y-89681904D01*
X120388095Y-89777142D01*
X120340476Y-89824761D01*
X120245238Y-89872380D01*
X120007142Y-89872380D01*
X119911904Y-89824761D01*
X119864285Y-89777142D01*
%TO.C,C3*%
X100833333Y-91857142D02*
X100785714Y-91904761D01*
X100642857Y-91952380D01*
X100547619Y-91952380D01*
X100404761Y-91904761D01*
X100309523Y-91809523D01*
X100261904Y-91714285D01*
X100214285Y-91523809D01*
X100214285Y-91380952D01*
X100261904Y-91190476D01*
X100309523Y-91095238D01*
X100404761Y-91000000D01*
X100547619Y-90952380D01*
X100642857Y-90952380D01*
X100785714Y-91000000D01*
X100833333Y-91047619D01*
X101166666Y-90952380D02*
X101785714Y-90952380D01*
X101452380Y-91333333D01*
X101595238Y-91333333D01*
X101690476Y-91380952D01*
X101738095Y-91428571D01*
X101785714Y-91523809D01*
X101785714Y-91761904D01*
X101738095Y-91857142D01*
X101690476Y-91904761D01*
X101595238Y-91952380D01*
X101309523Y-91952380D01*
X101214285Y-91904761D01*
X101166666Y-91857142D01*
%TO.C,C2*%
X180457142Y-109891666D02*
X180504761Y-109939285D01*
X180552380Y-110082142D01*
X180552380Y-110177380D01*
X180504761Y-110320238D01*
X180409523Y-110415476D01*
X180314285Y-110463095D01*
X180123809Y-110510714D01*
X179980952Y-110510714D01*
X179790476Y-110463095D01*
X179695238Y-110415476D01*
X179600000Y-110320238D01*
X179552380Y-110177380D01*
X179552380Y-110082142D01*
X179600000Y-109939285D01*
X179647619Y-109891666D01*
X179647619Y-109510714D02*
X179600000Y-109463095D01*
X179552380Y-109367857D01*
X179552380Y-109129761D01*
X179600000Y-109034523D01*
X179647619Y-108986904D01*
X179742857Y-108939285D01*
X179838095Y-108939285D01*
X179980952Y-108986904D01*
X180552380Y-109558333D01*
X180552380Y-108939285D01*
%TD*%
M02*
