M48
; DRILL file {KiCad (5.1.10-1-10_14)} date Wednesday, October 06, 2021 at 02:17:22 PM
; FORMAT={-:-/ absolute / inch / decimal}
; #@! TF.CreationDate,2021-10-06T14:17:22-04:00
; #@! TF.GenerationSoftware,Kicad,Pcbnew,(5.1.10-1-10_14)
; #@! TF.FileFunction,Plated,1,2,PTH
FMAT,2
INCH
T1C0.0315
T2C0.0350
T3C0.0394
T4C0.0469
T5C0.0791
%
G90
G05
T1
X2.3819Y-3.3169
X2.5335Y-4.3543
X3.0669Y-3.7717
X3.4843Y-3.2776
X3.7264Y-4.3543
X3.8386Y-2.8642
X4.0512Y-3.5945
X4.0512Y-4.0787
X4.5118Y-4.3386
X4.75Y-3.5866
X4.75Y-4.0689
X5.0098Y-3.2677
X5.4587Y-3.8917
X5.4587Y-4.128
X5.5039Y-4.3051
X5.7677Y-3.5925
X5.8268Y-2.8642
X5.876Y-3.2972
X5.9055Y-3.8386
X5.9055Y-4.1634
X6.1201Y-3.963
X6.1323Y-3.7272
X6.4173Y-4.1831
X6.5256Y-3.5531
X6.8307Y-3.5531
X6.8701Y-4.2224
X7.1811Y-4.2598
X7.2244Y-3.7598
X7.7461Y-3.9961
X8.2559Y-4.2972
X8.8189Y-2.9035
X9.2323Y-3.6024
X9.4843Y-4.2008
T2
X2.2307Y-3.0669
X2.3307Y-3.0669
X3.2307Y-3.0669
X3.3307Y-3.0669
X4.2307Y-3.0669
X4.3307Y-3.0669
X5.2307Y-3.0669
X5.3307Y-3.0669
X6.2307Y-3.0669
X6.3307Y-3.0669
X7.2307Y-3.0669
X7.3307Y-3.0669
X8.2307Y-3.0669
X8.3307Y-3.0669
X9.2307Y-3.0669
X9.3307Y-3.0669
T3
X2.8504Y-4.2543
X2.8504Y-4.3543
X2.9504Y-4.2543
X2.9504Y-4.3543
X3.0504Y-4.2543
X3.0504Y-4.3543
X3.1504Y-4.2543
X3.1504Y-4.3543
X3.2504Y-4.2543
X3.2504Y-4.3543
X3.3504Y-4.2543
X3.3504Y-4.3543
X3.4504Y-4.2543
X3.4504Y-4.3543
X3.5504Y-4.2543
X3.5504Y-4.3543
T4
X2.122Y-4.3346
X2.222Y-4.3346
X9.3882Y-4.3346
X9.4882Y-4.3346
T5
X2.1307Y-2.8669
X2.5307Y-2.8669
X3.1307Y-2.8669
X3.5307Y-2.8669
X4.1307Y-2.8669
X4.5307Y-2.8669
X5.1307Y-2.8669
X5.5307Y-2.8669
X6.1307Y-2.8669
X6.5307Y-2.8669
X7.1307Y-2.8669
X7.5307Y-2.8669
X8.1307Y-2.8669
X8.5307Y-2.8669
X9.1307Y-2.8669
X9.5307Y-2.8669
T0
M30
