%TF.GenerationSoftware,KiCad,Pcbnew,(5.1.10-1-10_14)*%
%TF.CreationDate,2021-10-07T18:44:58-04:00*%
%TF.ProjectId,BufferBox,42756666-6572-4426-9f78-2e6b69636164,1.1*%
%TF.SameCoordinates,Original*%
%TF.FileFunction,Soldermask,Top*%
%TF.FilePolarity,Negative*%
%FSLAX46Y46*%
G04 Gerber Fmt 4.6, Leading zero omitted, Abs format (unit mm)*
G04 Created by KiCad (PCBNEW (5.1.10-1-10_14)) date 2021-10-07 18:44:58*
%MOMM*%
%LPD*%
G01*
G04 APERTURE LIST*
%ADD10C,1.700000*%
%ADD11O,1.740000X2.190000*%
%ADD12O,1.600000X2.500000*%
%ADD13O,3.500000X7.000000*%
G04 APERTURE END LIST*
%TO.C,U3*%
G36*
G01*
X143775000Y-110635000D02*
X143775000Y-110935000D01*
G75*
G02*
X143625000Y-111085000I-150000J0D01*
G01*
X141875000Y-111085000D01*
G75*
G02*
X141725000Y-110935000I0J150000D01*
G01*
X141725000Y-110635000D01*
G75*
G02*
X141875000Y-110485000I150000J0D01*
G01*
X143625000Y-110485000D01*
G75*
G02*
X143775000Y-110635000I0J-150000D01*
G01*
G37*
G36*
G01*
X143775000Y-109365000D02*
X143775000Y-109665000D01*
G75*
G02*
X143625000Y-109815000I-150000J0D01*
G01*
X141875000Y-109815000D01*
G75*
G02*
X141725000Y-109665000I0J150000D01*
G01*
X141725000Y-109365000D01*
G75*
G02*
X141875000Y-109215000I150000J0D01*
G01*
X143625000Y-109215000D01*
G75*
G02*
X143775000Y-109365000I0J-150000D01*
G01*
G37*
G36*
G01*
X143775000Y-108095000D02*
X143775000Y-108395000D01*
G75*
G02*
X143625000Y-108545000I-150000J0D01*
G01*
X141875000Y-108545000D01*
G75*
G02*
X141725000Y-108395000I0J150000D01*
G01*
X141725000Y-108095000D01*
G75*
G02*
X141875000Y-107945000I150000J0D01*
G01*
X143625000Y-107945000D01*
G75*
G02*
X143775000Y-108095000I0J-150000D01*
G01*
G37*
G36*
G01*
X143775000Y-106825000D02*
X143775000Y-107125000D01*
G75*
G02*
X143625000Y-107275000I-150000J0D01*
G01*
X141875000Y-107275000D01*
G75*
G02*
X141725000Y-107125000I0J150000D01*
G01*
X141725000Y-106825000D01*
G75*
G02*
X141875000Y-106675000I150000J0D01*
G01*
X143625000Y-106675000D01*
G75*
G02*
X143775000Y-106825000I0J-150000D01*
G01*
G37*
G36*
G01*
X143775000Y-105555000D02*
X143775000Y-105855000D01*
G75*
G02*
X143625000Y-106005000I-150000J0D01*
G01*
X141875000Y-106005000D01*
G75*
G02*
X141725000Y-105855000I0J150000D01*
G01*
X141725000Y-105555000D01*
G75*
G02*
X141875000Y-105405000I150000J0D01*
G01*
X143625000Y-105405000D01*
G75*
G02*
X143775000Y-105555000I0J-150000D01*
G01*
G37*
G36*
G01*
X143775000Y-104285000D02*
X143775000Y-104585000D01*
G75*
G02*
X143625000Y-104735000I-150000J0D01*
G01*
X141875000Y-104735000D01*
G75*
G02*
X141725000Y-104585000I0J150000D01*
G01*
X141725000Y-104285000D01*
G75*
G02*
X141875000Y-104135000I150000J0D01*
G01*
X143625000Y-104135000D01*
G75*
G02*
X143775000Y-104285000I0J-150000D01*
G01*
G37*
G36*
G01*
X143775000Y-103015000D02*
X143775000Y-103315000D01*
G75*
G02*
X143625000Y-103465000I-150000J0D01*
G01*
X141875000Y-103465000D01*
G75*
G02*
X141725000Y-103315000I0J150000D01*
G01*
X141725000Y-103015000D01*
G75*
G02*
X141875000Y-102865000I150000J0D01*
G01*
X143625000Y-102865000D01*
G75*
G02*
X143775000Y-103015000I0J-150000D01*
G01*
G37*
G36*
G01*
X143775000Y-101745000D02*
X143775000Y-102045000D01*
G75*
G02*
X143625000Y-102195000I-150000J0D01*
G01*
X141875000Y-102195000D01*
G75*
G02*
X141725000Y-102045000I0J150000D01*
G01*
X141725000Y-101745000D01*
G75*
G02*
X141875000Y-101595000I150000J0D01*
G01*
X143625000Y-101595000D01*
G75*
G02*
X143775000Y-101745000I0J-150000D01*
G01*
G37*
G36*
G01*
X143775000Y-100475000D02*
X143775000Y-100775000D01*
G75*
G02*
X143625000Y-100925000I-150000J0D01*
G01*
X141875000Y-100925000D01*
G75*
G02*
X141725000Y-100775000I0J150000D01*
G01*
X141725000Y-100475000D01*
G75*
G02*
X141875000Y-100325000I150000J0D01*
G01*
X143625000Y-100325000D01*
G75*
G02*
X143775000Y-100475000I0J-150000D01*
G01*
G37*
G36*
G01*
X143775000Y-99205000D02*
X143775000Y-99505000D01*
G75*
G02*
X143625000Y-99655000I-150000J0D01*
G01*
X141875000Y-99655000D01*
G75*
G02*
X141725000Y-99505000I0J150000D01*
G01*
X141725000Y-99205000D01*
G75*
G02*
X141875000Y-99055000I150000J0D01*
G01*
X143625000Y-99055000D01*
G75*
G02*
X143775000Y-99205000I0J-150000D01*
G01*
G37*
G36*
G01*
X143775000Y-97935000D02*
X143775000Y-98235000D01*
G75*
G02*
X143625000Y-98385000I-150000J0D01*
G01*
X141875000Y-98385000D01*
G75*
G02*
X141725000Y-98235000I0J150000D01*
G01*
X141725000Y-97935000D01*
G75*
G02*
X141875000Y-97785000I150000J0D01*
G01*
X143625000Y-97785000D01*
G75*
G02*
X143775000Y-97935000I0J-150000D01*
G01*
G37*
G36*
G01*
X143775000Y-96665000D02*
X143775000Y-96965000D01*
G75*
G02*
X143625000Y-97115000I-150000J0D01*
G01*
X141875000Y-97115000D01*
G75*
G02*
X141725000Y-96965000I0J150000D01*
G01*
X141725000Y-96665000D01*
G75*
G02*
X141875000Y-96515000I150000J0D01*
G01*
X143625000Y-96515000D01*
G75*
G02*
X143775000Y-96665000I0J-150000D01*
G01*
G37*
G36*
G01*
X153075000Y-96665000D02*
X153075000Y-96965000D01*
G75*
G02*
X152925000Y-97115000I-150000J0D01*
G01*
X151175000Y-97115000D01*
G75*
G02*
X151025000Y-96965000I0J150000D01*
G01*
X151025000Y-96665000D01*
G75*
G02*
X151175000Y-96515000I150000J0D01*
G01*
X152925000Y-96515000D01*
G75*
G02*
X153075000Y-96665000I0J-150000D01*
G01*
G37*
G36*
G01*
X153075000Y-97935000D02*
X153075000Y-98235000D01*
G75*
G02*
X152925000Y-98385000I-150000J0D01*
G01*
X151175000Y-98385000D01*
G75*
G02*
X151025000Y-98235000I0J150000D01*
G01*
X151025000Y-97935000D01*
G75*
G02*
X151175000Y-97785000I150000J0D01*
G01*
X152925000Y-97785000D01*
G75*
G02*
X153075000Y-97935000I0J-150000D01*
G01*
G37*
G36*
G01*
X153075000Y-99205000D02*
X153075000Y-99505000D01*
G75*
G02*
X152925000Y-99655000I-150000J0D01*
G01*
X151175000Y-99655000D01*
G75*
G02*
X151025000Y-99505000I0J150000D01*
G01*
X151025000Y-99205000D01*
G75*
G02*
X151175000Y-99055000I150000J0D01*
G01*
X152925000Y-99055000D01*
G75*
G02*
X153075000Y-99205000I0J-150000D01*
G01*
G37*
G36*
G01*
X153075000Y-100475000D02*
X153075000Y-100775000D01*
G75*
G02*
X152925000Y-100925000I-150000J0D01*
G01*
X151175000Y-100925000D01*
G75*
G02*
X151025000Y-100775000I0J150000D01*
G01*
X151025000Y-100475000D01*
G75*
G02*
X151175000Y-100325000I150000J0D01*
G01*
X152925000Y-100325000D01*
G75*
G02*
X153075000Y-100475000I0J-150000D01*
G01*
G37*
G36*
G01*
X153075000Y-101745000D02*
X153075000Y-102045000D01*
G75*
G02*
X152925000Y-102195000I-150000J0D01*
G01*
X151175000Y-102195000D01*
G75*
G02*
X151025000Y-102045000I0J150000D01*
G01*
X151025000Y-101745000D01*
G75*
G02*
X151175000Y-101595000I150000J0D01*
G01*
X152925000Y-101595000D01*
G75*
G02*
X153075000Y-101745000I0J-150000D01*
G01*
G37*
G36*
G01*
X153075000Y-103015000D02*
X153075000Y-103315000D01*
G75*
G02*
X152925000Y-103465000I-150000J0D01*
G01*
X151175000Y-103465000D01*
G75*
G02*
X151025000Y-103315000I0J150000D01*
G01*
X151025000Y-103015000D01*
G75*
G02*
X151175000Y-102865000I150000J0D01*
G01*
X152925000Y-102865000D01*
G75*
G02*
X153075000Y-103015000I0J-150000D01*
G01*
G37*
G36*
G01*
X153075000Y-104285000D02*
X153075000Y-104585000D01*
G75*
G02*
X152925000Y-104735000I-150000J0D01*
G01*
X151175000Y-104735000D01*
G75*
G02*
X151025000Y-104585000I0J150000D01*
G01*
X151025000Y-104285000D01*
G75*
G02*
X151175000Y-104135000I150000J0D01*
G01*
X152925000Y-104135000D01*
G75*
G02*
X153075000Y-104285000I0J-150000D01*
G01*
G37*
G36*
G01*
X153075000Y-105555000D02*
X153075000Y-105855000D01*
G75*
G02*
X152925000Y-106005000I-150000J0D01*
G01*
X151175000Y-106005000D01*
G75*
G02*
X151025000Y-105855000I0J150000D01*
G01*
X151025000Y-105555000D01*
G75*
G02*
X151175000Y-105405000I150000J0D01*
G01*
X152925000Y-105405000D01*
G75*
G02*
X153075000Y-105555000I0J-150000D01*
G01*
G37*
G36*
G01*
X153075000Y-106825000D02*
X153075000Y-107125000D01*
G75*
G02*
X152925000Y-107275000I-150000J0D01*
G01*
X151175000Y-107275000D01*
G75*
G02*
X151025000Y-107125000I0J150000D01*
G01*
X151025000Y-106825000D01*
G75*
G02*
X151175000Y-106675000I150000J0D01*
G01*
X152925000Y-106675000D01*
G75*
G02*
X153075000Y-106825000I0J-150000D01*
G01*
G37*
G36*
G01*
X153075000Y-108095000D02*
X153075000Y-108395000D01*
G75*
G02*
X152925000Y-108545000I-150000J0D01*
G01*
X151175000Y-108545000D01*
G75*
G02*
X151025000Y-108395000I0J150000D01*
G01*
X151025000Y-108095000D01*
G75*
G02*
X151175000Y-107945000I150000J0D01*
G01*
X152925000Y-107945000D01*
G75*
G02*
X153075000Y-108095000I0J-150000D01*
G01*
G37*
G36*
G01*
X153075000Y-109365000D02*
X153075000Y-109665000D01*
G75*
G02*
X152925000Y-109815000I-150000J0D01*
G01*
X151175000Y-109815000D01*
G75*
G02*
X151025000Y-109665000I0J150000D01*
G01*
X151025000Y-109365000D01*
G75*
G02*
X151175000Y-109215000I150000J0D01*
G01*
X152925000Y-109215000D01*
G75*
G02*
X153075000Y-109365000I0J-150000D01*
G01*
G37*
G36*
G01*
X153075000Y-110635000D02*
X153075000Y-110935000D01*
G75*
G02*
X152925000Y-111085000I-150000J0D01*
G01*
X151175000Y-111085000D01*
G75*
G02*
X151025000Y-110935000I0J150000D01*
G01*
X151025000Y-110635000D01*
G75*
G02*
X151175000Y-110485000I150000J0D01*
G01*
X152925000Y-110485000D01*
G75*
G02*
X153075000Y-110635000I0J-150000D01*
G01*
G37*
%TD*%
%TO.C,U2*%
G36*
G01*
X115525000Y-103555000D02*
X115525000Y-103255000D01*
G75*
G02*
X115675000Y-103105000I150000J0D01*
G01*
X117425000Y-103105000D01*
G75*
G02*
X117575000Y-103255000I0J-150000D01*
G01*
X117575000Y-103555000D01*
G75*
G02*
X117425000Y-103705000I-150000J0D01*
G01*
X115675000Y-103705000D01*
G75*
G02*
X115525000Y-103555000I0J150000D01*
G01*
G37*
G36*
G01*
X115525000Y-104825000D02*
X115525000Y-104525000D01*
G75*
G02*
X115675000Y-104375000I150000J0D01*
G01*
X117425000Y-104375000D01*
G75*
G02*
X117575000Y-104525000I0J-150000D01*
G01*
X117575000Y-104825000D01*
G75*
G02*
X117425000Y-104975000I-150000J0D01*
G01*
X115675000Y-104975000D01*
G75*
G02*
X115525000Y-104825000I0J150000D01*
G01*
G37*
G36*
G01*
X115525000Y-106095000D02*
X115525000Y-105795000D01*
G75*
G02*
X115675000Y-105645000I150000J0D01*
G01*
X117425000Y-105645000D01*
G75*
G02*
X117575000Y-105795000I0J-150000D01*
G01*
X117575000Y-106095000D01*
G75*
G02*
X117425000Y-106245000I-150000J0D01*
G01*
X115675000Y-106245000D01*
G75*
G02*
X115525000Y-106095000I0J150000D01*
G01*
G37*
G36*
G01*
X115525000Y-107365000D02*
X115525000Y-107065000D01*
G75*
G02*
X115675000Y-106915000I150000J0D01*
G01*
X117425000Y-106915000D01*
G75*
G02*
X117575000Y-107065000I0J-150000D01*
G01*
X117575000Y-107365000D01*
G75*
G02*
X117425000Y-107515000I-150000J0D01*
G01*
X115675000Y-107515000D01*
G75*
G02*
X115525000Y-107365000I0J150000D01*
G01*
G37*
G36*
G01*
X115525000Y-108635000D02*
X115525000Y-108335000D01*
G75*
G02*
X115675000Y-108185000I150000J0D01*
G01*
X117425000Y-108185000D01*
G75*
G02*
X117575000Y-108335000I0J-150000D01*
G01*
X117575000Y-108635000D01*
G75*
G02*
X117425000Y-108785000I-150000J0D01*
G01*
X115675000Y-108785000D01*
G75*
G02*
X115525000Y-108635000I0J150000D01*
G01*
G37*
G36*
G01*
X115525000Y-109905000D02*
X115525000Y-109605000D01*
G75*
G02*
X115675000Y-109455000I150000J0D01*
G01*
X117425000Y-109455000D01*
G75*
G02*
X117575000Y-109605000I0J-150000D01*
G01*
X117575000Y-109905000D01*
G75*
G02*
X117425000Y-110055000I-150000J0D01*
G01*
X115675000Y-110055000D01*
G75*
G02*
X115525000Y-109905000I0J150000D01*
G01*
G37*
G36*
G01*
X115525000Y-111175000D02*
X115525000Y-110875000D01*
G75*
G02*
X115675000Y-110725000I150000J0D01*
G01*
X117425000Y-110725000D01*
G75*
G02*
X117575000Y-110875000I0J-150000D01*
G01*
X117575000Y-111175000D01*
G75*
G02*
X117425000Y-111325000I-150000J0D01*
G01*
X115675000Y-111325000D01*
G75*
G02*
X115525000Y-111175000I0J150000D01*
G01*
G37*
G36*
G01*
X115525000Y-112445000D02*
X115525000Y-112145000D01*
G75*
G02*
X115675000Y-111995000I150000J0D01*
G01*
X117425000Y-111995000D01*
G75*
G02*
X117575000Y-112145000I0J-150000D01*
G01*
X117575000Y-112445000D01*
G75*
G02*
X117425000Y-112595000I-150000J0D01*
G01*
X115675000Y-112595000D01*
G75*
G02*
X115525000Y-112445000I0J150000D01*
G01*
G37*
G36*
G01*
X106225000Y-112445000D02*
X106225000Y-112145000D01*
G75*
G02*
X106375000Y-111995000I150000J0D01*
G01*
X108125000Y-111995000D01*
G75*
G02*
X108275000Y-112145000I0J-150000D01*
G01*
X108275000Y-112445000D01*
G75*
G02*
X108125000Y-112595000I-150000J0D01*
G01*
X106375000Y-112595000D01*
G75*
G02*
X106225000Y-112445000I0J150000D01*
G01*
G37*
G36*
G01*
X106225000Y-111175000D02*
X106225000Y-110875000D01*
G75*
G02*
X106375000Y-110725000I150000J0D01*
G01*
X108125000Y-110725000D01*
G75*
G02*
X108275000Y-110875000I0J-150000D01*
G01*
X108275000Y-111175000D01*
G75*
G02*
X108125000Y-111325000I-150000J0D01*
G01*
X106375000Y-111325000D01*
G75*
G02*
X106225000Y-111175000I0J150000D01*
G01*
G37*
G36*
G01*
X106225000Y-109905000D02*
X106225000Y-109605000D01*
G75*
G02*
X106375000Y-109455000I150000J0D01*
G01*
X108125000Y-109455000D01*
G75*
G02*
X108275000Y-109605000I0J-150000D01*
G01*
X108275000Y-109905000D01*
G75*
G02*
X108125000Y-110055000I-150000J0D01*
G01*
X106375000Y-110055000D01*
G75*
G02*
X106225000Y-109905000I0J150000D01*
G01*
G37*
G36*
G01*
X106225000Y-108635000D02*
X106225000Y-108335000D01*
G75*
G02*
X106375000Y-108185000I150000J0D01*
G01*
X108125000Y-108185000D01*
G75*
G02*
X108275000Y-108335000I0J-150000D01*
G01*
X108275000Y-108635000D01*
G75*
G02*
X108125000Y-108785000I-150000J0D01*
G01*
X106375000Y-108785000D01*
G75*
G02*
X106225000Y-108635000I0J150000D01*
G01*
G37*
G36*
G01*
X106225000Y-107365000D02*
X106225000Y-107065000D01*
G75*
G02*
X106375000Y-106915000I150000J0D01*
G01*
X108125000Y-106915000D01*
G75*
G02*
X108275000Y-107065000I0J-150000D01*
G01*
X108275000Y-107365000D01*
G75*
G02*
X108125000Y-107515000I-150000J0D01*
G01*
X106375000Y-107515000D01*
G75*
G02*
X106225000Y-107365000I0J150000D01*
G01*
G37*
G36*
G01*
X106225000Y-106095000D02*
X106225000Y-105795000D01*
G75*
G02*
X106375000Y-105645000I150000J0D01*
G01*
X108125000Y-105645000D01*
G75*
G02*
X108275000Y-105795000I0J-150000D01*
G01*
X108275000Y-106095000D01*
G75*
G02*
X108125000Y-106245000I-150000J0D01*
G01*
X106375000Y-106245000D01*
G75*
G02*
X106225000Y-106095000I0J150000D01*
G01*
G37*
G36*
G01*
X106225000Y-104825000D02*
X106225000Y-104525000D01*
G75*
G02*
X106375000Y-104375000I150000J0D01*
G01*
X108125000Y-104375000D01*
G75*
G02*
X108275000Y-104525000I0J-150000D01*
G01*
X108275000Y-104825000D01*
G75*
G02*
X108125000Y-104975000I-150000J0D01*
G01*
X106375000Y-104975000D01*
G75*
G02*
X106225000Y-104825000I0J150000D01*
G01*
G37*
G36*
G01*
X106225000Y-103555000D02*
X106225000Y-103255000D01*
G75*
G02*
X106375000Y-103105000I150000J0D01*
G01*
X108125000Y-103105000D01*
G75*
G02*
X108275000Y-103255000I0J-150000D01*
G01*
X108275000Y-103555000D01*
G75*
G02*
X108125000Y-103705000I-150000J0D01*
G01*
X106375000Y-103705000D01*
G75*
G02*
X106225000Y-103555000I0J150000D01*
G01*
G37*
%TD*%
%TO.C,C4*%
G36*
G01*
X103450000Y-103125000D02*
X103450000Y-104075000D01*
G75*
G02*
X103200000Y-104325000I-250000J0D01*
G01*
X102700000Y-104325000D01*
G75*
G02*
X102450000Y-104075000I0J250000D01*
G01*
X102450000Y-103125000D01*
G75*
G02*
X102700000Y-102875000I250000J0D01*
G01*
X103200000Y-102875000D01*
G75*
G02*
X103450000Y-103125000I0J-250000D01*
G01*
G37*
G36*
G01*
X105350000Y-103125000D02*
X105350000Y-104075000D01*
G75*
G02*
X105100000Y-104325000I-250000J0D01*
G01*
X104600000Y-104325000D01*
G75*
G02*
X104350000Y-104075000I0J250000D01*
G01*
X104350000Y-103125000D01*
G75*
G02*
X104600000Y-102875000I250000J0D01*
G01*
X105100000Y-102875000D01*
G75*
G02*
X105350000Y-103125000I0J-250000D01*
G01*
G37*
%TD*%
%TO.C,C8*%
G36*
G01*
X139250000Y-100050000D02*
X139250000Y-101000000D01*
G75*
G02*
X139000000Y-101250000I-250000J0D01*
G01*
X138500000Y-101250000D01*
G75*
G02*
X138250000Y-101000000I0J250000D01*
G01*
X138250000Y-100050000D01*
G75*
G02*
X138500000Y-99800000I250000J0D01*
G01*
X139000000Y-99800000D01*
G75*
G02*
X139250000Y-100050000I0J-250000D01*
G01*
G37*
G36*
G01*
X141150000Y-100050000D02*
X141150000Y-101000000D01*
G75*
G02*
X140900000Y-101250000I-250000J0D01*
G01*
X140400000Y-101250000D01*
G75*
G02*
X140150000Y-101000000I0J250000D01*
G01*
X140150000Y-100050000D01*
G75*
G02*
X140400000Y-99800000I250000J0D01*
G01*
X140900000Y-99800000D01*
G75*
G02*
X141150000Y-100050000I0J-250000D01*
G01*
G37*
%TD*%
D10*
%TO.C,J10*%
X90180000Y-108060000D03*
X87640000Y-108060000D03*
X85100000Y-108060000D03*
X82560000Y-108060000D03*
X80020000Y-108060000D03*
X77480000Y-108060000D03*
X74940000Y-108060000D03*
X72400000Y-108060000D03*
X90180000Y-110600000D03*
X87640000Y-110600000D03*
X85100000Y-110600000D03*
X82560000Y-110600000D03*
X80020000Y-110600000D03*
X77480000Y-110600000D03*
X74940000Y-110600000D03*
G36*
G01*
X73000000Y-111450000D02*
X71800000Y-111450000D01*
G75*
G02*
X71550000Y-111200000I0J250000D01*
G01*
X71550000Y-110000000D01*
G75*
G02*
X71800000Y-109750000I250000J0D01*
G01*
X73000000Y-109750000D01*
G75*
G02*
X73250000Y-110000000I0J-250000D01*
G01*
X73250000Y-111200000D01*
G75*
G02*
X73000000Y-111450000I-250000J0D01*
G01*
G37*
%TD*%
%TO.C,R9*%
G36*
G01*
X154487500Y-113250001D02*
X154487500Y-112349999D01*
G75*
G02*
X154737499Y-112100000I249999J0D01*
G01*
X155262501Y-112100000D01*
G75*
G02*
X155512500Y-112349999I0J-249999D01*
G01*
X155512500Y-113250001D01*
G75*
G02*
X155262501Y-113500000I-249999J0D01*
G01*
X154737499Y-113500000D01*
G75*
G02*
X154487500Y-113250001I0J249999D01*
G01*
G37*
G36*
G01*
X152662500Y-113250001D02*
X152662500Y-112349999D01*
G75*
G02*
X152912499Y-112100000I249999J0D01*
G01*
X153437501Y-112100000D01*
G75*
G02*
X153687500Y-112349999I0J-249999D01*
G01*
X153687500Y-113250001D01*
G75*
G02*
X153437501Y-113500000I-249999J0D01*
G01*
X152912499Y-113500000D01*
G75*
G02*
X152662500Y-113250001I0J249999D01*
G01*
G37*
%TD*%
%TO.C,R8*%
G36*
G01*
X157800000Y-109850001D02*
X157800000Y-108949999D01*
G75*
G02*
X158049999Y-108700000I249999J0D01*
G01*
X158575001Y-108700000D01*
G75*
G02*
X158825000Y-108949999I0J-249999D01*
G01*
X158825000Y-109850001D01*
G75*
G02*
X158575001Y-110100000I-249999J0D01*
G01*
X158049999Y-110100000D01*
G75*
G02*
X157800000Y-109850001I0J249999D01*
G01*
G37*
G36*
G01*
X155975000Y-109850001D02*
X155975000Y-108949999D01*
G75*
G02*
X156224999Y-108700000I249999J0D01*
G01*
X156750001Y-108700000D01*
G75*
G02*
X157000000Y-108949999I0J-249999D01*
G01*
X157000000Y-109850001D01*
G75*
G02*
X156750001Y-110100000I-249999J0D01*
G01*
X156224999Y-110100000D01*
G75*
G02*
X155975000Y-109850001I0J249999D01*
G01*
G37*
%TD*%
%TO.C,R7*%
G36*
G01*
X157487500Y-106450001D02*
X157487500Y-105549999D01*
G75*
G02*
X157737499Y-105300000I249999J0D01*
G01*
X158262501Y-105300000D01*
G75*
G02*
X158512500Y-105549999I0J-249999D01*
G01*
X158512500Y-106450001D01*
G75*
G02*
X158262501Y-106700000I-249999J0D01*
G01*
X157737499Y-106700000D01*
G75*
G02*
X157487500Y-106450001I0J249999D01*
G01*
G37*
G36*
G01*
X155662500Y-106450001D02*
X155662500Y-105549999D01*
G75*
G02*
X155912499Y-105300000I249999J0D01*
G01*
X156437501Y-105300000D01*
G75*
G02*
X156687500Y-105549999I0J-249999D01*
G01*
X156687500Y-106450001D01*
G75*
G02*
X156437501Y-106700000I-249999J0D01*
G01*
X155912499Y-106700000D01*
G75*
G02*
X155662500Y-106450001I0J249999D01*
G01*
G37*
%TD*%
%TO.C,C1*%
G36*
G01*
X76799999Y-95175000D02*
X79000001Y-95175000D01*
G75*
G02*
X79250000Y-95424999I0J-249999D01*
G01*
X79250000Y-96075001D01*
G75*
G02*
X79000001Y-96325000I-249999J0D01*
G01*
X76799999Y-96325000D01*
G75*
G02*
X76550000Y-96075001I0J249999D01*
G01*
X76550000Y-95424999D01*
G75*
G02*
X76799999Y-95175000I249999J0D01*
G01*
G37*
G36*
G01*
X76799999Y-92225000D02*
X79000001Y-92225000D01*
G75*
G02*
X79250000Y-92474999I0J-249999D01*
G01*
X79250000Y-93125001D01*
G75*
G02*
X79000001Y-93375000I-249999J0D01*
G01*
X76799999Y-93375000D01*
G75*
G02*
X76550000Y-93125001I0J249999D01*
G01*
X76550000Y-92474999D01*
G75*
G02*
X76799999Y-92225000I249999J0D01*
G01*
G37*
%TD*%
%TO.C,U1*%
G36*
G01*
X115525000Y-91305000D02*
X115525000Y-91005000D01*
G75*
G02*
X115675000Y-90855000I150000J0D01*
G01*
X117425000Y-90855000D01*
G75*
G02*
X117575000Y-91005000I0J-150000D01*
G01*
X117575000Y-91305000D01*
G75*
G02*
X117425000Y-91455000I-150000J0D01*
G01*
X115675000Y-91455000D01*
G75*
G02*
X115525000Y-91305000I0J150000D01*
G01*
G37*
G36*
G01*
X115525000Y-92575000D02*
X115525000Y-92275000D01*
G75*
G02*
X115675000Y-92125000I150000J0D01*
G01*
X117425000Y-92125000D01*
G75*
G02*
X117575000Y-92275000I0J-150000D01*
G01*
X117575000Y-92575000D01*
G75*
G02*
X117425000Y-92725000I-150000J0D01*
G01*
X115675000Y-92725000D01*
G75*
G02*
X115525000Y-92575000I0J150000D01*
G01*
G37*
G36*
G01*
X115525000Y-93845000D02*
X115525000Y-93545000D01*
G75*
G02*
X115675000Y-93395000I150000J0D01*
G01*
X117425000Y-93395000D01*
G75*
G02*
X117575000Y-93545000I0J-150000D01*
G01*
X117575000Y-93845000D01*
G75*
G02*
X117425000Y-93995000I-150000J0D01*
G01*
X115675000Y-93995000D01*
G75*
G02*
X115525000Y-93845000I0J150000D01*
G01*
G37*
G36*
G01*
X115525000Y-95115000D02*
X115525000Y-94815000D01*
G75*
G02*
X115675000Y-94665000I150000J0D01*
G01*
X117425000Y-94665000D01*
G75*
G02*
X117575000Y-94815000I0J-150000D01*
G01*
X117575000Y-95115000D01*
G75*
G02*
X117425000Y-95265000I-150000J0D01*
G01*
X115675000Y-95265000D01*
G75*
G02*
X115525000Y-95115000I0J150000D01*
G01*
G37*
G36*
G01*
X115525000Y-96385000D02*
X115525000Y-96085000D01*
G75*
G02*
X115675000Y-95935000I150000J0D01*
G01*
X117425000Y-95935000D01*
G75*
G02*
X117575000Y-96085000I0J-150000D01*
G01*
X117575000Y-96385000D01*
G75*
G02*
X117425000Y-96535000I-150000J0D01*
G01*
X115675000Y-96535000D01*
G75*
G02*
X115525000Y-96385000I0J150000D01*
G01*
G37*
G36*
G01*
X115525000Y-97655000D02*
X115525000Y-97355000D01*
G75*
G02*
X115675000Y-97205000I150000J0D01*
G01*
X117425000Y-97205000D01*
G75*
G02*
X117575000Y-97355000I0J-150000D01*
G01*
X117575000Y-97655000D01*
G75*
G02*
X117425000Y-97805000I-150000J0D01*
G01*
X115675000Y-97805000D01*
G75*
G02*
X115525000Y-97655000I0J150000D01*
G01*
G37*
G36*
G01*
X115525000Y-98925000D02*
X115525000Y-98625000D01*
G75*
G02*
X115675000Y-98475000I150000J0D01*
G01*
X117425000Y-98475000D01*
G75*
G02*
X117575000Y-98625000I0J-150000D01*
G01*
X117575000Y-98925000D01*
G75*
G02*
X117425000Y-99075000I-150000J0D01*
G01*
X115675000Y-99075000D01*
G75*
G02*
X115525000Y-98925000I0J150000D01*
G01*
G37*
G36*
G01*
X115525000Y-100195000D02*
X115525000Y-99895000D01*
G75*
G02*
X115675000Y-99745000I150000J0D01*
G01*
X117425000Y-99745000D01*
G75*
G02*
X117575000Y-99895000I0J-150000D01*
G01*
X117575000Y-100195000D01*
G75*
G02*
X117425000Y-100345000I-150000J0D01*
G01*
X115675000Y-100345000D01*
G75*
G02*
X115525000Y-100195000I0J150000D01*
G01*
G37*
G36*
G01*
X106225000Y-100195000D02*
X106225000Y-99895000D01*
G75*
G02*
X106375000Y-99745000I150000J0D01*
G01*
X108125000Y-99745000D01*
G75*
G02*
X108275000Y-99895000I0J-150000D01*
G01*
X108275000Y-100195000D01*
G75*
G02*
X108125000Y-100345000I-150000J0D01*
G01*
X106375000Y-100345000D01*
G75*
G02*
X106225000Y-100195000I0J150000D01*
G01*
G37*
G36*
G01*
X106225000Y-98925000D02*
X106225000Y-98625000D01*
G75*
G02*
X106375000Y-98475000I150000J0D01*
G01*
X108125000Y-98475000D01*
G75*
G02*
X108275000Y-98625000I0J-150000D01*
G01*
X108275000Y-98925000D01*
G75*
G02*
X108125000Y-99075000I-150000J0D01*
G01*
X106375000Y-99075000D01*
G75*
G02*
X106225000Y-98925000I0J150000D01*
G01*
G37*
G36*
G01*
X106225000Y-97655000D02*
X106225000Y-97355000D01*
G75*
G02*
X106375000Y-97205000I150000J0D01*
G01*
X108125000Y-97205000D01*
G75*
G02*
X108275000Y-97355000I0J-150000D01*
G01*
X108275000Y-97655000D01*
G75*
G02*
X108125000Y-97805000I-150000J0D01*
G01*
X106375000Y-97805000D01*
G75*
G02*
X106225000Y-97655000I0J150000D01*
G01*
G37*
G36*
G01*
X106225000Y-96385000D02*
X106225000Y-96085000D01*
G75*
G02*
X106375000Y-95935000I150000J0D01*
G01*
X108125000Y-95935000D01*
G75*
G02*
X108275000Y-96085000I0J-150000D01*
G01*
X108275000Y-96385000D01*
G75*
G02*
X108125000Y-96535000I-150000J0D01*
G01*
X106375000Y-96535000D01*
G75*
G02*
X106225000Y-96385000I0J150000D01*
G01*
G37*
G36*
G01*
X106225000Y-95115000D02*
X106225000Y-94815000D01*
G75*
G02*
X106375000Y-94665000I150000J0D01*
G01*
X108125000Y-94665000D01*
G75*
G02*
X108275000Y-94815000I0J-150000D01*
G01*
X108275000Y-95115000D01*
G75*
G02*
X108125000Y-95265000I-150000J0D01*
G01*
X106375000Y-95265000D01*
G75*
G02*
X106225000Y-95115000I0J150000D01*
G01*
G37*
G36*
G01*
X106225000Y-93845000D02*
X106225000Y-93545000D01*
G75*
G02*
X106375000Y-93395000I150000J0D01*
G01*
X108125000Y-93395000D01*
G75*
G02*
X108275000Y-93545000I0J-150000D01*
G01*
X108275000Y-93845000D01*
G75*
G02*
X108125000Y-93995000I-150000J0D01*
G01*
X106375000Y-93995000D01*
G75*
G02*
X106225000Y-93845000I0J150000D01*
G01*
G37*
G36*
G01*
X106225000Y-92575000D02*
X106225000Y-92275000D01*
G75*
G02*
X106375000Y-92125000I150000J0D01*
G01*
X108125000Y-92125000D01*
G75*
G02*
X108275000Y-92275000I0J-150000D01*
G01*
X108275000Y-92575000D01*
G75*
G02*
X108125000Y-92725000I-150000J0D01*
G01*
X106375000Y-92725000D01*
G75*
G02*
X106225000Y-92575000I0J150000D01*
G01*
G37*
G36*
G01*
X106225000Y-91305000D02*
X106225000Y-91005000D01*
G75*
G02*
X106375000Y-90855000I150000J0D01*
G01*
X108125000Y-90855000D01*
G75*
G02*
X108275000Y-91005000I0J-150000D01*
G01*
X108275000Y-91305000D01*
G75*
G02*
X108125000Y-91455000I-150000J0D01*
G01*
X106375000Y-91455000D01*
G75*
G02*
X106225000Y-91305000I0J150000D01*
G01*
G37*
%TD*%
%TO.C,R6*%
G36*
G01*
X158112500Y-103050001D02*
X158112500Y-102149999D01*
G75*
G02*
X158362499Y-101900000I249999J0D01*
G01*
X158887501Y-101900000D01*
G75*
G02*
X159137500Y-102149999I0J-249999D01*
G01*
X159137500Y-103050001D01*
G75*
G02*
X158887501Y-103300000I-249999J0D01*
G01*
X158362499Y-103300000D01*
G75*
G02*
X158112500Y-103050001I0J249999D01*
G01*
G37*
G36*
G01*
X156287500Y-103050001D02*
X156287500Y-102149999D01*
G75*
G02*
X156537499Y-101900000I249999J0D01*
G01*
X157062501Y-101900000D01*
G75*
G02*
X157312500Y-102149999I0J-249999D01*
G01*
X157312500Y-103050001D01*
G75*
G02*
X157062501Y-103300000I-249999J0D01*
G01*
X156537499Y-103300000D01*
G75*
G02*
X156287500Y-103050001I0J249999D01*
G01*
G37*
%TD*%
%TO.C,R5*%
G36*
G01*
X159287500Y-99850001D02*
X159287500Y-98949999D01*
G75*
G02*
X159537499Y-98700000I249999J0D01*
G01*
X160062501Y-98700000D01*
G75*
G02*
X160312500Y-98949999I0J-249999D01*
G01*
X160312500Y-99850001D01*
G75*
G02*
X160062501Y-100100000I-249999J0D01*
G01*
X159537499Y-100100000D01*
G75*
G02*
X159287500Y-99850001I0J249999D01*
G01*
G37*
G36*
G01*
X157462500Y-99850001D02*
X157462500Y-98949999D01*
G75*
G02*
X157712499Y-98700000I249999J0D01*
G01*
X158237501Y-98700000D01*
G75*
G02*
X158487500Y-98949999I0J-249999D01*
G01*
X158487500Y-99850001D01*
G75*
G02*
X158237501Y-100100000I-249999J0D01*
G01*
X157712499Y-100100000D01*
G75*
G02*
X157462500Y-99850001I0J249999D01*
G01*
G37*
%TD*%
%TO.C,R4*%
G36*
G01*
X159050001Y-93387500D02*
X158149999Y-93387500D01*
G75*
G02*
X157900000Y-93137501I0J249999D01*
G01*
X157900000Y-92612499D01*
G75*
G02*
X158149999Y-92362500I249999J0D01*
G01*
X159050001Y-92362500D01*
G75*
G02*
X159300000Y-92612499I0J-249999D01*
G01*
X159300000Y-93137501D01*
G75*
G02*
X159050001Y-93387500I-249999J0D01*
G01*
G37*
G36*
G01*
X159050001Y-95212500D02*
X158149999Y-95212500D01*
G75*
G02*
X157900000Y-94962501I0J249999D01*
G01*
X157900000Y-94437499D01*
G75*
G02*
X158149999Y-94187500I249999J0D01*
G01*
X159050001Y-94187500D01*
G75*
G02*
X159300000Y-94437499I0J-249999D01*
G01*
X159300000Y-94962501D01*
G75*
G02*
X159050001Y-95212500I-249999J0D01*
G01*
G37*
%TD*%
%TO.C,R3*%
G36*
G01*
X154450001Y-93087500D02*
X153549999Y-93087500D01*
G75*
G02*
X153300000Y-92837501I0J249999D01*
G01*
X153300000Y-92312499D01*
G75*
G02*
X153549999Y-92062500I249999J0D01*
G01*
X154450001Y-92062500D01*
G75*
G02*
X154700000Y-92312499I0J-249999D01*
G01*
X154700000Y-92837501D01*
G75*
G02*
X154450001Y-93087500I-249999J0D01*
G01*
G37*
G36*
G01*
X154450001Y-94912500D02*
X153549999Y-94912500D01*
G75*
G02*
X153300000Y-94662501I0J249999D01*
G01*
X153300000Y-94137499D01*
G75*
G02*
X153549999Y-93887500I249999J0D01*
G01*
X154450001Y-93887500D01*
G75*
G02*
X154700000Y-94137499I0J-249999D01*
G01*
X154700000Y-94662501D01*
G75*
G02*
X154450001Y-94912500I-249999J0D01*
G01*
G37*
%TD*%
%TO.C,R2*%
G36*
G01*
X149812500Y-94349999D02*
X149812500Y-95250001D01*
G75*
G02*
X149562501Y-95500000I-249999J0D01*
G01*
X149037499Y-95500000D01*
G75*
G02*
X148787500Y-95250001I0J249999D01*
G01*
X148787500Y-94349999D01*
G75*
G02*
X149037499Y-94100000I249999J0D01*
G01*
X149562501Y-94100000D01*
G75*
G02*
X149812500Y-94349999I0J-249999D01*
G01*
G37*
G36*
G01*
X147987500Y-94349999D02*
X147987500Y-95250001D01*
G75*
G02*
X147737501Y-95500000I-249999J0D01*
G01*
X147212499Y-95500000D01*
G75*
G02*
X146962500Y-95250001I0J249999D01*
G01*
X146962500Y-94349999D01*
G75*
G02*
X147212499Y-94100000I249999J0D01*
G01*
X147737501Y-94100000D01*
G75*
G02*
X147987500Y-94349999I0J-249999D01*
G01*
G37*
%TD*%
D11*
%TO.C,J9*%
X56440000Y-110800000D03*
G36*
G01*
X53030000Y-111645001D02*
X53030000Y-109954999D01*
G75*
G02*
X53279999Y-109705000I249999J0D01*
G01*
X54520001Y-109705000D01*
G75*
G02*
X54770000Y-109954999I0J-249999D01*
G01*
X54770000Y-111645001D01*
G75*
G02*
X54520001Y-111895000I-249999J0D01*
G01*
X53279999Y-111895000D01*
G75*
G02*
X53030000Y-111645001I0J249999D01*
G01*
G37*
%TD*%
%TO.C,J8*%
X133060000Y-110500000D03*
G36*
G01*
X136470000Y-109654999D02*
X136470000Y-111345001D01*
G75*
G02*
X136220001Y-111595000I-249999J0D01*
G01*
X134979999Y-111595000D01*
G75*
G02*
X134730000Y-111345001I0J249999D01*
G01*
X134730000Y-109654999D01*
G75*
G02*
X134979999Y-109405000I249999J0D01*
G01*
X136220001Y-109405000D01*
G75*
G02*
X136470000Y-109654999I0J-249999D01*
G01*
G37*
%TD*%
D12*
%TO.C,J7*%
X234460000Y-77900000D03*
X237000000Y-77900000D03*
D13*
X242080000Y-72820000D03*
X231920000Y-72820000D03*
%TD*%
D12*
%TO.C,J6*%
X209060000Y-77900000D03*
X211600000Y-77900000D03*
D13*
X216680000Y-72820000D03*
X206520000Y-72820000D03*
%TD*%
D12*
%TO.C,J5*%
X183660000Y-77900000D03*
X186200000Y-77900000D03*
D13*
X191280000Y-72820000D03*
X181120000Y-72820000D03*
%TD*%
D12*
%TO.C,J4*%
X158260000Y-77900000D03*
X160800000Y-77900000D03*
D13*
X165880000Y-72820000D03*
X155720000Y-72820000D03*
%TD*%
D12*
%TO.C,J3*%
X132860000Y-77900000D03*
X135400000Y-77900000D03*
D13*
X140480000Y-72820000D03*
X130320000Y-72820000D03*
%TD*%
D12*
%TO.C,J2*%
X107460000Y-77900000D03*
X110000000Y-77900000D03*
D13*
X115080000Y-72820000D03*
X104920000Y-72820000D03*
%TD*%
D12*
%TO.C,J1*%
X82060000Y-77900000D03*
X84600000Y-77900000D03*
D13*
X89680000Y-72820000D03*
X79520000Y-72820000D03*
%TD*%
D12*
%TO.C,J0*%
X56660000Y-77900000D03*
X59200000Y-77900000D03*
D13*
X64280000Y-72820000D03*
X54120000Y-72820000D03*
%TD*%
%TO.C,C7*%
G36*
G01*
X139200000Y-106325000D02*
X139200000Y-107275000D01*
G75*
G02*
X138950000Y-107525000I-250000J0D01*
G01*
X138450000Y-107525000D01*
G75*
G02*
X138200000Y-107275000I0J250000D01*
G01*
X138200000Y-106325000D01*
G75*
G02*
X138450000Y-106075000I250000J0D01*
G01*
X138950000Y-106075000D01*
G75*
G02*
X139200000Y-106325000I0J-250000D01*
G01*
G37*
G36*
G01*
X141100000Y-106325000D02*
X141100000Y-107275000D01*
G75*
G02*
X140850000Y-107525000I-250000J0D01*
G01*
X140350000Y-107525000D01*
G75*
G02*
X140100000Y-107275000I0J250000D01*
G01*
X140100000Y-106325000D01*
G75*
G02*
X140350000Y-106075000I250000J0D01*
G01*
X140850000Y-106075000D01*
G75*
G02*
X141100000Y-106325000I0J-250000D01*
G01*
G37*
%TD*%
%TO.C,C6*%
G36*
G01*
X120100000Y-103825000D02*
X120100000Y-102875000D01*
G75*
G02*
X120350000Y-102625000I250000J0D01*
G01*
X120850000Y-102625000D01*
G75*
G02*
X121100000Y-102875000I0J-250000D01*
G01*
X121100000Y-103825000D01*
G75*
G02*
X120850000Y-104075000I-250000J0D01*
G01*
X120350000Y-104075000D01*
G75*
G02*
X120100000Y-103825000I0J250000D01*
G01*
G37*
G36*
G01*
X118200000Y-103825000D02*
X118200000Y-102875000D01*
G75*
G02*
X118450000Y-102625000I250000J0D01*
G01*
X118950000Y-102625000D01*
G75*
G02*
X119200000Y-102875000I0J-250000D01*
G01*
X119200000Y-103825000D01*
G75*
G02*
X118950000Y-104075000I-250000J0D01*
G01*
X118450000Y-104075000D01*
G75*
G02*
X118200000Y-103825000I0J250000D01*
G01*
G37*
%TD*%
%TO.C,C5*%
G36*
G01*
X120100000Y-91575000D02*
X120100000Y-90625000D01*
G75*
G02*
X120350000Y-90375000I250000J0D01*
G01*
X120850000Y-90375000D01*
G75*
G02*
X121100000Y-90625000I0J-250000D01*
G01*
X121100000Y-91575000D01*
G75*
G02*
X120850000Y-91825000I-250000J0D01*
G01*
X120350000Y-91825000D01*
G75*
G02*
X120100000Y-91575000I0J250000D01*
G01*
G37*
G36*
G01*
X118200000Y-91575000D02*
X118200000Y-90625000D01*
G75*
G02*
X118450000Y-90375000I250000J0D01*
G01*
X118950000Y-90375000D01*
G75*
G02*
X119200000Y-90625000I0J-250000D01*
G01*
X119200000Y-91575000D01*
G75*
G02*
X118950000Y-91825000I-250000J0D01*
G01*
X118450000Y-91825000D01*
G75*
G02*
X118200000Y-91575000I0J250000D01*
G01*
G37*
%TD*%
%TO.C,C3*%
G36*
G01*
X103350000Y-90825000D02*
X103350000Y-91775000D01*
G75*
G02*
X103100000Y-92025000I-250000J0D01*
G01*
X102600000Y-92025000D01*
G75*
G02*
X102350000Y-91775000I0J250000D01*
G01*
X102350000Y-90825000D01*
G75*
G02*
X102600000Y-90575000I250000J0D01*
G01*
X103100000Y-90575000D01*
G75*
G02*
X103350000Y-90825000I0J-250000D01*
G01*
G37*
G36*
G01*
X105250000Y-90825000D02*
X105250000Y-91775000D01*
G75*
G02*
X105000000Y-92025000I-250000J0D01*
G01*
X104500000Y-92025000D01*
G75*
G02*
X104250000Y-91775000I0J250000D01*
G01*
X104250000Y-90825000D01*
G75*
G02*
X104500000Y-90575000I250000J0D01*
G01*
X105000000Y-90575000D01*
G75*
G02*
X105250000Y-90825000I0J-250000D01*
G01*
G37*
%TD*%
%TO.C,C2*%
G36*
G01*
X126025000Y-109499999D02*
X126025000Y-111700001D01*
G75*
G02*
X125775001Y-111950000I-249999J0D01*
G01*
X125124999Y-111950000D01*
G75*
G02*
X124875000Y-111700001I0J249999D01*
G01*
X124875000Y-109499999D01*
G75*
G02*
X125124999Y-109250000I249999J0D01*
G01*
X125775001Y-109250000D01*
G75*
G02*
X126025000Y-109499999I0J-249999D01*
G01*
G37*
G36*
G01*
X128975000Y-109499999D02*
X128975000Y-111700001D01*
G75*
G02*
X128725001Y-111950000I-249999J0D01*
G01*
X128074999Y-111950000D01*
G75*
G02*
X127825000Y-111700001I0J249999D01*
G01*
X127825000Y-109499999D01*
G75*
G02*
X128074999Y-109250000I249999J0D01*
G01*
X128725001Y-109250000D01*
G75*
G02*
X128975000Y-109499999I0J-249999D01*
G01*
G37*
%TD*%
M02*
