%TF.GenerationSoftware,KiCad,Pcbnew,(5.1.10-1-10_14)*%
%TF.CreationDate,2021-10-06T14:17:19-04:00*%
%TF.ProjectId,BufferBox,42756666-6572-4426-9f78-2e6b69636164,1.0*%
%TF.SameCoordinates,Original*%
%TF.FileFunction,Soldermask,Top*%
%TF.FilePolarity,Negative*%
%FSLAX46Y46*%
G04 Gerber Fmt 4.6, Leading zero omitted, Abs format (unit mm)*
G04 Created by KiCad (PCBNEW (5.1.10-1-10_14)) date 2021-10-06 14:17:19*
%MOMM*%
%LPD*%
G01*
G04 APERTURE LIST*
%ADD10C,1.700000*%
%ADD11O,1.740000X2.190000*%
%ADD12O,1.600000X2.500000*%
%ADD13O,3.500000X7.000000*%
G04 APERTURE END LIST*
%TO.C,U3*%
G36*
G01*
X143775000Y-108685000D02*
X143775000Y-108985000D01*
G75*
G02*
X143625000Y-109135000I-150000J0D01*
G01*
X141875000Y-109135000D01*
G75*
G02*
X141725000Y-108985000I0J150000D01*
G01*
X141725000Y-108685000D01*
G75*
G02*
X141875000Y-108535000I150000J0D01*
G01*
X143625000Y-108535000D01*
G75*
G02*
X143775000Y-108685000I0J-150000D01*
G01*
G37*
G36*
G01*
X143775000Y-107415000D02*
X143775000Y-107715000D01*
G75*
G02*
X143625000Y-107865000I-150000J0D01*
G01*
X141875000Y-107865000D01*
G75*
G02*
X141725000Y-107715000I0J150000D01*
G01*
X141725000Y-107415000D01*
G75*
G02*
X141875000Y-107265000I150000J0D01*
G01*
X143625000Y-107265000D01*
G75*
G02*
X143775000Y-107415000I0J-150000D01*
G01*
G37*
G36*
G01*
X143775000Y-106145000D02*
X143775000Y-106445000D01*
G75*
G02*
X143625000Y-106595000I-150000J0D01*
G01*
X141875000Y-106595000D01*
G75*
G02*
X141725000Y-106445000I0J150000D01*
G01*
X141725000Y-106145000D01*
G75*
G02*
X141875000Y-105995000I150000J0D01*
G01*
X143625000Y-105995000D01*
G75*
G02*
X143775000Y-106145000I0J-150000D01*
G01*
G37*
G36*
G01*
X143775000Y-104875000D02*
X143775000Y-105175000D01*
G75*
G02*
X143625000Y-105325000I-150000J0D01*
G01*
X141875000Y-105325000D01*
G75*
G02*
X141725000Y-105175000I0J150000D01*
G01*
X141725000Y-104875000D01*
G75*
G02*
X141875000Y-104725000I150000J0D01*
G01*
X143625000Y-104725000D01*
G75*
G02*
X143775000Y-104875000I0J-150000D01*
G01*
G37*
G36*
G01*
X143775000Y-103605000D02*
X143775000Y-103905000D01*
G75*
G02*
X143625000Y-104055000I-150000J0D01*
G01*
X141875000Y-104055000D01*
G75*
G02*
X141725000Y-103905000I0J150000D01*
G01*
X141725000Y-103605000D01*
G75*
G02*
X141875000Y-103455000I150000J0D01*
G01*
X143625000Y-103455000D01*
G75*
G02*
X143775000Y-103605000I0J-150000D01*
G01*
G37*
G36*
G01*
X143775000Y-102335000D02*
X143775000Y-102635000D01*
G75*
G02*
X143625000Y-102785000I-150000J0D01*
G01*
X141875000Y-102785000D01*
G75*
G02*
X141725000Y-102635000I0J150000D01*
G01*
X141725000Y-102335000D01*
G75*
G02*
X141875000Y-102185000I150000J0D01*
G01*
X143625000Y-102185000D01*
G75*
G02*
X143775000Y-102335000I0J-150000D01*
G01*
G37*
G36*
G01*
X143775000Y-101065000D02*
X143775000Y-101365000D01*
G75*
G02*
X143625000Y-101515000I-150000J0D01*
G01*
X141875000Y-101515000D01*
G75*
G02*
X141725000Y-101365000I0J150000D01*
G01*
X141725000Y-101065000D01*
G75*
G02*
X141875000Y-100915000I150000J0D01*
G01*
X143625000Y-100915000D01*
G75*
G02*
X143775000Y-101065000I0J-150000D01*
G01*
G37*
G36*
G01*
X143775000Y-99795000D02*
X143775000Y-100095000D01*
G75*
G02*
X143625000Y-100245000I-150000J0D01*
G01*
X141875000Y-100245000D01*
G75*
G02*
X141725000Y-100095000I0J150000D01*
G01*
X141725000Y-99795000D01*
G75*
G02*
X141875000Y-99645000I150000J0D01*
G01*
X143625000Y-99645000D01*
G75*
G02*
X143775000Y-99795000I0J-150000D01*
G01*
G37*
G36*
G01*
X143775000Y-98525000D02*
X143775000Y-98825000D01*
G75*
G02*
X143625000Y-98975000I-150000J0D01*
G01*
X141875000Y-98975000D01*
G75*
G02*
X141725000Y-98825000I0J150000D01*
G01*
X141725000Y-98525000D01*
G75*
G02*
X141875000Y-98375000I150000J0D01*
G01*
X143625000Y-98375000D01*
G75*
G02*
X143775000Y-98525000I0J-150000D01*
G01*
G37*
G36*
G01*
X143775000Y-97255000D02*
X143775000Y-97555000D01*
G75*
G02*
X143625000Y-97705000I-150000J0D01*
G01*
X141875000Y-97705000D01*
G75*
G02*
X141725000Y-97555000I0J150000D01*
G01*
X141725000Y-97255000D01*
G75*
G02*
X141875000Y-97105000I150000J0D01*
G01*
X143625000Y-97105000D01*
G75*
G02*
X143775000Y-97255000I0J-150000D01*
G01*
G37*
G36*
G01*
X143775000Y-95985000D02*
X143775000Y-96285000D01*
G75*
G02*
X143625000Y-96435000I-150000J0D01*
G01*
X141875000Y-96435000D01*
G75*
G02*
X141725000Y-96285000I0J150000D01*
G01*
X141725000Y-95985000D01*
G75*
G02*
X141875000Y-95835000I150000J0D01*
G01*
X143625000Y-95835000D01*
G75*
G02*
X143775000Y-95985000I0J-150000D01*
G01*
G37*
G36*
G01*
X143775000Y-94715000D02*
X143775000Y-95015000D01*
G75*
G02*
X143625000Y-95165000I-150000J0D01*
G01*
X141875000Y-95165000D01*
G75*
G02*
X141725000Y-95015000I0J150000D01*
G01*
X141725000Y-94715000D01*
G75*
G02*
X141875000Y-94565000I150000J0D01*
G01*
X143625000Y-94565000D01*
G75*
G02*
X143775000Y-94715000I0J-150000D01*
G01*
G37*
G36*
G01*
X153075000Y-94715000D02*
X153075000Y-95015000D01*
G75*
G02*
X152925000Y-95165000I-150000J0D01*
G01*
X151175000Y-95165000D01*
G75*
G02*
X151025000Y-95015000I0J150000D01*
G01*
X151025000Y-94715000D01*
G75*
G02*
X151175000Y-94565000I150000J0D01*
G01*
X152925000Y-94565000D01*
G75*
G02*
X153075000Y-94715000I0J-150000D01*
G01*
G37*
G36*
G01*
X153075000Y-95985000D02*
X153075000Y-96285000D01*
G75*
G02*
X152925000Y-96435000I-150000J0D01*
G01*
X151175000Y-96435000D01*
G75*
G02*
X151025000Y-96285000I0J150000D01*
G01*
X151025000Y-95985000D01*
G75*
G02*
X151175000Y-95835000I150000J0D01*
G01*
X152925000Y-95835000D01*
G75*
G02*
X153075000Y-95985000I0J-150000D01*
G01*
G37*
G36*
G01*
X153075000Y-97255000D02*
X153075000Y-97555000D01*
G75*
G02*
X152925000Y-97705000I-150000J0D01*
G01*
X151175000Y-97705000D01*
G75*
G02*
X151025000Y-97555000I0J150000D01*
G01*
X151025000Y-97255000D01*
G75*
G02*
X151175000Y-97105000I150000J0D01*
G01*
X152925000Y-97105000D01*
G75*
G02*
X153075000Y-97255000I0J-150000D01*
G01*
G37*
G36*
G01*
X153075000Y-98525000D02*
X153075000Y-98825000D01*
G75*
G02*
X152925000Y-98975000I-150000J0D01*
G01*
X151175000Y-98975000D01*
G75*
G02*
X151025000Y-98825000I0J150000D01*
G01*
X151025000Y-98525000D01*
G75*
G02*
X151175000Y-98375000I150000J0D01*
G01*
X152925000Y-98375000D01*
G75*
G02*
X153075000Y-98525000I0J-150000D01*
G01*
G37*
G36*
G01*
X153075000Y-99795000D02*
X153075000Y-100095000D01*
G75*
G02*
X152925000Y-100245000I-150000J0D01*
G01*
X151175000Y-100245000D01*
G75*
G02*
X151025000Y-100095000I0J150000D01*
G01*
X151025000Y-99795000D01*
G75*
G02*
X151175000Y-99645000I150000J0D01*
G01*
X152925000Y-99645000D01*
G75*
G02*
X153075000Y-99795000I0J-150000D01*
G01*
G37*
G36*
G01*
X153075000Y-101065000D02*
X153075000Y-101365000D01*
G75*
G02*
X152925000Y-101515000I-150000J0D01*
G01*
X151175000Y-101515000D01*
G75*
G02*
X151025000Y-101365000I0J150000D01*
G01*
X151025000Y-101065000D01*
G75*
G02*
X151175000Y-100915000I150000J0D01*
G01*
X152925000Y-100915000D01*
G75*
G02*
X153075000Y-101065000I0J-150000D01*
G01*
G37*
G36*
G01*
X153075000Y-102335000D02*
X153075000Y-102635000D01*
G75*
G02*
X152925000Y-102785000I-150000J0D01*
G01*
X151175000Y-102785000D01*
G75*
G02*
X151025000Y-102635000I0J150000D01*
G01*
X151025000Y-102335000D01*
G75*
G02*
X151175000Y-102185000I150000J0D01*
G01*
X152925000Y-102185000D01*
G75*
G02*
X153075000Y-102335000I0J-150000D01*
G01*
G37*
G36*
G01*
X153075000Y-103605000D02*
X153075000Y-103905000D01*
G75*
G02*
X152925000Y-104055000I-150000J0D01*
G01*
X151175000Y-104055000D01*
G75*
G02*
X151025000Y-103905000I0J150000D01*
G01*
X151025000Y-103605000D01*
G75*
G02*
X151175000Y-103455000I150000J0D01*
G01*
X152925000Y-103455000D01*
G75*
G02*
X153075000Y-103605000I0J-150000D01*
G01*
G37*
G36*
G01*
X153075000Y-104875000D02*
X153075000Y-105175000D01*
G75*
G02*
X152925000Y-105325000I-150000J0D01*
G01*
X151175000Y-105325000D01*
G75*
G02*
X151025000Y-105175000I0J150000D01*
G01*
X151025000Y-104875000D01*
G75*
G02*
X151175000Y-104725000I150000J0D01*
G01*
X152925000Y-104725000D01*
G75*
G02*
X153075000Y-104875000I0J-150000D01*
G01*
G37*
G36*
G01*
X153075000Y-106145000D02*
X153075000Y-106445000D01*
G75*
G02*
X152925000Y-106595000I-150000J0D01*
G01*
X151175000Y-106595000D01*
G75*
G02*
X151025000Y-106445000I0J150000D01*
G01*
X151025000Y-106145000D01*
G75*
G02*
X151175000Y-105995000I150000J0D01*
G01*
X152925000Y-105995000D01*
G75*
G02*
X153075000Y-106145000I0J-150000D01*
G01*
G37*
G36*
G01*
X153075000Y-107415000D02*
X153075000Y-107715000D01*
G75*
G02*
X152925000Y-107865000I-150000J0D01*
G01*
X151175000Y-107865000D01*
G75*
G02*
X151025000Y-107715000I0J150000D01*
G01*
X151025000Y-107415000D01*
G75*
G02*
X151175000Y-107265000I150000J0D01*
G01*
X152925000Y-107265000D01*
G75*
G02*
X153075000Y-107415000I0J-150000D01*
G01*
G37*
G36*
G01*
X153075000Y-108685000D02*
X153075000Y-108985000D01*
G75*
G02*
X152925000Y-109135000I-150000J0D01*
G01*
X151175000Y-109135000D01*
G75*
G02*
X151025000Y-108985000I0J150000D01*
G01*
X151025000Y-108685000D01*
G75*
G02*
X151175000Y-108535000I150000J0D01*
G01*
X152925000Y-108535000D01*
G75*
G02*
X153075000Y-108685000I0J-150000D01*
G01*
G37*
%TD*%
%TO.C,U2*%
G36*
G01*
X115525000Y-103555000D02*
X115525000Y-103255000D01*
G75*
G02*
X115675000Y-103105000I150000J0D01*
G01*
X117425000Y-103105000D01*
G75*
G02*
X117575000Y-103255000I0J-150000D01*
G01*
X117575000Y-103555000D01*
G75*
G02*
X117425000Y-103705000I-150000J0D01*
G01*
X115675000Y-103705000D01*
G75*
G02*
X115525000Y-103555000I0J150000D01*
G01*
G37*
G36*
G01*
X115525000Y-104825000D02*
X115525000Y-104525000D01*
G75*
G02*
X115675000Y-104375000I150000J0D01*
G01*
X117425000Y-104375000D01*
G75*
G02*
X117575000Y-104525000I0J-150000D01*
G01*
X117575000Y-104825000D01*
G75*
G02*
X117425000Y-104975000I-150000J0D01*
G01*
X115675000Y-104975000D01*
G75*
G02*
X115525000Y-104825000I0J150000D01*
G01*
G37*
G36*
G01*
X115525000Y-106095000D02*
X115525000Y-105795000D01*
G75*
G02*
X115675000Y-105645000I150000J0D01*
G01*
X117425000Y-105645000D01*
G75*
G02*
X117575000Y-105795000I0J-150000D01*
G01*
X117575000Y-106095000D01*
G75*
G02*
X117425000Y-106245000I-150000J0D01*
G01*
X115675000Y-106245000D01*
G75*
G02*
X115525000Y-106095000I0J150000D01*
G01*
G37*
G36*
G01*
X115525000Y-107365000D02*
X115525000Y-107065000D01*
G75*
G02*
X115675000Y-106915000I150000J0D01*
G01*
X117425000Y-106915000D01*
G75*
G02*
X117575000Y-107065000I0J-150000D01*
G01*
X117575000Y-107365000D01*
G75*
G02*
X117425000Y-107515000I-150000J0D01*
G01*
X115675000Y-107515000D01*
G75*
G02*
X115525000Y-107365000I0J150000D01*
G01*
G37*
G36*
G01*
X115525000Y-108635000D02*
X115525000Y-108335000D01*
G75*
G02*
X115675000Y-108185000I150000J0D01*
G01*
X117425000Y-108185000D01*
G75*
G02*
X117575000Y-108335000I0J-150000D01*
G01*
X117575000Y-108635000D01*
G75*
G02*
X117425000Y-108785000I-150000J0D01*
G01*
X115675000Y-108785000D01*
G75*
G02*
X115525000Y-108635000I0J150000D01*
G01*
G37*
G36*
G01*
X115525000Y-109905000D02*
X115525000Y-109605000D01*
G75*
G02*
X115675000Y-109455000I150000J0D01*
G01*
X117425000Y-109455000D01*
G75*
G02*
X117575000Y-109605000I0J-150000D01*
G01*
X117575000Y-109905000D01*
G75*
G02*
X117425000Y-110055000I-150000J0D01*
G01*
X115675000Y-110055000D01*
G75*
G02*
X115525000Y-109905000I0J150000D01*
G01*
G37*
G36*
G01*
X115525000Y-111175000D02*
X115525000Y-110875000D01*
G75*
G02*
X115675000Y-110725000I150000J0D01*
G01*
X117425000Y-110725000D01*
G75*
G02*
X117575000Y-110875000I0J-150000D01*
G01*
X117575000Y-111175000D01*
G75*
G02*
X117425000Y-111325000I-150000J0D01*
G01*
X115675000Y-111325000D01*
G75*
G02*
X115525000Y-111175000I0J150000D01*
G01*
G37*
G36*
G01*
X115525000Y-112445000D02*
X115525000Y-112145000D01*
G75*
G02*
X115675000Y-111995000I150000J0D01*
G01*
X117425000Y-111995000D01*
G75*
G02*
X117575000Y-112145000I0J-150000D01*
G01*
X117575000Y-112445000D01*
G75*
G02*
X117425000Y-112595000I-150000J0D01*
G01*
X115675000Y-112595000D01*
G75*
G02*
X115525000Y-112445000I0J150000D01*
G01*
G37*
G36*
G01*
X106225000Y-112445000D02*
X106225000Y-112145000D01*
G75*
G02*
X106375000Y-111995000I150000J0D01*
G01*
X108125000Y-111995000D01*
G75*
G02*
X108275000Y-112145000I0J-150000D01*
G01*
X108275000Y-112445000D01*
G75*
G02*
X108125000Y-112595000I-150000J0D01*
G01*
X106375000Y-112595000D01*
G75*
G02*
X106225000Y-112445000I0J150000D01*
G01*
G37*
G36*
G01*
X106225000Y-111175000D02*
X106225000Y-110875000D01*
G75*
G02*
X106375000Y-110725000I150000J0D01*
G01*
X108125000Y-110725000D01*
G75*
G02*
X108275000Y-110875000I0J-150000D01*
G01*
X108275000Y-111175000D01*
G75*
G02*
X108125000Y-111325000I-150000J0D01*
G01*
X106375000Y-111325000D01*
G75*
G02*
X106225000Y-111175000I0J150000D01*
G01*
G37*
G36*
G01*
X106225000Y-109905000D02*
X106225000Y-109605000D01*
G75*
G02*
X106375000Y-109455000I150000J0D01*
G01*
X108125000Y-109455000D01*
G75*
G02*
X108275000Y-109605000I0J-150000D01*
G01*
X108275000Y-109905000D01*
G75*
G02*
X108125000Y-110055000I-150000J0D01*
G01*
X106375000Y-110055000D01*
G75*
G02*
X106225000Y-109905000I0J150000D01*
G01*
G37*
G36*
G01*
X106225000Y-108635000D02*
X106225000Y-108335000D01*
G75*
G02*
X106375000Y-108185000I150000J0D01*
G01*
X108125000Y-108185000D01*
G75*
G02*
X108275000Y-108335000I0J-150000D01*
G01*
X108275000Y-108635000D01*
G75*
G02*
X108125000Y-108785000I-150000J0D01*
G01*
X106375000Y-108785000D01*
G75*
G02*
X106225000Y-108635000I0J150000D01*
G01*
G37*
G36*
G01*
X106225000Y-107365000D02*
X106225000Y-107065000D01*
G75*
G02*
X106375000Y-106915000I150000J0D01*
G01*
X108125000Y-106915000D01*
G75*
G02*
X108275000Y-107065000I0J-150000D01*
G01*
X108275000Y-107365000D01*
G75*
G02*
X108125000Y-107515000I-150000J0D01*
G01*
X106375000Y-107515000D01*
G75*
G02*
X106225000Y-107365000I0J150000D01*
G01*
G37*
G36*
G01*
X106225000Y-106095000D02*
X106225000Y-105795000D01*
G75*
G02*
X106375000Y-105645000I150000J0D01*
G01*
X108125000Y-105645000D01*
G75*
G02*
X108275000Y-105795000I0J-150000D01*
G01*
X108275000Y-106095000D01*
G75*
G02*
X108125000Y-106245000I-150000J0D01*
G01*
X106375000Y-106245000D01*
G75*
G02*
X106225000Y-106095000I0J150000D01*
G01*
G37*
G36*
G01*
X106225000Y-104825000D02*
X106225000Y-104525000D01*
G75*
G02*
X106375000Y-104375000I150000J0D01*
G01*
X108125000Y-104375000D01*
G75*
G02*
X108275000Y-104525000I0J-150000D01*
G01*
X108275000Y-104825000D01*
G75*
G02*
X108125000Y-104975000I-150000J0D01*
G01*
X106375000Y-104975000D01*
G75*
G02*
X106225000Y-104825000I0J150000D01*
G01*
G37*
G36*
G01*
X106225000Y-103555000D02*
X106225000Y-103255000D01*
G75*
G02*
X106375000Y-103105000I150000J0D01*
G01*
X108125000Y-103105000D01*
G75*
G02*
X108275000Y-103255000I0J-150000D01*
G01*
X108275000Y-103555000D01*
G75*
G02*
X108125000Y-103705000I-150000J0D01*
G01*
X106375000Y-103705000D01*
G75*
G02*
X106225000Y-103555000I0J150000D01*
G01*
G37*
%TD*%
%TO.C,C4*%
G36*
G01*
X103450000Y-103125000D02*
X103450000Y-104075000D01*
G75*
G02*
X103200000Y-104325000I-250000J0D01*
G01*
X102700000Y-104325000D01*
G75*
G02*
X102450000Y-104075000I0J250000D01*
G01*
X102450000Y-103125000D01*
G75*
G02*
X102700000Y-102875000I250000J0D01*
G01*
X103200000Y-102875000D01*
G75*
G02*
X103450000Y-103125000I0J-250000D01*
G01*
G37*
G36*
G01*
X105350000Y-103125000D02*
X105350000Y-104075000D01*
G75*
G02*
X105100000Y-104325000I-250000J0D01*
G01*
X104600000Y-104325000D01*
G75*
G02*
X104350000Y-104075000I0J250000D01*
G01*
X104350000Y-103125000D01*
G75*
G02*
X104600000Y-102875000I250000J0D01*
G01*
X105100000Y-102875000D01*
G75*
G02*
X105350000Y-103125000I0J-250000D01*
G01*
G37*
%TD*%
%TO.C,C8*%
G36*
G01*
X139150000Y-98375000D02*
X139150000Y-99325000D01*
G75*
G02*
X138900000Y-99575000I-250000J0D01*
G01*
X138400000Y-99575000D01*
G75*
G02*
X138150000Y-99325000I0J250000D01*
G01*
X138150000Y-98375000D01*
G75*
G02*
X138400000Y-98125000I250000J0D01*
G01*
X138900000Y-98125000D01*
G75*
G02*
X139150000Y-98375000I0J-250000D01*
G01*
G37*
G36*
G01*
X141050000Y-98375000D02*
X141050000Y-99325000D01*
G75*
G02*
X140800000Y-99575000I-250000J0D01*
G01*
X140300000Y-99575000D01*
G75*
G02*
X140050000Y-99325000I0J250000D01*
G01*
X140050000Y-98375000D01*
G75*
G02*
X140300000Y-98125000I250000J0D01*
G01*
X140800000Y-98125000D01*
G75*
G02*
X141050000Y-98375000I0J-250000D01*
G01*
G37*
%TD*%
D10*
%TO.C,J10*%
X90180000Y-108060000D03*
X87640000Y-108060000D03*
X85100000Y-108060000D03*
X82560000Y-108060000D03*
X80020000Y-108060000D03*
X77480000Y-108060000D03*
X74940000Y-108060000D03*
X72400000Y-108060000D03*
X90180000Y-110600000D03*
X87640000Y-110600000D03*
X85100000Y-110600000D03*
X82560000Y-110600000D03*
X80020000Y-110600000D03*
X77480000Y-110600000D03*
X74940000Y-110600000D03*
G36*
G01*
X73000000Y-111450000D02*
X71800000Y-111450000D01*
G75*
G02*
X71550000Y-111200000I0J250000D01*
G01*
X71550000Y-110000000D01*
G75*
G02*
X71800000Y-109750000I250000J0D01*
G01*
X73000000Y-109750000D01*
G75*
G02*
X73250000Y-110000000I0J-250000D01*
G01*
X73250000Y-111200000D01*
G75*
G02*
X73000000Y-111450000I-250000J0D01*
G01*
G37*
%TD*%
%TO.C,R9*%
G36*
G01*
X156712500Y-111200001D02*
X156712500Y-110299999D01*
G75*
G02*
X156962499Y-110050000I249999J0D01*
G01*
X157487501Y-110050000D01*
G75*
G02*
X157737500Y-110299999I0J-249999D01*
G01*
X157737500Y-111200001D01*
G75*
G02*
X157487501Y-111450000I-249999J0D01*
G01*
X156962499Y-111450000D01*
G75*
G02*
X156712500Y-111200001I0J249999D01*
G01*
G37*
G36*
G01*
X154887500Y-111200001D02*
X154887500Y-110299999D01*
G75*
G02*
X155137499Y-110050000I249999J0D01*
G01*
X155662501Y-110050000D01*
G75*
G02*
X155912500Y-110299999I0J-249999D01*
G01*
X155912500Y-111200001D01*
G75*
G02*
X155662501Y-111450000I-249999J0D01*
G01*
X155137499Y-111450000D01*
G75*
G02*
X154887500Y-111200001I0J249999D01*
G01*
G37*
%TD*%
%TO.C,R8*%
G36*
G01*
X157800000Y-108300001D02*
X157800000Y-107399999D01*
G75*
G02*
X158049999Y-107150000I249999J0D01*
G01*
X158575001Y-107150000D01*
G75*
G02*
X158825000Y-107399999I0J-249999D01*
G01*
X158825000Y-108300001D01*
G75*
G02*
X158575001Y-108550000I-249999J0D01*
G01*
X158049999Y-108550000D01*
G75*
G02*
X157800000Y-108300001I0J249999D01*
G01*
G37*
G36*
G01*
X155975000Y-108300001D02*
X155975000Y-107399999D01*
G75*
G02*
X156224999Y-107150000I249999J0D01*
G01*
X156750001Y-107150000D01*
G75*
G02*
X157000000Y-107399999I0J-249999D01*
G01*
X157000000Y-108300001D01*
G75*
G02*
X156750001Y-108550000I-249999J0D01*
G01*
X156224999Y-108550000D01*
G75*
G02*
X155975000Y-108300001I0J249999D01*
G01*
G37*
%TD*%
%TO.C,R7*%
G36*
G01*
X156712500Y-105300001D02*
X156712500Y-104399999D01*
G75*
G02*
X156962499Y-104150000I249999J0D01*
G01*
X157487501Y-104150000D01*
G75*
G02*
X157737500Y-104399999I0J-249999D01*
G01*
X157737500Y-105300001D01*
G75*
G02*
X157487501Y-105550000I-249999J0D01*
G01*
X156962499Y-105550000D01*
G75*
G02*
X156712500Y-105300001I0J249999D01*
G01*
G37*
G36*
G01*
X154887500Y-105300001D02*
X154887500Y-104399999D01*
G75*
G02*
X155137499Y-104150000I249999J0D01*
G01*
X155662501Y-104150000D01*
G75*
G02*
X155912500Y-104399999I0J-249999D01*
G01*
X155912500Y-105300001D01*
G75*
G02*
X155662501Y-105550000I-249999J0D01*
G01*
X155137499Y-105550000D01*
G75*
G02*
X154887500Y-105300001I0J249999D01*
G01*
G37*
%TD*%
%TO.C,C1*%
G36*
G01*
X76799999Y-95175000D02*
X79000001Y-95175000D01*
G75*
G02*
X79250000Y-95424999I0J-249999D01*
G01*
X79250000Y-96075001D01*
G75*
G02*
X79000001Y-96325000I-249999J0D01*
G01*
X76799999Y-96325000D01*
G75*
G02*
X76550000Y-96075001I0J249999D01*
G01*
X76550000Y-95424999D01*
G75*
G02*
X76799999Y-95175000I249999J0D01*
G01*
G37*
G36*
G01*
X76799999Y-92225000D02*
X79000001Y-92225000D01*
G75*
G02*
X79250000Y-92474999I0J-249999D01*
G01*
X79250000Y-93125001D01*
G75*
G02*
X79000001Y-93375000I-249999J0D01*
G01*
X76799999Y-93375000D01*
G75*
G02*
X76550000Y-93125001I0J249999D01*
G01*
X76550000Y-92474999D01*
G75*
G02*
X76799999Y-92225000I249999J0D01*
G01*
G37*
%TD*%
%TO.C,U1*%
G36*
G01*
X115525000Y-91305000D02*
X115525000Y-91005000D01*
G75*
G02*
X115675000Y-90855000I150000J0D01*
G01*
X117425000Y-90855000D01*
G75*
G02*
X117575000Y-91005000I0J-150000D01*
G01*
X117575000Y-91305000D01*
G75*
G02*
X117425000Y-91455000I-150000J0D01*
G01*
X115675000Y-91455000D01*
G75*
G02*
X115525000Y-91305000I0J150000D01*
G01*
G37*
G36*
G01*
X115525000Y-92575000D02*
X115525000Y-92275000D01*
G75*
G02*
X115675000Y-92125000I150000J0D01*
G01*
X117425000Y-92125000D01*
G75*
G02*
X117575000Y-92275000I0J-150000D01*
G01*
X117575000Y-92575000D01*
G75*
G02*
X117425000Y-92725000I-150000J0D01*
G01*
X115675000Y-92725000D01*
G75*
G02*
X115525000Y-92575000I0J150000D01*
G01*
G37*
G36*
G01*
X115525000Y-93845000D02*
X115525000Y-93545000D01*
G75*
G02*
X115675000Y-93395000I150000J0D01*
G01*
X117425000Y-93395000D01*
G75*
G02*
X117575000Y-93545000I0J-150000D01*
G01*
X117575000Y-93845000D01*
G75*
G02*
X117425000Y-93995000I-150000J0D01*
G01*
X115675000Y-93995000D01*
G75*
G02*
X115525000Y-93845000I0J150000D01*
G01*
G37*
G36*
G01*
X115525000Y-95115000D02*
X115525000Y-94815000D01*
G75*
G02*
X115675000Y-94665000I150000J0D01*
G01*
X117425000Y-94665000D01*
G75*
G02*
X117575000Y-94815000I0J-150000D01*
G01*
X117575000Y-95115000D01*
G75*
G02*
X117425000Y-95265000I-150000J0D01*
G01*
X115675000Y-95265000D01*
G75*
G02*
X115525000Y-95115000I0J150000D01*
G01*
G37*
G36*
G01*
X115525000Y-96385000D02*
X115525000Y-96085000D01*
G75*
G02*
X115675000Y-95935000I150000J0D01*
G01*
X117425000Y-95935000D01*
G75*
G02*
X117575000Y-96085000I0J-150000D01*
G01*
X117575000Y-96385000D01*
G75*
G02*
X117425000Y-96535000I-150000J0D01*
G01*
X115675000Y-96535000D01*
G75*
G02*
X115525000Y-96385000I0J150000D01*
G01*
G37*
G36*
G01*
X115525000Y-97655000D02*
X115525000Y-97355000D01*
G75*
G02*
X115675000Y-97205000I150000J0D01*
G01*
X117425000Y-97205000D01*
G75*
G02*
X117575000Y-97355000I0J-150000D01*
G01*
X117575000Y-97655000D01*
G75*
G02*
X117425000Y-97805000I-150000J0D01*
G01*
X115675000Y-97805000D01*
G75*
G02*
X115525000Y-97655000I0J150000D01*
G01*
G37*
G36*
G01*
X115525000Y-98925000D02*
X115525000Y-98625000D01*
G75*
G02*
X115675000Y-98475000I150000J0D01*
G01*
X117425000Y-98475000D01*
G75*
G02*
X117575000Y-98625000I0J-150000D01*
G01*
X117575000Y-98925000D01*
G75*
G02*
X117425000Y-99075000I-150000J0D01*
G01*
X115675000Y-99075000D01*
G75*
G02*
X115525000Y-98925000I0J150000D01*
G01*
G37*
G36*
G01*
X115525000Y-100195000D02*
X115525000Y-99895000D01*
G75*
G02*
X115675000Y-99745000I150000J0D01*
G01*
X117425000Y-99745000D01*
G75*
G02*
X117575000Y-99895000I0J-150000D01*
G01*
X117575000Y-100195000D01*
G75*
G02*
X117425000Y-100345000I-150000J0D01*
G01*
X115675000Y-100345000D01*
G75*
G02*
X115525000Y-100195000I0J150000D01*
G01*
G37*
G36*
G01*
X106225000Y-100195000D02*
X106225000Y-99895000D01*
G75*
G02*
X106375000Y-99745000I150000J0D01*
G01*
X108125000Y-99745000D01*
G75*
G02*
X108275000Y-99895000I0J-150000D01*
G01*
X108275000Y-100195000D01*
G75*
G02*
X108125000Y-100345000I-150000J0D01*
G01*
X106375000Y-100345000D01*
G75*
G02*
X106225000Y-100195000I0J150000D01*
G01*
G37*
G36*
G01*
X106225000Y-98925000D02*
X106225000Y-98625000D01*
G75*
G02*
X106375000Y-98475000I150000J0D01*
G01*
X108125000Y-98475000D01*
G75*
G02*
X108275000Y-98625000I0J-150000D01*
G01*
X108275000Y-98925000D01*
G75*
G02*
X108125000Y-99075000I-150000J0D01*
G01*
X106375000Y-99075000D01*
G75*
G02*
X106225000Y-98925000I0J150000D01*
G01*
G37*
G36*
G01*
X106225000Y-97655000D02*
X106225000Y-97355000D01*
G75*
G02*
X106375000Y-97205000I150000J0D01*
G01*
X108125000Y-97205000D01*
G75*
G02*
X108275000Y-97355000I0J-150000D01*
G01*
X108275000Y-97655000D01*
G75*
G02*
X108125000Y-97805000I-150000J0D01*
G01*
X106375000Y-97805000D01*
G75*
G02*
X106225000Y-97655000I0J150000D01*
G01*
G37*
G36*
G01*
X106225000Y-96385000D02*
X106225000Y-96085000D01*
G75*
G02*
X106375000Y-95935000I150000J0D01*
G01*
X108125000Y-95935000D01*
G75*
G02*
X108275000Y-96085000I0J-150000D01*
G01*
X108275000Y-96385000D01*
G75*
G02*
X108125000Y-96535000I-150000J0D01*
G01*
X106375000Y-96535000D01*
G75*
G02*
X106225000Y-96385000I0J150000D01*
G01*
G37*
G36*
G01*
X106225000Y-95115000D02*
X106225000Y-94815000D01*
G75*
G02*
X106375000Y-94665000I150000J0D01*
G01*
X108125000Y-94665000D01*
G75*
G02*
X108275000Y-94815000I0J-150000D01*
G01*
X108275000Y-95115000D01*
G75*
G02*
X108125000Y-95265000I-150000J0D01*
G01*
X106375000Y-95265000D01*
G75*
G02*
X106225000Y-95115000I0J150000D01*
G01*
G37*
G36*
G01*
X106225000Y-93845000D02*
X106225000Y-93545000D01*
G75*
G02*
X106375000Y-93395000I150000J0D01*
G01*
X108125000Y-93395000D01*
G75*
G02*
X108275000Y-93545000I0J-150000D01*
G01*
X108275000Y-93845000D01*
G75*
G02*
X108125000Y-93995000I-150000J0D01*
G01*
X106375000Y-93995000D01*
G75*
G02*
X106225000Y-93845000I0J150000D01*
G01*
G37*
G36*
G01*
X106225000Y-92575000D02*
X106225000Y-92275000D01*
G75*
G02*
X106375000Y-92125000I150000J0D01*
G01*
X108125000Y-92125000D01*
G75*
G02*
X108275000Y-92275000I0J-150000D01*
G01*
X108275000Y-92575000D01*
G75*
G02*
X108125000Y-92725000I-150000J0D01*
G01*
X106375000Y-92725000D01*
G75*
G02*
X106225000Y-92575000I0J150000D01*
G01*
G37*
G36*
G01*
X106225000Y-91305000D02*
X106225000Y-91005000D01*
G75*
G02*
X106375000Y-90855000I150000J0D01*
G01*
X108125000Y-90855000D01*
G75*
G02*
X108275000Y-91005000I0J-150000D01*
G01*
X108275000Y-91305000D01*
G75*
G02*
X108125000Y-91455000I-150000J0D01*
G01*
X106375000Y-91455000D01*
G75*
G02*
X106225000Y-91305000I0J150000D01*
G01*
G37*
%TD*%
%TO.C,R6*%
G36*
G01*
X158134000Y-102300001D02*
X158134000Y-101399999D01*
G75*
G02*
X158383999Y-101150000I249999J0D01*
G01*
X158909001Y-101150000D01*
G75*
G02*
X159159000Y-101399999I0J-249999D01*
G01*
X159159000Y-102300001D01*
G75*
G02*
X158909001Y-102550000I-249999J0D01*
G01*
X158383999Y-102550000D01*
G75*
G02*
X158134000Y-102300001I0J249999D01*
G01*
G37*
G36*
G01*
X156309000Y-102300001D02*
X156309000Y-101399999D01*
G75*
G02*
X156558999Y-101150000I249999J0D01*
G01*
X157084001Y-101150000D01*
G75*
G02*
X157334000Y-101399999I0J-249999D01*
G01*
X157334000Y-102300001D01*
G75*
G02*
X157084001Y-102550000I-249999J0D01*
G01*
X156558999Y-102550000D01*
G75*
G02*
X156309000Y-102300001I0J249999D01*
G01*
G37*
%TD*%
%TO.C,R5*%
G36*
G01*
X157475500Y-99510001D02*
X157475500Y-98609999D01*
G75*
G02*
X157725499Y-98360000I249999J0D01*
G01*
X158250501Y-98360000D01*
G75*
G02*
X158500500Y-98609999I0J-249999D01*
G01*
X158500500Y-99510001D01*
G75*
G02*
X158250501Y-99760000I-249999J0D01*
G01*
X157725499Y-99760000D01*
G75*
G02*
X157475500Y-99510001I0J249999D01*
G01*
G37*
G36*
G01*
X155650500Y-99510001D02*
X155650500Y-98609999D01*
G75*
G02*
X155900499Y-98360000I249999J0D01*
G01*
X156425501Y-98360000D01*
G75*
G02*
X156675500Y-98609999I0J-249999D01*
G01*
X156675500Y-99510001D01*
G75*
G02*
X156425501Y-99760000I-249999J0D01*
G01*
X155900499Y-99760000D01*
G75*
G02*
X155650500Y-99510001I0J249999D01*
G01*
G37*
%TD*%
%TO.C,R4*%
G36*
G01*
X158200001Y-92413500D02*
X157299999Y-92413500D01*
G75*
G02*
X157050000Y-92163501I0J249999D01*
G01*
X157050000Y-91638499D01*
G75*
G02*
X157299999Y-91388500I249999J0D01*
G01*
X158200001Y-91388500D01*
G75*
G02*
X158450000Y-91638499I0J-249999D01*
G01*
X158450000Y-92163501D01*
G75*
G02*
X158200001Y-92413500I-249999J0D01*
G01*
G37*
G36*
G01*
X158200001Y-94238500D02*
X157299999Y-94238500D01*
G75*
G02*
X157050000Y-93988501I0J249999D01*
G01*
X157050000Y-93463499D01*
G75*
G02*
X157299999Y-93213500I249999J0D01*
G01*
X158200001Y-93213500D01*
G75*
G02*
X158450000Y-93463499I0J-249999D01*
G01*
X158450000Y-93988501D01*
G75*
G02*
X158200001Y-94238500I-249999J0D01*
G01*
G37*
%TD*%
%TO.C,R3*%
G36*
G01*
X154800001Y-92200000D02*
X153899999Y-92200000D01*
G75*
G02*
X153650000Y-91950001I0J249999D01*
G01*
X153650000Y-91424999D01*
G75*
G02*
X153899999Y-91175000I249999J0D01*
G01*
X154800001Y-91175000D01*
G75*
G02*
X155050000Y-91424999I0J-249999D01*
G01*
X155050000Y-91950001D01*
G75*
G02*
X154800001Y-92200000I-249999J0D01*
G01*
G37*
G36*
G01*
X154800001Y-94025000D02*
X153899999Y-94025000D01*
G75*
G02*
X153650000Y-93775001I0J249999D01*
G01*
X153650000Y-93249999D01*
G75*
G02*
X153899999Y-93000000I249999J0D01*
G01*
X154800001Y-93000000D01*
G75*
G02*
X155050000Y-93249999I0J-249999D01*
G01*
X155050000Y-93775001D01*
G75*
G02*
X154800001Y-94025000I-249999J0D01*
G01*
G37*
%TD*%
%TO.C,R2*%
G36*
G01*
X149864500Y-92429999D02*
X149864500Y-93330001D01*
G75*
G02*
X149614501Y-93580000I-249999J0D01*
G01*
X149089499Y-93580000D01*
G75*
G02*
X148839500Y-93330001I0J249999D01*
G01*
X148839500Y-92429999D01*
G75*
G02*
X149089499Y-92180000I249999J0D01*
G01*
X149614501Y-92180000D01*
G75*
G02*
X149864500Y-92429999I0J-249999D01*
G01*
G37*
G36*
G01*
X148039500Y-92429999D02*
X148039500Y-93330001D01*
G75*
G02*
X147789501Y-93580000I-249999J0D01*
G01*
X147264499Y-93580000D01*
G75*
G02*
X147014500Y-93330001I0J249999D01*
G01*
X147014500Y-92429999D01*
G75*
G02*
X147264499Y-92180000I249999J0D01*
G01*
X147789501Y-92180000D01*
G75*
G02*
X148039500Y-92429999I0J-249999D01*
G01*
G37*
%TD*%
D11*
%TO.C,J9*%
X56440000Y-110100000D03*
G36*
G01*
X53030000Y-110945001D02*
X53030000Y-109254999D01*
G75*
G02*
X53279999Y-109005000I249999J0D01*
G01*
X54520001Y-109005000D01*
G75*
G02*
X54770000Y-109254999I0J-249999D01*
G01*
X54770000Y-110945001D01*
G75*
G02*
X54520001Y-111195000I-249999J0D01*
G01*
X53279999Y-111195000D01*
G75*
G02*
X53030000Y-110945001I0J249999D01*
G01*
G37*
%TD*%
%TO.C,J8*%
X238460000Y-110100000D03*
G36*
G01*
X241870000Y-109254999D02*
X241870000Y-110945001D01*
G75*
G02*
X241620001Y-111195000I-249999J0D01*
G01*
X240379999Y-111195000D01*
G75*
G02*
X240130000Y-110945001I0J249999D01*
G01*
X240130000Y-109254999D01*
G75*
G02*
X240379999Y-109005000I249999J0D01*
G01*
X241620001Y-109005000D01*
G75*
G02*
X241870000Y-109254999I0J-249999D01*
G01*
G37*
%TD*%
D12*
%TO.C,J7*%
X234460000Y-77900000D03*
X237000000Y-77900000D03*
D13*
X242080000Y-72820000D03*
X231920000Y-72820000D03*
%TD*%
D12*
%TO.C,J6*%
X209060000Y-77900000D03*
X211600000Y-77900000D03*
D13*
X216680000Y-72820000D03*
X206520000Y-72820000D03*
%TD*%
D12*
%TO.C,J5*%
X183660000Y-77900000D03*
X186200000Y-77900000D03*
D13*
X191280000Y-72820000D03*
X181120000Y-72820000D03*
%TD*%
D12*
%TO.C,J4*%
X158260000Y-77900000D03*
X160800000Y-77900000D03*
D13*
X165880000Y-72820000D03*
X155720000Y-72820000D03*
%TD*%
D12*
%TO.C,J3*%
X132860000Y-77900000D03*
X135400000Y-77900000D03*
D13*
X140480000Y-72820000D03*
X130320000Y-72820000D03*
%TD*%
D12*
%TO.C,J2*%
X107460000Y-77900000D03*
X110000000Y-77900000D03*
D13*
X115080000Y-72820000D03*
X104920000Y-72820000D03*
%TD*%
D12*
%TO.C,J1*%
X82060000Y-77900000D03*
X84600000Y-77900000D03*
D13*
X89680000Y-72820000D03*
X79520000Y-72820000D03*
%TD*%
D12*
%TO.C,J0*%
X56660000Y-77900000D03*
X59200000Y-77900000D03*
D13*
X64280000Y-72820000D03*
X54120000Y-72820000D03*
%TD*%
%TO.C,C7*%
G36*
G01*
X139200000Y-104525000D02*
X139200000Y-105475000D01*
G75*
G02*
X138950000Y-105725000I-250000J0D01*
G01*
X138450000Y-105725000D01*
G75*
G02*
X138200000Y-105475000I0J250000D01*
G01*
X138200000Y-104525000D01*
G75*
G02*
X138450000Y-104275000I250000J0D01*
G01*
X138950000Y-104275000D01*
G75*
G02*
X139200000Y-104525000I0J-250000D01*
G01*
G37*
G36*
G01*
X141100000Y-104525000D02*
X141100000Y-105475000D01*
G75*
G02*
X140850000Y-105725000I-250000J0D01*
G01*
X140350000Y-105725000D01*
G75*
G02*
X140100000Y-105475000I0J250000D01*
G01*
X140100000Y-104525000D01*
G75*
G02*
X140350000Y-104275000I250000J0D01*
G01*
X140850000Y-104275000D01*
G75*
G02*
X141100000Y-104525000I0J-250000D01*
G01*
G37*
%TD*%
%TO.C,C6*%
G36*
G01*
X120100000Y-103825000D02*
X120100000Y-102875000D01*
G75*
G02*
X120350000Y-102625000I250000J0D01*
G01*
X120850000Y-102625000D01*
G75*
G02*
X121100000Y-102875000I0J-250000D01*
G01*
X121100000Y-103825000D01*
G75*
G02*
X120850000Y-104075000I-250000J0D01*
G01*
X120350000Y-104075000D01*
G75*
G02*
X120100000Y-103825000I0J250000D01*
G01*
G37*
G36*
G01*
X118200000Y-103825000D02*
X118200000Y-102875000D01*
G75*
G02*
X118450000Y-102625000I250000J0D01*
G01*
X118950000Y-102625000D01*
G75*
G02*
X119200000Y-102875000I0J-250000D01*
G01*
X119200000Y-103825000D01*
G75*
G02*
X118950000Y-104075000I-250000J0D01*
G01*
X118450000Y-104075000D01*
G75*
G02*
X118200000Y-103825000I0J250000D01*
G01*
G37*
%TD*%
%TO.C,C5*%
G36*
G01*
X120100000Y-91575000D02*
X120100000Y-90625000D01*
G75*
G02*
X120350000Y-90375000I250000J0D01*
G01*
X120850000Y-90375000D01*
G75*
G02*
X121100000Y-90625000I0J-250000D01*
G01*
X121100000Y-91575000D01*
G75*
G02*
X120850000Y-91825000I-250000J0D01*
G01*
X120350000Y-91825000D01*
G75*
G02*
X120100000Y-91575000I0J250000D01*
G01*
G37*
G36*
G01*
X118200000Y-91575000D02*
X118200000Y-90625000D01*
G75*
G02*
X118450000Y-90375000I250000J0D01*
G01*
X118950000Y-90375000D01*
G75*
G02*
X119200000Y-90625000I0J-250000D01*
G01*
X119200000Y-91575000D01*
G75*
G02*
X118950000Y-91825000I-250000J0D01*
G01*
X118450000Y-91825000D01*
G75*
G02*
X118200000Y-91575000I0J250000D01*
G01*
G37*
%TD*%
%TO.C,C3*%
G36*
G01*
X103350000Y-90825000D02*
X103350000Y-91775000D01*
G75*
G02*
X103100000Y-92025000I-250000J0D01*
G01*
X102600000Y-92025000D01*
G75*
G02*
X102350000Y-91775000I0J250000D01*
G01*
X102350000Y-90825000D01*
G75*
G02*
X102600000Y-90575000I250000J0D01*
G01*
X103100000Y-90575000D01*
G75*
G02*
X103350000Y-90825000I0J-250000D01*
G01*
G37*
G36*
G01*
X105250000Y-90825000D02*
X105250000Y-91775000D01*
G75*
G02*
X105000000Y-92025000I-250000J0D01*
G01*
X104500000Y-92025000D01*
G75*
G02*
X104250000Y-91775000I0J250000D01*
G01*
X104250000Y-90825000D01*
G75*
G02*
X104500000Y-90575000I250000J0D01*
G01*
X105000000Y-90575000D01*
G75*
G02*
X105250000Y-90825000I0J-250000D01*
G01*
G37*
%TD*%
%TO.C,C2*%
G36*
G01*
X183500001Y-108825000D02*
X181299999Y-108825000D01*
G75*
G02*
X181050000Y-108575001I0J249999D01*
G01*
X181050000Y-107924999D01*
G75*
G02*
X181299999Y-107675000I249999J0D01*
G01*
X183500001Y-107675000D01*
G75*
G02*
X183750000Y-107924999I0J-249999D01*
G01*
X183750000Y-108575001D01*
G75*
G02*
X183500001Y-108825000I-249999J0D01*
G01*
G37*
G36*
G01*
X183500001Y-111775000D02*
X181299999Y-111775000D01*
G75*
G02*
X181050000Y-111525001I0J249999D01*
G01*
X181050000Y-110874999D01*
G75*
G02*
X181299999Y-110625000I249999J0D01*
G01*
X183500001Y-110625000D01*
G75*
G02*
X183750000Y-110874999I0J-249999D01*
G01*
X183750000Y-111525001D01*
G75*
G02*
X183500001Y-111775000I-249999J0D01*
G01*
G37*
%TD*%
M02*
